<svg width="85" height="66" viewBox="0 0 85 66" fill="none" xmlns="http://www.w3.org/2000/svg">
<path opacity="0.3" d="M7.416 56.2L6.60508 56.7852L6.60907 56.7906L7.416 56.2ZM46.136 56.2L46.9429 56.7906L46.136 56.2ZM46.136 10.176L46.9429 9.58535L46.136 10.176ZM7.416 10.176L6.60907 9.58535L6.60799 9.58683L7.416 10.176ZM33.552 44.408L32.6382 44.0019L32.6344 44.0104L32.6308 44.019L33.552 44.408ZM19.912 44.408L18.9908 44.797L18.9944 44.8056L18.9982 44.8141L19.912 44.408ZM19.912 21.968L18.9982 21.5619L18.9944 21.5704L18.9908 21.579L19.912 21.968ZM33.552 21.968L32.6308 22.357L32.6344 22.3656L32.6382 22.3741L33.552 21.968ZM0.256 33.144C0.256 42.9562 2.33667 50.8704 6.6051 56.7852L8.2269 55.6148C4.282 50.1483 2.256 42.6918 2.256 33.144H0.256ZM6.60907 56.7906C11.008 62.8005 17.8011 65.736 26.776 65.736V63.736C18.2682 63.736 12.1547 60.9809 8.22293 55.6094L6.60907 56.7906ZM26.776 65.736C35.7509 65.736 42.544 62.8005 46.9429 56.7906L45.3291 55.6094C41.3974 60.9809 35.2838 63.736 26.776 63.736V65.736ZM46.9429 56.7906C51.2729 50.8751 53.384 42.9588 53.384 33.144H51.384C51.384 42.6892 49.3298 50.1436 45.3291 55.6094L46.9429 56.7906ZM53.384 33.144C53.384 23.3863 51.2722 15.5 46.9429 9.58535L45.3291 10.7666C49.3305 16.2334 51.384 23.6591 51.384 33.144H53.384ZM46.9429 9.58535C42.544 3.57552 35.7509 0.639999 26.776 0.639999V2.64C35.2838 2.64 41.3974 5.39514 45.3291 10.7666L46.9429 9.58535ZM26.776 0.639999C17.8011 0.639999 11.008 3.57552 6.60907 9.58535L8.22293 10.7666C12.1547 5.39514 18.2682 2.64 26.776 2.64V0.639999ZM6.60799 9.58683C2.33636 15.4451 0.256 23.3325 0.256 33.144H2.256C2.256 23.5955 4.28231 16.1709 8.22401 10.7652L6.60799 9.58683ZM34.312 33.144C34.312 37.9565 33.7286 41.5485 32.6382 44.0019L34.4658 44.8141C35.7221 41.9875 36.312 38.0701 36.312 33.144H34.312ZM32.6308 44.019C32.149 45.1601 31.4423 45.9741 30.5174 46.5146C29.5806 47.0621 28.352 47.368 26.776 47.368V49.368C28.6026 49.368 30.2047 49.0139 31.5266 48.2414C32.8603 47.4619 33.8404 46.2959 34.4733 44.797L32.6308 44.019ZM26.776 47.368C25.2006 47.368 23.962 47.0624 23.0077 46.5118C22.0642 45.9675 21.3351 45.1477 20.8258 44.0019L18.9982 44.8141C19.6623 46.3083 20.6638 47.4685 22.0083 48.2442C23.342 49.0136 24.9487 49.368 26.776 49.368V47.368ZM20.8333 44.019C19.7947 41.5593 19.24 37.9602 19.24 33.144H17.24C17.24 38.0665 17.8 41.9767 18.9908 44.797L20.8333 44.019ZM19.24 33.144C19.24 28.3884 19.7942 24.8178 20.8333 22.357L18.9908 21.579C17.8004 24.3982 17.24 28.2782 17.24 33.144H19.24ZM20.8258 22.3741C21.3351 21.2283 22.0642 20.4085 23.0077 19.8642C23.962 19.3136 25.2006 19.008 26.776 19.008V17.008C24.9487 17.008 23.342 17.3624 22.0083 18.1318C20.6638 18.9075 19.6623 20.0677 18.9982 21.5619L20.8258 22.3741ZM26.776 19.008C28.352 19.008 29.5806 19.3139 30.5174 19.8614C31.4423 20.4019 32.149 21.2159 32.6308 22.357L34.4733 21.579C33.8404 20.0801 32.8603 18.9141 31.5266 18.1346C30.2047 17.3621 28.6026 17.008 26.776 17.008V19.008ZM32.6382 22.3741C33.7291 24.8286 34.312 28.3922 34.312 33.144H36.312C36.312 28.2745 35.7216 24.3874 34.4658 21.5619L32.6382 22.3741ZM56.4602 18.976H55.4602V19.976H56.4602V18.976ZM56.4602 2.696V1.696H55.4602V2.696H56.4602ZM83.9162 2.696H84.9162V1.696H83.9162V2.696ZM83.9162 65V66H84.9162V65H83.9162ZM65.7882 65H64.7882V66H65.7882V65ZM65.7882 18.976H66.7882V17.976H65.7882V18.976ZM57.4602 18.976V2.696H55.4602V18.976H57.4602ZM56.4602 3.696H83.9162V1.696H56.4602V3.696ZM82.9162 2.696V65H84.9162V2.696H82.9162ZM83.9162 64H65.7882V66H83.9162V64ZM66.7882 65V18.976H64.7882V65H66.7882ZM65.7882 17.976H56.4602V19.976H65.7882V17.976Z" fill="white"/>
</svg>
