<svg width="105" height="66" viewBox="0 0 105 66" fill="none" xmlns="http://www.w3.org/2000/svg">
<path opacity="0.3" d="M7.416 56.2L6.60508 56.7852L6.60907 56.7906L7.416 56.2ZM46.136 56.2L46.9429 56.7906L46.136 56.2ZM46.136 10.176L46.9429 9.58535L46.136 10.176ZM7.416 10.176L6.60907 9.58535L6.60799 9.58683L7.416 10.176ZM33.552 44.408L32.6382 44.0019L32.6344 44.0104L32.6308 44.019L33.552 44.408ZM19.912 44.408L18.9908 44.797L18.9944 44.8056L18.9982 44.8141L19.912 44.408ZM19.912 21.968L18.9982 21.5619L18.9944 21.5704L18.9908 21.579L19.912 21.968ZM33.552 21.968L32.6308 22.357L32.6344 22.3656L32.6382 22.3741L33.552 21.968ZM0.256 33.144C0.256 42.9562 2.33667 50.8704 6.6051 56.7852L8.2269 55.6148C4.282 50.1483 2.256 42.6918 2.256 33.144H0.256ZM6.60907 56.7906C11.008 62.8005 17.8011 65.736 26.776 65.736V63.736C18.2682 63.736 12.1547 60.9809 8.22293 55.6094L6.60907 56.7906ZM26.776 65.736C35.7509 65.736 42.544 62.8005 46.9429 56.7906L45.3291 55.6094C41.3974 60.9809 35.2838 63.736 26.776 63.736V65.736ZM46.9429 56.7906C51.2729 50.8751 53.384 42.9588 53.384 33.144H51.384C51.384 42.6892 49.3298 50.1436 45.3291 55.6094L46.9429 56.7906ZM53.384 33.144C53.384 23.3863 51.2722 15.5 46.9429 9.58535L45.3291 10.7666C49.3305 16.2334 51.384 23.6591 51.384 33.144H53.384ZM46.9429 9.58535C42.544 3.57552 35.7509 0.639999 26.776 0.639999V2.64C35.2838 2.64 41.3974 5.39514 45.3291 10.7666L46.9429 9.58535ZM26.776 0.639999C17.8011 0.639999 11.008 3.57552 6.60907 9.58535L8.22293 10.7666C12.1547 5.39514 18.2682 2.64 26.776 2.64V0.639999ZM6.60799 9.58683C2.33636 15.4451 0.256 23.3325 0.256 33.144H2.256C2.256 23.5955 4.28231 16.1709 8.22401 10.7652L6.60799 9.58683ZM34.312 33.144C34.312 37.9565 33.7286 41.5485 32.6382 44.0019L34.4658 44.8141C35.7221 41.9875 36.312 38.0701 36.312 33.144H34.312ZM32.6308 44.019C32.149 45.1601 31.4423 45.9741 30.5174 46.5146C29.5806 47.0621 28.352 47.368 26.776 47.368V49.368C28.6026 49.368 30.2047 49.0139 31.5266 48.2414C32.8603 47.4619 33.8404 46.2959 34.4733 44.797L32.6308 44.019ZM26.776 47.368C25.2006 47.368 23.962 47.0624 23.0077 46.5118C22.0642 45.9675 21.3351 45.1477 20.8258 44.0019L18.9982 44.8141C19.6623 46.3083 20.6638 47.4685 22.0083 48.2442C23.342 49.0136 24.9487 49.368 26.776 49.368V47.368ZM20.8333 44.019C19.7947 41.5593 19.24 37.9602 19.24 33.144H17.24C17.24 38.0665 17.8 41.9767 18.9908 44.797L20.8333 44.019ZM19.24 33.144C19.24 28.3884 19.7942 24.8178 20.8333 22.357L18.9908 21.579C17.8004 24.3982 17.24 28.2782 17.24 33.144H19.24ZM20.8258 22.3741C21.3351 21.2283 22.0642 20.4085 23.0077 19.8642C23.962 19.3136 25.2006 19.008 26.776 19.008V17.008C24.9487 17.008 23.342 17.3624 22.0083 18.1318C20.6638 18.9075 19.6623 20.0677 18.9982 21.5619L20.8258 22.3741ZM26.776 19.008C28.352 19.008 29.5806 19.3139 30.5174 19.8614C31.4423 20.4019 32.149 21.2159 32.6308 22.357L34.4733 21.579C33.8404 20.0801 32.8603 18.9141 31.5266 18.1346C30.2047 17.3621 28.6026 17.008 26.776 17.008V19.008ZM32.6382 22.3741C33.7291 24.8286 34.312 28.3922 34.312 33.144H36.312C36.312 28.2745 35.7216 24.3874 34.4658 21.5619L32.6382 22.3741ZM58.2202 51.272L57.6268 50.4671L57.2202 50.7668V51.272H58.2202ZM77.4922 34.992L78.2078 35.6905L78.2119 35.6863L77.4922 34.992ZM76.1722 17.744L75.318 17.2241L75.3096 17.2379L75.3016 17.2519L76.1722 17.744ZM74.9402 24.432V25.432H75.9215L75.94 24.4509L74.9402 24.432ZM58.1322 24.432L57.1332 24.3869L57.0861 25.432H58.1322V24.432ZM65.1722 7.008L65.8321 7.75933L65.8378 7.75429L65.1722 7.008ZM97.2042 6.48L97.9232 5.78498L97.2042 6.48ZM96.0602 36.576L95.2718 35.9608L95.2676 35.9663L96.0602 36.576ZM80.8362 50.216L80.3084 49.3666L77.3321 51.216H80.8362V50.216ZM103.188 50.216H104.188V49.216H103.188V50.216ZM103.188 64.208V65.208H104.188V64.208H103.188ZM58.2202 64.208H57.2202V65.208H58.2202V64.208ZM58.8136 52.0769C66.8769 46.1324 73.3466 40.6702 78.2078 35.6905L76.7766 34.2935C72.0164 39.1698 65.6381 44.5609 57.6268 50.4671L58.8136 52.0769ZM78.2119 35.6863C83.08 30.6401 85.7082 25.9109 85.7082 21.528H83.7082C83.7082 25.1238 81.5257 29.3706 76.7725 34.2977L78.2119 35.6863ZM85.7082 21.528C85.7082 19.4845 85.3023 17.7667 84.3219 16.5459C83.3079 15.2831 81.8183 14.72 80.0442 14.72V16.72C81.3795 16.72 82.2218 17.1249 82.7625 17.7981C83.3368 18.5133 83.7082 19.6995 83.7082 21.528H85.7082ZM80.0442 14.72C77.9828 14.72 76.3443 15.538 75.318 17.2241L77.0264 18.2639C77.6428 17.2513 78.5855 16.72 80.0442 16.72V14.72ZM75.3016 17.2519C74.4097 18.83 73.9996 21.2732 73.9404 24.4131L75.94 24.4509C75.9981 21.3721 76.4094 19.3567 77.0428 18.2361L75.3016 17.2519ZM74.9402 23.432H58.1322V25.432H74.9402V23.432ZM59.1312 24.4771C59.4754 16.8473 61.7592 11.3369 65.8321 7.75932L64.5122 6.25668C59.9025 10.3057 57.493 16.4114 57.1332 24.3869L59.1312 24.4771ZM65.8378 7.75429C69.9737 4.06552 75.1542 2.2 81.4522 2.2V0.199997C74.7262 0.199997 69.0533 2.20648 64.5066 6.2617L65.8378 7.75429ZM81.4522 2.2C88.4026 2.2 93.342 3.9234 96.4852 7.17502L97.9232 5.78498C94.2611 1.9966 88.6991 0.199997 81.4522 0.199997V2.2ZM96.4852 7.17502C99.6884 10.4887 101.308 14.689 101.308 19.856H103.308C103.308 14.2283 101.525 9.51132 97.9232 5.78498L96.4852 7.17502ZM101.308 19.856C101.308 25.4054 99.3237 30.7675 95.2718 35.9609L96.8486 37.1911C101.127 31.7071 103.308 25.9226 103.308 19.856H101.308ZM95.2676 35.9663C91.2381 41.2046 86.2549 45.6717 80.3084 49.3666L81.364 51.0654C87.5028 47.251 92.6689 42.6248 96.8528 37.1857L95.2676 35.9663ZM80.8362 51.216H103.188V49.216H80.8362V51.216ZM102.188 50.216V64.208H104.188V50.216H102.188ZM103.188 63.208H58.2202V65.208H103.188V63.208ZM59.2202 64.208V51.272H57.2202V64.208H59.2202Z" fill="white"/>
</svg>
