<svg width="106" height="69" viewBox="0 0 106 69" fill="none" xmlns="http://www.w3.org/2000/svg">
<path opacity="0.3" d="M7.416 58.2L6.60508 58.7852L6.60907 58.7906L7.416 58.2ZM46.136 58.2L46.9429 58.7906L46.136 58.2ZM46.136 12.176L46.9429 11.5854L46.136 12.176ZM7.416 12.176L6.60907 11.5854L6.60799 11.5868L7.416 12.176ZM33.552 46.408L32.6382 46.0019L32.6344 46.0104L32.6308 46.019L33.552 46.408ZM19.912 46.408L18.9908 46.797L18.9944 46.8056L18.9982 46.8141L19.912 46.408ZM19.912 23.968L18.9982 23.5619L18.9944 23.5704L18.9908 23.579L19.912 23.968ZM33.552 23.968L32.6308 24.357L32.6344 24.3656L32.6382 24.3741L33.552 23.968ZM0.256 35.144C0.256 44.9562 2.33667 52.8704 6.6051 58.7852L8.2269 57.6148C4.282 52.1483 2.256 44.6918 2.256 35.144H0.256ZM6.60907 58.7906C11.008 64.8005 17.8011 67.736 26.776 67.736V65.736C18.2682 65.736 12.1547 62.9809 8.22293 57.6094L6.60907 58.7906ZM26.776 67.736C35.7509 67.736 42.544 64.8005 46.9429 58.7906L45.3291 57.6094C41.3974 62.9809 35.2838 65.736 26.776 65.736V67.736ZM46.9429 58.7906C51.2729 52.8751 53.384 44.9588 53.384 35.144H51.384C51.384 44.6892 49.3298 52.1436 45.3291 57.6094L46.9429 58.7906ZM53.384 35.144C53.384 25.3863 51.2722 17.5 46.9429 11.5854L45.3291 12.7666C49.3305 18.2334 51.384 25.6591 51.384 35.144H53.384ZM46.9429 11.5854C42.544 5.57552 35.7509 2.64 26.776 2.64V4.64C35.2838 4.64 41.3974 7.39514 45.3291 12.7666L46.9429 11.5854ZM26.776 2.64C17.8011 2.64 11.008 5.57552 6.60907 11.5854L8.22293 12.7666C12.1547 7.39514 18.2682 4.64 26.776 4.64V2.64ZM6.60799 11.5868C2.33636 17.4451 0.256 25.3325 0.256 35.144H2.256C2.256 25.5955 4.28231 18.1709 8.22401 12.7652L6.60799 11.5868ZM34.312 35.144C34.312 39.9565 33.7286 43.5485 32.6382 46.0019L34.4658 46.8141C35.7221 43.9875 36.312 40.0701 36.312 35.144H34.312ZM32.6308 46.019C32.149 47.1601 31.4423 47.9741 30.5174 48.5146C29.5806 49.0621 28.352 49.368 26.776 49.368V51.368C28.6026 51.368 30.2047 51.0139 31.5266 50.2414C32.8603 49.4619 33.8404 48.2959 34.4733 46.797L32.6308 46.019ZM26.776 49.368C25.2006 49.368 23.962 49.0624 23.0077 48.5118C22.0642 47.9675 21.3351 47.1477 20.8258 46.0019L18.9982 46.8141C19.6623 48.3083 20.6638 49.4685 22.0083 50.2442C23.342 51.0136 24.9487 51.368 26.776 51.368V49.368ZM20.8333 46.019C19.7947 43.5593 19.24 39.9602 19.24 35.144H17.24C17.24 40.0665 17.8 43.9767 18.9908 46.797L20.8333 46.019ZM19.24 35.144C19.24 30.3884 19.7942 26.8178 20.8333 24.357L18.9908 23.579C17.8004 26.3982 17.24 30.2782 17.24 35.144H19.24ZM20.8258 24.3741C21.3351 23.2283 22.0642 22.4085 23.0077 21.8642C23.962 21.3136 25.2006 21.008 26.776 21.008V19.008C24.9487 19.008 23.342 19.3624 22.0083 20.1318C20.6638 20.9075 19.6623 22.0677 18.9982 23.5619L20.8258 24.3741ZM26.776 21.008C28.352 21.008 29.5806 21.3139 30.5174 21.8614C31.4423 22.4019 32.149 23.2159 32.6308 24.357L34.4733 23.579C33.8404 22.0801 32.8603 20.9141 31.5266 20.1346C30.2047 19.3621 28.6026 19.008 26.776 19.008V21.008ZM32.6382 24.3741C33.7291 26.8286 34.312 30.3922 34.312 35.144H36.312C36.312 30.2745 35.7216 26.3874 34.4658 23.5619L32.6382 24.3741ZM93.5962 3.992L93.149 4.88643L93.1588 4.89136L93.1688 4.89607L93.5962 3.992ZM100.9 10.328L100.046 10.848L100.051 10.8563L100.9 10.328ZM100.372 29.072L101.142 29.7104L101.149 29.7012L100.372 29.072ZM93.2442 33.648L93.0163 32.6743L92.2442 32.855V33.648H93.2442ZM93.2442 34H92.2442V34.7032L92.906 34.9411L93.2442 34ZM101.956 58.728L101.1 58.2109L101.956 58.728ZM94.5642 65.328L94.998 66.229L95.0049 66.2257L94.5642 65.328ZM65.6122 62.248L64.9658 63.011L64.971 63.0154L65.6122 62.248ZM58.9242 45.616V44.616H57.8924L57.9247 45.6472L58.9242 45.616ZM75.8202 45.616L76.8199 45.639L76.8434 44.616H75.8202V45.616ZM86.2042 51.776L85.4772 51.0894L85.476 51.0906L86.2042 51.776ZM85.5002 42.976L84.9002 43.776L84.908 43.7818L84.9159 43.7875L85.5002 42.976ZM75.5562 41.392H74.5562V42.392H75.5562V41.392ZM75.5562 27.4V26.4H74.5562V27.4H75.5562ZM84.2682 26.256L84.7154 27.1504L84.729 27.1437L84.7423 27.1365L84.2682 26.256ZM85.2362 17.368L84.5067 18.0519L84.5177 18.0637L84.5291 18.0751L85.2362 17.368ZM77.9322 17.896L77.1059 17.3326L77.1001 17.3413L77.9322 17.896ZM76.5242 22.648V23.648H77.4654L77.5224 22.7085L76.5242 22.648ZM59.7162 22.648L58.7168 22.6135L58.6811 23.648H59.7162V22.648ZM65.7882 7.07199L66.4725 7.80118L66.4729 7.80084L65.7882 7.07199ZM82.0682 2.616C86.4718 2.616 90.1527 3.38829 93.149 4.88643L94.0434 3.09757C90.7037 1.4277 86.6993 0.615997 82.0682 0.615997V2.616ZM93.1688 4.89607C96.2424 6.34903 98.5178 8.33733 100.046 10.8479L101.754 9.80805C99.9973 6.92133 97.4033 4.68563 94.0236 3.08792L93.1688 4.89607ZM100.051 10.8563C101.588 13.3257 102.364 16.1321 102.364 19.304H104.364C104.364 15.7879 103.498 12.6103 101.749 9.79969L100.051 10.8563ZM102.364 19.304C102.364 23.1875 101.41 26.2012 99.5949 28.4428L101.149 29.7012C103.324 27.0148 104.364 23.5165 104.364 19.304H102.364ZM99.6024 28.4337C97.7318 30.6894 95.5392 32.0838 93.0163 32.6743L93.4721 34.6217C96.4639 33.9215 99.0233 32.2652 101.142 29.7103L99.6024 28.4337ZM92.2442 33.648V34H94.2442V33.648H92.2442ZM92.906 34.9411C96.528 36.2427 99.1618 38.0659 100.893 40.3655C102.619 42.6579 103.508 45.5024 103.508 48.96H105.508C105.508 45.1429 104.52 41.8568 102.491 39.1625C100.468 36.4755 97.4698 34.4559 93.5824 33.0589L92.906 34.9411ZM103.508 48.96C103.508 52.4968 102.696 55.5695 101.1 58.2109L102.812 59.2451C104.619 56.2545 105.508 52.8152 105.508 48.96H103.508ZM101.1 58.2109C99.5071 60.8478 97.1947 62.9227 94.1235 64.4303L95.0049 66.2257C98.387 64.5653 101.003 62.2402 102.812 59.2451L101.1 58.2109ZM94.1304 64.427C91.129 65.8721 87.4717 66.616 83.1242 66.616V68.616C87.694 68.616 91.6634 67.8345 94.998 66.229L94.1304 64.427ZM83.1242 66.616C75.8898 66.616 70.305 64.8662 66.2534 61.4806L64.971 63.0154C69.4847 66.7871 75.5745 68.616 83.1242 68.616V66.616ZM66.2586 61.485C62.3197 58.1479 60.1528 52.9166 59.9237 45.5848L57.9247 45.6472C58.1649 53.334 60.4567 59.1908 64.9658 63.011L66.2586 61.485ZM58.9242 46.616H75.8202V44.616H58.9242V46.616ZM74.8204 45.593C74.7589 48.2689 75.2973 50.4711 76.6248 52.0109C77.9738 53.5759 79.9753 54.272 82.4202 54.272V52.272C80.3478 52.272 78.9905 51.6922 78.1396 50.7051C77.267 49.6929 76.7641 48.0671 76.8199 45.639L74.8204 45.593ZM82.4202 54.272C84.2327 54.272 85.7747 53.6914 86.9324 52.4614L85.476 51.0906C84.7564 51.8552 83.7756 52.272 82.4202 52.272V54.272ZM86.9312 52.4626C88.1272 51.1963 88.7002 49.5899 88.7002 47.728H86.7002C86.7002 49.1514 86.2759 50.2437 85.4772 51.0894L86.9312 52.4626ZM88.7002 47.728C88.7002 45.3563 87.8587 43.4419 86.0845 42.1645L84.9159 43.7875C86.075 44.6221 86.7002 45.8757 86.7002 47.728H88.7002ZM86.1002 42.176C84.4277 40.9216 81.8683 40.392 78.6362 40.392V42.392C81.7401 42.392 83.7567 42.9184 84.9002 43.776L86.1002 42.176ZM78.6362 40.392H75.5562V42.392H78.6362V40.392ZM76.5562 41.392V27.4H74.5562V41.392H76.5562ZM75.5562 28.4H78.5482V26.4H75.5562V28.4ZM78.5482 28.4C80.9408 28.4 83.0121 28.0021 84.7154 27.1504L83.821 25.3616C82.4736 26.0353 80.7315 26.4 78.5482 26.4V28.4ZM84.7423 27.1365C86.713 26.0753 87.5562 24.0269 87.5562 21.416H85.5562C85.5562 23.6158 84.874 24.794 83.7941 25.3755L84.7423 27.1365ZM87.5562 21.416C87.5562 19.4543 87.0824 17.8 85.9433 16.6609L84.5291 18.0751C85.1499 18.696 85.5562 19.7404 85.5562 21.416H87.5562ZM85.9657 16.6841C84.8695 15.5147 83.4168 14.96 81.7162 14.96V16.96C82.9489 16.96 83.8429 17.344 84.5067 18.0519L85.9657 16.6841ZM81.7162 14.96C79.7631 14.96 78.1834 15.7524 77.106 17.3327L78.7584 18.4593C79.441 17.4582 80.3839 16.96 81.7162 16.96V14.96ZM77.1001 17.3413C76.1548 18.7593 75.6508 20.5282 75.526 22.5875L77.5224 22.7085C77.6322 20.8958 78.0669 19.4967 78.7642 18.4507L77.1001 17.3413ZM76.5242 21.648H59.7162V23.648H76.5242V21.648ZM60.7156 22.6825C60.944 16.0582 62.905 11.1491 66.4725 7.80118L65.1039 6.34281C61.0447 10.1522 58.9577 15.6271 58.7168 22.6135L60.7156 22.6825ZM66.4729 7.80084C70.1071 4.38683 75.2591 2.616 82.0682 2.616V0.615997C74.9147 0.615997 69.2132 2.48249 65.1035 6.34315L66.4729 7.80084Z" fill="white"/>
</svg>
