<svg width="108" height="69" viewBox="0 0 108 69" fill="none" xmlns="http://www.w3.org/2000/svg">
<path opacity="0.3" d="M7.416 58.2L6.60508 58.7852L6.60907 58.7906L7.416 58.2ZM46.136 58.2L46.9429 58.7906L46.136 58.2ZM46.136 12.176L46.9429 11.5854L46.136 12.176ZM7.416 12.176L6.60907 11.5854L6.60799 11.5868L7.416 12.176ZM33.552 46.408L32.6382 46.0019L32.6344 46.0104L32.6308 46.019L33.552 46.408ZM19.912 46.408L18.9908 46.797L18.9944 46.8056L18.9982 46.8141L19.912 46.408ZM19.912 23.968L18.9982 23.5619L18.9944 23.5704L18.9908 23.579L19.912 23.968ZM33.552 23.968L32.6308 24.357L32.6344 24.3656L32.6382 24.3741L33.552 23.968ZM0.256 35.144C0.256 44.9562 2.33667 52.8704 6.6051 58.7852L8.2269 57.6148C4.282 52.1483 2.256 44.6918 2.256 35.144H0.256ZM6.60907 58.7906C11.008 64.8005 17.8011 67.736 26.776 67.736V65.736C18.2682 65.736 12.1547 62.9809 8.22293 57.6094L6.60907 58.7906ZM26.776 67.736C35.7509 67.736 42.544 64.8005 46.9429 58.7906L45.3291 57.6094C41.3974 62.9809 35.2838 65.736 26.776 65.736V67.736ZM46.9429 58.7906C51.2729 52.8751 53.384 44.9588 53.384 35.144H51.384C51.384 44.6892 49.3298 52.1436 45.3291 57.6094L46.9429 58.7906ZM53.384 35.144C53.384 25.3863 51.2722 17.5 46.9429 11.5854L45.3291 12.7666C49.3305 18.2334 51.384 25.6591 51.384 35.144H53.384ZM46.9429 11.5854C42.544 5.57552 35.7509 2.64 26.776 2.64V4.64C35.2838 4.64 41.3974 7.39514 45.3291 12.7666L46.9429 11.5854ZM26.776 2.64C17.8011 2.64 11.008 5.57552 6.60907 11.5854L8.22293 12.7666C12.1547 7.39514 18.2682 4.64 26.776 4.64V2.64ZM6.60799 11.5868C2.33636 17.4451 0.256 25.3325 0.256 35.144H2.256C2.256 25.5955 4.28231 18.1709 8.22401 12.7652L6.60799 11.5868ZM34.312 35.144C34.312 39.9565 33.7286 43.5485 32.6382 46.0019L34.4658 46.8141C35.7221 43.9875 36.312 40.0701 36.312 35.144H34.312ZM32.6308 46.019C32.149 47.1601 31.4423 47.9741 30.5174 48.5146C29.5806 49.0621 28.352 49.368 26.776 49.368V51.368C28.6026 51.368 30.2047 51.0139 31.5266 50.2414C32.8603 49.4619 33.8404 48.2959 34.4733 46.797L32.6308 46.019ZM26.776 49.368C25.2006 49.368 23.962 49.0624 23.0077 48.5118C22.0642 47.9675 21.3351 47.1477 20.8258 46.0019L18.9982 46.8141C19.6623 48.3083 20.6638 49.4685 22.0083 50.2442C23.342 51.0136 24.9487 51.368 26.776 51.368V49.368ZM20.8333 46.019C19.7947 43.5593 19.24 39.9602 19.24 35.144H17.24C17.24 40.0665 17.8 43.9767 18.9908 46.797L20.8333 46.019ZM19.24 35.144C19.24 30.3884 19.7942 26.8178 20.8333 24.357L18.9908 23.579C17.8004 26.3982 17.24 30.2782 17.24 35.144H19.24ZM20.8258 24.3741C21.3351 23.2283 22.0642 22.4085 23.0077 21.8642C23.962 21.3136 25.2006 21.008 26.776 21.008V19.008C24.9487 19.008 23.342 19.3624 22.0083 20.1318C20.6638 20.9075 19.6623 22.0677 18.9982 23.5619L20.8258 24.3741ZM26.776 21.008C28.352 21.008 29.5806 21.3139 30.5174 21.8614C31.4423 22.4019 32.149 23.2159 32.6308 24.357L34.4733 23.579C33.8404 22.0801 32.8603 20.9141 31.5266 20.1346C30.2047 19.3621 28.6026 19.008 26.776 19.008V21.008ZM32.6382 24.3741C33.7291 26.8286 34.312 30.3922 34.312 35.144H36.312C36.312 30.2745 35.7216 26.3874 34.4658 23.5619L32.6382 24.3741ZM89.1962 22.032L88.2098 22.1964L88.3491 23.032H89.1962V22.032ZM87.1722 17.28L86.4248 17.9444L86.4348 17.9556L86.4452 17.9666L87.1722 17.28ZM77.2282 19.744L78.1525 20.1258L77.2282 19.744ZM75.6442 32.24L74.6442 32.2504L76.5386 32.6872L75.6442 32.24ZM80.4842 27.488L80.0278 26.5981L80.0184 26.6031L80.4842 27.488ZM101.868 31.008L101.149 31.703L101.868 31.008ZM104.244 57.408L103.373 56.9169L103.366 56.9291L104.244 57.408ZM96.5882 64.976L97.054 65.861L97.066 65.8545L96.5882 64.976ZM65.5242 59.168L64.6737 59.6941L64.6802 59.7043L65.5242 59.168ZM62.6202 16.4L61.6714 16.0837L61.6682 16.094L62.6202 16.4ZM70.2762 5.488L70.8373 6.31571L70.8404 6.31364L70.2762 5.488ZM99.4042 7.688L98.6587 8.35446L98.664 8.36041L98.6694 8.36628L99.4042 7.688ZM105.3 22.032V23.032H106.374L106.298 21.9608L105.3 22.032ZM78.7242 50.896L78.0171 51.6031L78.7242 50.896ZM88.9322 51.072L89.6209 51.797L89.6218 51.7961L88.9322 51.072ZM88.9322 40.776L88.2425 41.5001H88.2425L88.9322 40.776ZM78.8122 40.776L78.156 40.0214L78.1477 40.0286L78.1395 40.0361L78.8122 40.776ZM90.1826 21.8676C89.8126 19.6475 89.0834 17.8472 87.8992 16.5934L86.4452 17.9666C87.2556 18.8247 87.8758 20.1925 88.2098 22.1964L90.1826 21.8676ZM87.9196 16.6156C86.7399 15.2885 85.053 14.696 83.0362 14.696V16.696C84.6567 16.696 85.7271 17.1595 86.4248 17.9444L87.9196 16.6156ZM83.0362 14.696C81.4885 14.696 80.107 15.0773 78.9444 15.8876C77.7858 16.6951 76.917 17.878 76.3039 19.3622L78.1525 20.1258C78.6541 18.9113 79.3106 18.0702 80.088 17.5284C80.8614 16.9894 81.8266 16.696 83.0362 16.696V14.696ZM76.3039 19.3622C75.1097 22.2535 74.5852 26.5856 74.6442 32.2504L76.6441 32.2296C76.5858 26.6304 77.1173 22.6318 78.1525 20.1258L76.3039 19.3622ZM76.5386 32.6872C77.4305 30.9035 78.8808 29.462 80.9499 28.3729L80.0184 26.6031C77.629 27.8607 75.8526 29.5872 74.7498 31.7928L76.5386 32.6872ZM80.9405 28.3778C83.0742 27.2836 85.4675 26.728 88.1402 26.728V24.728C85.1809 24.728 82.4702 25.3457 80.0279 26.5982L80.9405 28.3778ZM88.1402 26.728C93.6696 26.728 97.9678 28.4119 101.149 31.703L102.587 30.313C98.9632 26.5641 94.1094 24.728 88.1402 24.728V26.728ZM101.149 31.703C104.317 34.98 105.972 39.7417 105.972 46.144H107.972C107.972 39.405 106.225 34.076 102.587 30.313L101.149 31.703ZM105.972 46.144C105.972 50.2818 105.095 53.8622 103.373 56.917L105.115 57.899C107.031 54.5005 107.972 50.5715 107.972 46.144H105.972ZM103.366 56.9291C101.702 59.9806 99.2917 62.3673 96.1104 64.0975L97.066 65.8545C100.573 63.9473 103.267 61.2887 105.122 57.8868L103.366 56.9291ZM96.1224 64.0911C92.951 65.7602 89.1288 66.616 84.6202 66.616V68.616C89.3809 68.616 93.5373 67.7118 97.0539 65.8609L96.1224 64.0911ZM84.6202 66.616C75.6697 66.616 69.6989 63.8734 66.3682 58.6317L64.6802 59.7043C68.5068 65.7266 75.2667 68.616 84.6202 68.616V66.616ZM66.3746 58.6419C62.9896 53.1695 61.2442 45.5166 61.2442 35.584H59.2442C59.2442 45.7154 61.0188 53.7852 64.6737 59.6941L66.3746 58.6419ZM61.2442 35.584C61.2442 27.7785 62.032 21.4979 63.5722 16.706L61.6682 16.094C60.0404 21.1581 59.2442 27.6668 59.2442 35.584H61.2442ZM63.5689 16.7162C65.1592 11.9452 67.5982 8.51175 70.8373 6.3157L69.715 4.66029C66.0315 7.15757 63.3665 10.9988 61.6715 16.0838L63.5689 16.7162ZM70.8404 6.31364C74.1468 4.05425 78.5366 2.88 84.0922 2.88V0.879999C78.2664 0.879999 73.4456 2.11107 69.712 4.66235L70.8404 6.31364ZM84.0922 2.88C90.6446 2.88 95.4399 4.75384 98.6587 8.35446L100.15 7.02153C96.4458 2.87816 91.0331 0.879999 84.0922 0.879999V2.88ZM98.6694 8.36628C102.018 11.9943 103.906 16.5536 104.303 22.1032L106.298 21.9608C105.873 16.0117 103.83 11.0083 100.139 7.00972L98.6694 8.36628ZM105.3 21.032H89.1962V23.032H105.3V21.032ZM75.8762 45.704C75.8762 48.1208 76.549 50.135 78.0171 51.6031L79.4313 50.1889C78.4354 49.193 77.8762 47.7458 77.8762 45.704H75.8762ZM78.0171 51.6031C79.4899 53.0759 81.5372 53.744 84.0042 53.744V51.744C81.8951 51.744 80.4225 51.1801 79.4313 50.1889L78.0171 51.6031ZM84.0042 53.744C86.2918 53.744 88.2105 53.1369 89.6209 51.797L88.2434 50.347C87.3072 51.2364 85.9406 51.744 84.0042 51.744V53.744ZM89.6218 51.7961C91.1132 50.3758 91.7802 48.3437 91.7802 45.88H89.7802C89.7802 47.9923 89.2151 49.4216 88.2425 50.3479L89.6218 51.7961ZM91.7802 45.88C91.7802 43.466 91.1083 41.4676 89.6218 40.0519L88.2425 41.5001C89.22 42.4311 89.7802 43.8354 89.7802 45.88H91.7802ZM89.6218 40.0519C88.1616 38.6611 86.2198 38.016 83.9162 38.016V40.016C85.8365 40.016 87.2388 40.5442 88.2425 41.5001L89.6218 40.0519ZM83.9162 38.016C81.6597 38.016 79.7141 38.6665 78.156 40.0214L79.4684 41.5306C80.609 40.5388 82.066 40.016 83.9162 40.016V38.016ZM78.1395 40.0361C76.5971 41.4383 75.8762 43.3746 75.8762 45.704H77.8762C77.8762 43.8094 78.446 42.4604 79.4849 41.5159L78.1395 40.0361Z" fill="white"/>
</svg>
