<svg width="24" height="24" viewBox="0 0 24 24" fill="none" xmlns="http://www.w3.org/2000/svg">
<g clip-path="url(#clip0)">
<path d="M19.7073 23.5891C14.5743 24.137 9.42572 24.137 4.29272 23.5891C2.24597 23.3707 0.629333 21.754 0.410889 19.7071C-0.136963 14.5741 -0.136963 9.42572 0.410889 4.29272C0.629333 2.24597 2.24597 0.629333 4.29272 0.410889C9.42572 -0.136963 14.5741 -0.136963 19.7071 0.410889C21.754 0.629333 23.3707 2.24597 23.5891 4.29272C24.137 9.42572 24.137 14.5741 23.5891 19.7071C23.3707 21.754 21.7542 23.3707 19.7073 23.5891Z" fill="url(#paint0_linear)"/>
<path d="M22.2837 5.1608C22.09 3.34457 20.6555 1.90994 18.8391 1.71603C14.2842 1.23007 9.71573 1.23007 5.1608 1.71603C3.34457 1.90994 1.90994 3.34457 1.71603 5.1608C1.23007 9.71573 1.23007 14.2842 1.71603 18.839C1.90994 20.6554 3.34457 22.09 5.1608 22.2837C9.71573 22.7699 14.2842 22.7699 18.839 22.2837C20.6554 22.09 22.09 20.6554 22.2837 18.839C22.7699 14.2842 22.7699 9.71573 22.2837 5.1608Z" fill="url(#paint1_linear)"/>
<path d="M0.359863 19.21C0.376343 19.3759 0.393372 19.5417 0.411133 19.7076C0.629578 21.7544 2.24622 23.371 4.29315 23.5895C9.42615 24.1373 14.5745 24.1373 19.7075 23.5895C21.7545 23.371 23.3709 21.7544 23.5894 19.7076C23.6071 19.5417 23.6241 19.3759 23.6408 19.21L0.359863 19.21Z" fill="url(#paint2_linear)"/>
<path d="M16.1352 3.99707C14.0441 3.99707 12.3491 5.69226 12.3491 7.78332V10.6114H10.3115L10.3115 14.1129L12.3491 15.9379V23.999C14.8031 23.9871 17.2569 23.8506 19.7074 23.5892C21.7543 23.3707 23.3708 21.7541 23.5892 19.7072C23.9968 15.8879 24.101 12.0603 23.902 8.23669L19.6624 3.99707L16.1352 3.99707Z" fill="url(#paint3_linear)"/>
<path d="M12.3491 23.999C13.7475 23.9922 15.1457 23.9448 16.5433 23.8569V14.1129L19.3262 14.1129L19.6623 10.6114H16.5433V8.38794C16.5433 7.89685 16.9414 7.49878 17.4325 7.49878H19.6623V3.99707L16.1352 3.99707C14.0441 3.99707 12.3491 5.69226 12.3491 7.78332V10.6114H10.3115L10.3115 14.1129H12.3491L12.3491 23.999Z" fill="white"/>
</g>
<defs>
<linearGradient id="paint0_linear" x1="7.96847" y1="3.37435" x2="14.0388" y2="16.3619" gradientUnits="userSpaceOnUse">
<stop stop-color="#3457A0"/>
<stop offset="1" stop-color="#3B5998"/>
</linearGradient>
<linearGradient id="paint1_linear" x1="16.5526" y1="15.1281" x2="-4.42728" y2="0.712856" gradientUnits="userSpaceOnUse">
<stop stop-color="#3457A0" stop-opacity="0"/>
<stop offset="1" stop-color="#1F3F77"/>
</linearGradient>
<linearGradient id="paint2_linear" x1="12.0003" y1="20.0569" x2="12.0003" y2="23.3046" gradientUnits="userSpaceOnUse">
<stop stop-color="#3457A0" stop-opacity="0"/>
<stop offset="1" stop-color="#1F3F77"/>
</linearGradient>
<linearGradient id="paint3_linear" x1="27.5522" y1="19.8202" x2="10.8942" y2="11.4206" gradientUnits="userSpaceOnUse">
<stop stop-color="#3457A0" stop-opacity="0"/>
<stop offset="0.3251" stop-color="#2A4C8D" stop-opacity="0.32549"/>
<stop offset="0.7045" stop-color="#22427D" stop-opacity="0.705882"/>
<stop offset="1" stop-color="#1F3F77"/>
</linearGradient>
<clipPath id="clip0">
<rect width="24" height="24" fill="white"/>
</clipPath>
</defs>
</svg>
