<svg width="564" height="630" viewBox="0 0 564 630" fill="none" xmlns="http://www.w3.org/2000/svg">
<g opacity="0.03">
<path fill-rule="evenodd" clip-rule="evenodd" d="M137.715 533.383C147.919 547.72 159.214 552.249 171.173 557.041C172.455 557.555 173.743 558.071 175.034 558.603C185.759 563.012 190.433 578.143 195.381 594.164C196.078 596.42 196.777 598.68 197.493 600.912C200.679 610.838 204.608 621.572 209.54 629.168C209.782 629.54 210.197 629.76 210.64 629.76C211.765 629.76 212.406 628.432 211.764 627.507C206.735 620.262 202.709 609.274 199.465 599.17C198.753 596.956 198.061 594.714 197.368 592.475C192.41 576.421 187.284 559.822 175.572 555.007C174.276 554.474 172.983 553.956 171.697 553.44C160.004 548.753 148.959 544.326 139.16 530.557C131.881 520.332 123.379 503.226 123.37 488.672C123.366 482.401 124.956 476.975 128.095 472.546C135.513 462.077 145.715 456.075 156.088 456.075C159.421 456.075 162.661 456.708 165.72 457.96C168.336 459.031 171.149 461.046 174.125 463.18C178.97 466.651 183.978 470.24 188.858 470.24C192.961 470.24 196.372 467.714 199.288 462.517C201.831 457.985 204.05 444.572 204.295 443.059C205.971 432.696 209.49 427.495 212.595 422.906C213.115 422.136 213.622 421.387 214.105 420.636C219.122 412.851 225.106 406.048 230.952 401.483C236.82 396.9 243.574 394.271 249.485 394.271C255.796 394.271 266.787 397.393 269.489 418.301C272.533 441.851 264.594 464.406 256.151 477.663C253.986 481.061 251.68 484.029 249.449 486.9C242.392 495.98 235.726 504.556 236.352 523.565C236.672 533.24 237.35 543.157 238.006 552.749C238.694 562.816 239.406 573.227 239.712 583.447C240.208 600.08 240.133 617.787 234.753 627.756C234.282 628.629 234.886 629.76 235.878 629.76C236.339 629.76 236.761 629.506 236.96 629.09C242.934 616.642 242.32 595.913 241.943 583.264C241.634 572.927 240.918 562.456 240.225 552.331C239.573 542.793 238.898 532.93 238.583 523.362C238.02 506.294 243.951 498.662 250.818 489.827C253.091 486.902 255.442 483.876 257.686 480.353C266.571 466.406 274.91 442.575 271.673 417.524C269.427 400.141 261.547 390.567 249.485 390.567C243.257 390.567 236.155 393.323 230.002 398.13C223.95 402.857 217.762 409.889 212.58 417.93C212.108 418.661 211.615 419.391 211.108 420.141C207.936 424.831 203.987 430.667 202.138 442.098C201.512 445.967 199.486 456.726 197.652 459.995C195.182 464.397 192.306 466.535 188.858 466.535C184.44 466.535 179.647 463.101 175.011 459.779C171.947 457.583 169.052 455.509 166.254 454.364C163.021 453.042 159.601 452.37 156.088 452.37C145.193 452.37 134.463 458.695 126.648 469.723C122.986 474.891 121.132 481.268 121.137 488.676C121.149 509.077 134.949 529.497 137.715 533.383Z" fill="white"/>
<path fill-rule="evenodd" clip-rule="evenodd" d="M105.613 5.84748C105.466 4.43615 105.327 3.0946 105.516 2.3429C105.555 2.18801 105.536 2.01856 105.437 1.8938C105.239 1.64648 104.86 1.70107 104.794 2.01075C104.569 3.07184 104.715 4.4763 104.879 6.05741C105.118 8.36294 105.389 10.9747 104.542 12.9629C103.677 14.9869 101.616 16.4774 99.7965 17.7925C98.9641 18.3951 98.177 18.9644 97.568 19.5411C92.2181 24.6115 89.3656 25.3685 82.971 25.1882C80.4089 25.1265 78.2436 26.2132 76.1499 27.2715C73.176 28.7768 70.3681 30.1944 66.7018 28.1519C65.4151 27.4357 64.1322 26.6898 62.8493 25.9427C58.0705 23.163 53.1294 20.2894 48.0238 19.0175C40.0782 17.0429 32.0047 20.6179 27.4627 28.1359C24.0041 33.8596 22.6005 41.6258 23.4017 50.5935C24.9363 67.7843 31.8669 74.5008 39.2041 81.6113C42.732 85.0282 46.3782 88.5624 49.5584 93.4093C57.8315 106.024 59.5515 126.914 61.069 145.346L61.3646 148.914C63.0883 169.394 67.8782 181.81 79.0396 194.722C89.6016 206.942 91.781 223.713 85.5168 244.57C82.3769 255.026 79.464 262.89 76.0709 270.069C74.1484 274.136 73.3882 274.163 73.1492 273.99C71.6831 272.919 73.0189 259.586 73.4574 255.206C73.5423 254.36 73.6138 253.647 73.6614 253.116C75.2415 235.547 69.2498 225.654 62.9073 215.181C60.7436 211.61 58.5068 207.916 56.5217 203.83C52.3923 195.327 51.0408 187.686 52.1391 179.056C52.4176 176.866 52.7296 174.739 53.0304 172.681C54.1726 164.882 55.2522 157.515 54.2716 148.569C51.9083 127.017 38.837 119.618 28.2877 117.208C17.9274 114.84 8.56388 117.473 0.322559 121.483C0.124671 121.58 0 121.781 0 122.001C0 122.43 0.450923 122.709 0.837414 122.523C8.92291 118.634 18.0814 116.12 28.1864 118.431C38.4915 120.787 51.2553 127.966 53.5382 148.789C54.4913 157.478 53.4302 164.721 52.3066 172.39C52.0043 174.456 51.6909 176.592 51.4101 178.801C50.262 187.828 51.6596 195.786 55.9417 204.604C57.9529 208.745 60.2045 212.462 62.3809 216.057C68.5871 226.304 74.4492 235.982 72.9258 252.933C72.8781 253.459 72.8066 254.166 72.7233 255.004C71.6012 266.203 71.1931 273.911 72.8498 275.12C72.995 275.226 73.1492 275.28 73.3122 275.28C74.1566 275.28 75.2363 273.837 76.6569 270.831C80.0828 263.584 83.0202 255.653 86.1824 245.121C92.6373 223.63 90.3775 206.333 79.4655 193.708C68.4985 181.021 63.7927 168.835 62.1017 148.743L61.8068 145.178C60.2715 126.54 58.5329 105.415 50.0617 92.5005C46.8235 87.5634 43.1415 83.9958 39.5801 80.5456C32.4015 73.5882 25.6206 67.0174 24.1373 50.4132C23.3726 41.848 24.7047 34.4461 27.9884 29.0102C32.368 21.7602 40.1877 18.3173 47.9136 20.24C52.9485 21.4922 57.8568 24.3473 62.6028 27.1085C63.8895 27.8568 65.1746 28.6039 66.465 29.3238C70.3584 31.4911 73.4135 29.9475 76.3673 28.4533C78.4052 27.4221 80.5079 26.3379 82.9576 26.4231C89.5167 26.6034 92.4348 25.8291 97.9373 20.613C98.5114 20.0696 99.2805 19.5139 100.095 18.9249C102.003 17.5455 104.166 15.9822 105.149 13.6754C106.175 11.2699 105.863 8.26415 105.613 5.84748Z" fill="white"/>
<path fill-rule="evenodd" clip-rule="evenodd" d="M91.061 2.54997C90.7186 3.05404 90.7128 3.70091 90.861 4.29199C91.0148 4.906 91.0293 5.57485 90.9061 6.3139C90.0052 11.7202 82.5533 18.3194 80.2481 19.5222C75.5304 21.9833 69.3518 22.2575 63.296 20.2743C61.9818 19.8433 60.5604 19.3259 59.0615 18.78C49.3305 15.2384 36.0039 10.389 27.9943 21.0164C22.9527 27.707 20.2044 35.919 19.5939 46.1204C18.9148 57.4319 22.5864 65.4204 26.7382 73.2754C29.1015 77.7457 31.8006 81.6862 34.4112 85.4971C36.3374 88.3089 38.33 91.2183 40.1654 94.3092C43.4557 99.8538 46.4616 106.197 49.367 112.331C50.0751 113.825 50.7817 115.318 51.4921 116.799C55.8278 125.832 56.6334 136.897 57.413 147.597C57.97 155.247 58.5455 163.156 60.3869 170.389C62.6944 179.453 66.7621 187.21 70.6957 194.71C74.4842 201.935 78.4022 209.405 80.7641 218.054C82.8817 225.809 84.277 239.504 80.7499 245.669C79.7566 247.405 78.9421 248.155 78.3985 247.839C77.0851 247.077 76.753 240.695 76.4864 235.568C76.3174 232.333 76.1588 229.278 75.7723 227.636C74.2251 221.059 71.3785 215.934 68.6265 210.979C67.4441 208.848 66.2215 206.647 65.1054 204.342C61.5395 196.976 59.0548 188.791 57.7198 180.015C56.7265 173.48 56.4257 166.838 56.1361 160.411C55.5717 147.935 55.0393 136.152 49.842 125.325C42.7342 110.521 32.1528 102.368 20.0466 102.368C13.6975 102.368 8.01401 101.9 2.752 96.1405C2.08652 95.412 1.45766 94.609 0.847071 93.7511C0.587942 93.387 0 93.5662 0 94.0131C0 94.1046 0.0278344 94.194 0.0800603 94.2692C0.80225 95.3086 1.54259 96.2964 2.34248 97.1717C7.76904 103.111 13.8136 103.603 20.0466 103.603C31.9205 103.603 42.2956 111.59 49.2583 126.094C54.3133 136.624 54.8382 148.223 55.3937 160.504C55.6856 166.981 55.9886 173.679 56.9983 180.316C58.3587 189.267 60.891 197.61 64.5246 205.115C65.6571 207.453 66.8879 209.671 68.0793 211.815C70.9094 216.911 73.5818 221.724 75.0784 228.085C75.4261 229.562 75.581 232.531 75.7448 235.674C76.0598 241.723 76.3844 247.979 78.1528 249.004C78.3181 249.101 78.4886 249.149 78.6666 249.149C79.4186 249.148 80.2823 248.281 81.2898 246.52C85.2666 239.569 83.4937 225.059 81.4417 217.546C79.0359 208.731 75.0814 201.192 71.2579 193.9C67.3622 186.472 63.334 178.791 61.0734 169.909C59.273 162.837 58.7027 155.014 58.1524 147.449C57.3602 136.578 56.5419 125.338 52.0758 116.03C51.3662 114.551 50.6589 113.061 49.9522 111.568C47.0335 105.407 44.0156 99.0364 40.6955 93.4436C38.8415 90.3205 36.8393 87.3963 34.9026 84.5697C32.3107 80.7848 29.6294 76.8714 27.2981 72.4617C23.258 64.819 19.6862 57.0614 20.334 46.2414C20.9252 36.3895 23.5826 28.4529 28.4597 21.9809C36.1893 11.7202 49.3164 16.4967 58.9022 19.9878C60.4063 20.5348 61.8329 21.0535 63.1523 21.4857C69.325 23.5084 75.6376 23.2219 80.4715 20.7003C82.9509 19.4061 90.6373 12.5636 91.6239 6.64361C91.8808 5.10248 91.6909 3.72558 91.061 2.54997Z" fill="white"/>
<path fill-rule="evenodd" clip-rule="evenodd" d="M79.2846 2.05353C76.3896 11.1287 74.1983 14.0442 66.9654 13.4713C64.6862 13.2885 62.3571 12.9575 60.1055 12.6365C56.5493 12.1289 52.8725 11.6053 49.0855 11.6041C38.8043 11.5881 25.9988 11.5979 19.8172 29.1827C15.4458 41.6167 15.5887 57.4689 20.1903 70.555C21.4241 74.0608 23.0882 77.1789 24.6988 80.1957C25.7114 82.0937 26.7598 84.0559 27.6593 86.0515C28.377 87.6445 29.0554 89.3684 29.7106 91.0355C30.6385 93.399 31.5865 95.8117 32.7014 97.9965C33.0232 98.6269 32.3752 99.3405 31.7374 99.0338C29.7017 98.057 27.5967 97.0457 25.281 96.8123C23.3019 96.611 21.2856 96.7061 19.337 96.7975C17.4949 96.8851 15.5924 96.9753 13.7369 96.811C7.73892 96.2887 4.18512 92.8201 0.849486 87.6021C0.605083 87.2198 0 87.389 0 87.8427C0 87.9262 0.0237109 88.0087 0.0679584 88.0796C3.58796 93.7157 7.28095 97.4864 13.6982 98.0447C15.582 98.2102 17.5016 98.1188 19.3578 98.0323C21.29 97.9397 23.2885 97.8459 25.2364 98.0447C27.4686 98.2707 29.4411 99.2178 31.5304 100.221C32.68 100.771 33.8684 101.343 35.1029 101.78C35.5636 101.944 35.9552 101.408 35.6594 101.019L35.4119 100.694C33.3017 97.9163 31.7925 94.0758 30.3338 90.3612C29.6726 88.6781 28.9883 86.9369 28.2549 85.3118C27.3368 83.2767 26.2788 81.2935 25.2557 79.377C23.6697 76.4058 22.0294 73.3322 20.8336 69.9326C16.3668 57.2306 16.2239 41.855 20.4606 29.8051C26.3495 13.0526 38.6635 12.839 48.6894 12.839C52.5926 12.8341 56.3773 13.3441 60.0414 13.8664C62.3005 14.1887 64.6363 14.5209 66.9289 14.7049C74.2883 15.293 76.7812 12.261 79.6728 3.46541C79.839 2.96 79.6844 2.40455 79.2846 2.05353Z" fill="white"/>
<path fill-rule="evenodd" clip-rule="evenodd" d="M17.8724 15.9033C12.6029 23.1953 10.358 31.5123 10.3669 43.7117C10.3773 57.6708 14.3557 66.5459 18.5693 75.9409C20.704 80.7038 22.9125 85.6273 24.6459 91.3782C24.8096 91.9213 24.23 92.5024 23.6897 92.3297C21.5593 91.6486 19.3226 91.6439 17.1382 91.64C14.2552 91.6338 11.2738 91.6276 8.61192 90.0556C6.00317 88.515 3.12359 85.0321 0.828679 80.9442C0.612138 80.5585 0 80.7091 0 81.1514C0 81.2215 0.0175777 81.2907 0.051247 81.3522C2.46899 85.7713 5.5655 89.5684 8.36174 91.2189C11.1443 92.8613 14.1911 92.8687 17.1367 92.8748C20.3682 92.881 23.4203 92.8884 26.1812 94.8482C26.499 95.0738 26.9195 94.7597 26.7931 94.391L26.6511 93.9763C26.4858 93.4935 26.252 92.9971 26.004 92.4723C25.739 91.9116 25.4635 91.3312 25.3116 90.8262C23.5484 84.9778 21.3213 80.0098 19.1665 75.2037C15.0295 65.9766 11.1219 57.262 11.1115 43.7117C11.1026 31.9173 13.2678 23.8844 18.3497 16.8517C21.0727 13.082 30.7589 2.72502 34.1394 4.75172C34.44 4.93192 34.8888 4.90781 35.0509 4.59708C35.1314 4.44282 35.1183 4.24939 35.0047 4.11759C31.4936 0.0431776 20.5588 12.1846 17.8724 15.9033Z" fill="white"/>
<path fill-rule="evenodd" clip-rule="evenodd" d="M22.0257 89.0273C21.4948 87.8147 20.952 86.586 20.4017 85.3387C15.4055 74.0334 9.74369 61.2202 7.4511 47.8391C6.08329 39.8568 6.25901 30.0728 7.90083 22.9142C8.84423 18.7934 14.3788 6.94219 17.6073 4.55269C17.8145 4.39865 18.0063 4.28717 18.1821 4.21829C18.5403 4.07797 19.0324 3.84433 19.1194 3.46959C19.1726 3.24021 19.0777 2.98741 18.8485 2.93354C18.4045 2.8292 17.8858 2.9921 17.3035 3.42401C13.865 5.97034 8.20909 18.0932 7.2039 22.4746C5.5107 29.8666 5.3253 39.9543 6.73406 48.1762C9.06388 61.771 14.7674 74.6805 19.8009 86.0698C20.4499 87.5384 19.5493 89.2057 17.9512 89.0506C13.1271 88.5825 7.05283 85.3228 2.7721 79.2693C2.03945 78.2343 1.39242 77.1512 0.827875 76.0301C0.63342 75.6439 0 75.7784 0 76.2107C0 76.2699 0.0132565 76.3283 0.0390339 76.3816C0.682508 77.711 1.42918 78.9927 2.28887 80.209C6.61642 86.3279 13.5009 90.3585 19.0756 90.3573C20.0235 90.3573 20.9341 90.2412 21.7882 89.998C22.0999 89.9098 22.262 89.5667 22.132 89.2699L22.0257 89.0273Z" fill="white"/>
<path fill-rule="evenodd" clip-rule="evenodd" d="M190.702 620.776C189.17 616.066 187.587 611.197 186.292 606.363C186.01 605.304 185.735 604.267 185.467 603.247C182.972 593.782 180.817 585.607 175.378 578.323C167.987 568.422 158.778 561.078 149.873 553.975C145.413 550.418 140.8 546.739 136.607 542.864C125.425 532.531 117.568 512.56 115.586 489.438C114.596 477.902 117.02 464.312 122.235 452.152C125.129 445.404 126.204 440.534 125.722 436.361C125.142 431.354 122.334 427.448 118.299 423.126C104.994 408.878 91.4862 393.171 85.286 371.716C82.0537 360.532 79.1885 347.415 77.2169 334.782C76.5259 330.351 76.097 325.694 75.6837 321.187C74.8885 312.547 74.068 303.613 71.3614 295.735C66.5171 281.634 61.2216 281.633 52.4488 281.632L51.0721 281.63C40.7506 281.582 32.7135 284.03 26.5573 289.101C20.0898 294.43 14.5143 303.036 10.4347 313.988C9.26045 317.141 7.89041 320.418 6.43995 323.889C4.23867 329.154 1.8702 334.829 0.0180816 340.59C0.00608565 340.628 0 340.667 0 340.706C0 341.142 0.640494 341.239 0.77551 340.824C2.55207 335.365 4.82129 329.927 7.05126 324.592C8.50767 321.108 9.88367 317.817 11.0683 314.636C15.0749 303.881 20.5454 295.433 26.8886 290.207C32.884 285.267 40.7059 282.865 50.7966 282.865C50.8867 282.865 50.979 282.865 51.0706 282.865L52.4488 282.867C60.9521 282.868 66.0838 282.869 70.7144 296.346C73.3524 304.025 74.1633 312.845 74.9473 321.374C75.3643 325.91 75.7954 330.6 76.4961 335.091C78.4789 347.799 81.362 360.996 84.6143 372.25C90.8987 393.995 104.502 409.82 117.895 424.163C121.77 428.314 124.46 432.016 124.99 436.593C125.431 440.408 124.395 444.986 121.629 451.435C116.303 463.851 113.832 477.766 114.848 489.612C116.863 513.113 124.862 533.423 136.245 543.942C140.458 547.834 145.08 551.523 149.551 555.088C158.418 562.16 167.587 569.474 174.91 579.283C180.208 586.379 182.228 594.041 184.785 603.742C185.054 604.764 185.329 605.803 185.612 606.864C186.917 611.741 188.508 616.632 190.047 621.362C190.916 624.036 191.796 626.745 192.633 629.477C192.685 629.644 192.839 629.759 193.015 629.759C193.282 629.759 193.473 629.501 193.395 629.245C192.525 626.391 191.609 623.563 190.702 620.776Z" fill="white"/>
<path fill-rule="evenodd" clip-rule="evenodd" d="M171.903 592.321C165.696 574.814 155.288 566.849 146.021 560.758C142.276 558.298 138.73 554.205 135.301 550.246C132.794 547.352 130.2 544.358 127.567 542.057C120.335 535.732 117.953 527.131 114.658 515.226L114.576 514.93C110.694 500.904 109.134 489.073 109.521 476.567C109.676 471.56 110.469 466.556 111.237 461.718C112.464 453.975 113.734 445.968 112.376 437.862C110.838 428.677 105.38 423.55 100.103 418.589C98.0668 416.675 96.1436 414.87 94.4496 412.851C87.1981 404.214 82.7618 395.733 78.0798 381.563C73.9451 369.043 71.7426 355.146 69.6124 341.708C67.8931 330.858 66.115 319.641 63.3273 309.122C60.69 299.172 56.5828 293.604 51.1205 292.574C41.5816 290.78 30.4209 303.527 24.3406 317.055C19.1419 328.617 14.0675 341.023 9.66476 352.927C8.79508 355.278 7.80925 357.781 6.76534 360.433C4.415 366.404 1.8484 372.928 0.0146993 379.254C0.00492313 379.288 0 379.323 0 379.358C0 379.797 0.659448 379.886 0.782944 379.465C2.58804 373.311 5.09119 366.943 7.3893 361.108C8.43545 358.449 9.42426 355.939 10.2984 353.574C14.6907 341.699 19.7517 329.326 24.9363 317.792C30.89 304.548 41.7632 292.051 51.0371 293.801C56.2165 294.779 60.1226 300.1 62.6452 309.62C65.4099 320.048 67.1805 331.219 68.8923 342.022C71.0338 355.532 73.2474 369.504 77.4268 382.155C82.1684 396.506 86.6634 405.097 94.0148 413.854C95.7415 415.91 97.6819 417.734 99.7355 419.664C104.882 424.499 110.202 429.5 111.659 438.192C112.962 445.978 111.774 453.47 110.516 461.403C109.74 466.303 108.936 471.368 108.778 476.505C108.385 489.22 109.965 501.229 113.9 515.446L113.981 515.741C117.338 527.867 119.763 536.628 127.22 543.148C129.812 545.416 132.386 548.387 134.876 551.26C138.339 555.259 141.922 559.393 145.745 561.906C154.898 567.921 165.174 575.778 171.262 592.949C174.645 602.491 178.257 616.098 180.65 629.445C180.683 629.627 180.841 629.759 181.026 629.759C181.263 629.759 181.442 629.546 181.401 629.312C178.988 615.787 175.329 601.983 171.903 592.321Z" fill="white"/>
<path fill-rule="evenodd" clip-rule="evenodd" d="M152.43 604.528C143.609 592.734 134.397 587.877 123.278 584.212C106.368 578.64 104.667 558.285 102.698 534.718C102.429 531.486 102.149 528.144 101.827 524.815C101.581 522.278 101.338 519.687 101.091 517.058C98.6945 491.534 95.9783 462.602 87.2584 440.891C76.5907 414.328 61.8351 401.415 42.1482 401.415C32.2839 401.415 23.7531 403.241 14.1777 412.148C10.2212 415.831 3.84232 423.792 0.431519 432.438C0.134989 433.189 0 433.993 0 434.801V445.426C0 445.607 0.187971 445.726 0.351262 445.649C0.45126 445.602 0.50744 445.495 0.490361 445.386C-1.07672 435.361 9.31254 420.923 15.2715 415.381C24.4233 406.864 32.6338 405.119 42.1482 405.119C61.0302 405.119 75.1774 417.493 85.3999 442.944C93.8458 463.977 96.5226 492.48 98.8837 517.628C99.1309 520.263 99.3751 522.859 99.6208 525.403C99.9402 528.691 100.217 532.013 100.485 535.225C102.484 559.156 104.373 581.759 122.843 587.847C133.638 591.404 142.562 596.093 151.028 607.413C156.743 615.054 161.109 622.263 164.133 629C164.339 629.46 164.795 629.759 165.3 629.759C166.198 629.759 166.811 628.853 166.457 628.028C163.286 620.638 158.605 612.786 152.43 604.528Z" fill="white"/>
<path fill-rule="evenodd" clip-rule="evenodd" d="M33.9756 615.257C28.1157 604.36 22.0383 592.535 17.7726 578.346C16.6922 574.75 15.5098 570.979 14.2589 566.983C7.8781 546.622 -0.0585192 521.295 0.312759 501.407C0.314328 501.323 0.249342 501.253 0.165461 501.248C0.0756904 501.243 0 501.314 0 501.404V511.515C1.72968 529.669 8.21207 550.368 13.5977 567.552C14.8478 571.543 16.0288 575.311 17.1069 578.897C21.4129 593.221 27.5267 605.119 33.4201 616.079C36.0375 620.947 38.9045 625.359 41.8116 629.56C41.8983 629.686 42.0411 629.76 42.1936 629.76C42.5698 629.76 42.7906 629.337 42.576 629.028C39.5929 624.734 36.6489 620.229 33.9756 615.257Z" fill="white"/>
<path fill-rule="evenodd" clip-rule="evenodd" d="M12.0385 605.466C10.912 602.417 9.19791 598.448 7.21209 593.853C5.17235 589.131 2.89736 583.862 0.796979 578.523C0.631594 578.102 0 578.22 0 578.672C0 578.723 0.00947291 578.773 0.0279501 578.82C2.17661 584.313 4.51384 589.728 6.60674 594.571C8.58362 599.148 10.291 603.1 11.4034 606.11C14.6164 614.809 17.7247 622.54 20.816 629.509C20.8838 629.661 21.0352 629.759 21.2024 629.759C21.5093 629.759 21.7143 629.443 21.5895 629.163C18.454 622.123 15.3005 614.298 12.0385 605.466Z" fill="white"/>
<path fill-rule="evenodd" clip-rule="evenodd" d="M414.576 0C410.309 10.9324 400.592 21.319 395.134 25.2669C390.749 28.4357 386.147 30.6412 381.695 32.7738C375.224 35.8758 368.53 39.0828 362.365 45.3103C357.563 50.1684 353.469 55.0462 349.858 60.2253C348.318 62.4369 346.907 65.4031 345.544 68.2742C343.649 72.2641 341.689 76.3886 339.327 78.6398C336.016 81.7962 332.704 82.2346 330.467 79.8068C328.444 77.6124 327.53 73.3693 327.894 67.8593C328.462 59.2855 333.537 49.9881 336.57 44.4323C340.298 37.6034 343.896 29.9187 347.375 22.4885C350.922 14.9138 354.588 7.08274 358.276 0.453553C358.332 0.353647 358.327 0.231581 358.264 0.136352C358.207 0.0511868 358.112 0 358.009 0H357.861C357.649 0 357.455 0.114509 357.353 0.300189C353.774 6.81874 350.225 14.3907 346.787 21.7315C343.316 29.1445 339.727 36.8094 336.017 43.605C332.925 49.2706 327.748 58.7545 327.154 67.7235C326.758 73.7201 327.789 78.378 330.06 80.8404C331.139 82.0123 332.434 82.5915 333.846 82.5915C335.671 82.5915 337.691 81.6233 339.698 79.7105C342.185 77.3407 344.19 73.1199 346.129 69.0374C347.532 66.0835 348.858 63.2927 350.346 61.1588C353.924 56.0254 357.987 51.1859 362.752 46.3662C368.836 40.2226 375.477 37.0391 381.903 33.9605C386.378 31.8168 391.002 29.6001 395.432 26.3993C400.945 22.4155 410.705 11.9443 415.125 0.798519C415.278 0.412953 414.99 0 414.576 0Z" fill="white"/>
<path fill-rule="evenodd" clip-rule="evenodd" d="M439.726 0C434.916 10.8966 419.711 23.7159 413.829 26.4808C406.197 30.0731 399.302 34.2915 391.998 38.7568C388.468 40.9154 384.813 43.1481 381.052 45.319C368.841 52.3578 362.937 56.796 353.541 72.6025C345.072 86.8518 337.389 94.4957 331.837 94.1104C329.306 93.9363 327.15 92.1149 325.429 88.6942C318.747 75.4156 329.468 47.6578 332.913 39.4669C338.547 26.0744 341.614 12.6143 343.655 0.44329C343.694 0.210697 343.515 0 343.279 0C343.092 0 342.933 0.133959 342.902 0.317891C340.877 12.3298 337.843 25.587 332.302 38.7605C328.781 47.133 317.837 75.5353 324.858 89.4858C326.719 93.1843 329.057 95.1564 331.807 95.3441C331.956 95.3552 332.105 95.3601 332.255 95.3601C339.517 95.3589 348.097 83.5201 354.071 73.4706C363.361 57.8493 369.206 53.4569 381.291 46.4847C385.066 44.3101 388.722 42.0762 392.251 39.9151C399.541 35.4584 406.428 31.2487 414.038 27.6688C419.315 25.1855 435.122 12.5769 440.297 0.855536C440.478 0.44738 440.172 0 439.726 0Z" fill="white"/>
<path fill-rule="evenodd" clip-rule="evenodd" d="M453.8 0C442.959 20.567 428.596 35.5054 413.094 42.2169C408.842 44.0606 404.389 45.5338 400.086 46.9589C389.877 50.3388 379.319 53.8335 369.982 62.59C365.343 66.9405 361.695 73.4965 358.165 79.8352C354.936 85.6293 351.599 91.6209 347.505 95.943C342.148 101.6 332.42 104.974 325.418 100.834C321.832 98.7141 319.471 94.9181 318.402 89.5513C314.908 72.0073 322.49 50.1856 326.562 38.4629C331.282 24.8743 332.77 13.6405 334.493 0.633495C334.502 0.565366 334.511 0.496579 334.521 0.427521C334.55 0.201228 334.374 0 334.146 0C333.956 0 333.796 0.141022 333.771 0.329108C333.769 0.342507 333.768 0.355883 333.766 0.36923C332.056 13.2762 330.58 24.4223 325.916 37.8455C321.785 49.7362 314.097 71.8702 317.695 89.9378C318.824 95.6047 321.407 99.7749 325.167 101.998C327.4 103.318 329.898 103.898 332.449 103.898C338.146 103.897 344.101 101.002 347.905 96.9852C352.081 92.5767 355.448 86.5246 358.709 80.6724C362.201 74.4029 365.812 67.921 370.347 63.6644C379.587 55.0054 390.078 51.5304 400.235 48.1691C404.546 46.7416 409.006 45.2646 413.287 43.4123C428.915 36.6441 443.391 21.5893 454.322 0.866504C454.53 0.473288 454.245 0 453.8 0Z" fill="white"/>
<path fill-rule="evenodd" clip-rule="evenodd" d="M475.273 0C471.863 6.18306 466.74 12.1673 461.759 17.9688C458.884 21.3203 456.174 24.4853 453.94 27.5194C446.01 38.3258 435.415 44.8151 425.155 50.2178C419.257 53.3247 412.586 54.7807 406.138 56.1884C395.267 58.5631 384.023 61.018 375.163 71.296C371.149 75.9589 367.829 81.2603 364.612 86.3875C359.728 94.187 355.111 101.552 348.293 106.751C338.35 114.327 320.921 116.12 315.416 99.5365C311.901 88.9462 312.619 69.8981 317.492 44.4521C318.205 40.7264 319.474 37.0601 320.701 33.5147C321.981 29.8187 323.303 25.9968 324.045 22.0081C324.766 18.138 324.514 13.3491 324.27 8.71828C324.114 5.75534 323.97 2.89499 324.073 0.390463C324.081 0.177991 323.912 0 323.7 0C323.502 0 323.338 0.155068 323.33 0.352858C323.227 2.94006 323.37 5.83094 323.529 8.82571C323.765 13.338 324.011 18.0046 323.334 21.6438C322.616 25.5016 321.314 29.263 320.056 32.901C318.809 36.5019 317.52 40.2263 316.782 44.0779C311.775 70.2229 311.096 89.082 314.764 100.133C318.104 110.196 325.009 113.619 332.05 113.619C338.239 113.619 344.533 110.975 348.604 107.872C355.543 102.588 360.197 95.1502 365.133 87.2778C368.32 82.1827 371.619 76.9147 375.595 72.3074C384.299 62.2023 395.453 59.7671 406.235 57.4134C412.712 55.9982 419.414 54.5349 425.378 51.3946C435.713 45.9549 446.383 39.4125 454.417 28.4727C456.621 25.4682 459.324 22.3168 462.19 18.9789C467.185 13.1526 472.335 7.14589 475.798 0.878029C476.017 0.480961 475.726 0 475.273 0Z" fill="white"/>
<path fill-rule="evenodd" clip-rule="evenodd" d="M502.824 0C495.706 15.0174 482.877 27.4206 474.649 34.3421C462.736 44.3582 449.608 52.3109 434.516 58.6545C428.574 61.1514 422.639 62.9099 416.899 64.6115C401.039 69.3177 386.058 73.7608 371.747 92.5779C370.518 94.1944 369.29 95.8442 368.061 97.5002C360.399 107.814 352.478 118.478 342.984 121.572C334.606 124.301 317.37 126.158 312.097 113.651C307.382 102.468 309.026 85.5737 310.477 70.6674C310.91 66.2095 311.32 61.9985 311.549 58.0926C311.805 53.731 311.734 47.5677 311.651 40.4313C311.49 26.5557 311.298 9.57502 313.653 1.61015C313.883 0.830023 313.319 0 312.505 0C311.999 0 311.552 0.332552 311.425 0.822158C309.071 9.85741 309.249 26.0188 309.418 40.5029C309.495 47.2306 309.569 53.5865 309.326 57.732C309.103 61.5231 308.699 65.6785 308.271 70.0771C306.754 85.6786 305.033 103.361 310.267 115.774C313.991 124.61 322.378 127.289 330.462 127.289C335.224 127.289 339.882 126.358 343.414 125.207C353.454 121.937 361.598 110.976 369.468 100.376C370.689 98.7301 371.911 97.089 373.132 95.4812C387.003 77.2444 401.717 72.8803 417.293 68.2594C423.071 66.5466 429.043 64.7746 435.059 62.2455C450.323 55.834 463.599 47.7875 475.662 37.6466C484.023 30.6157 496.994 18.0333 504.441 2.51381C505.006 1.33621 504.13 0 502.824 0Z" fill="white"/>
<path fill-rule="evenodd" clip-rule="evenodd" d="M564 301.814C564 301.809 563.989 301.809 563.985 301.807C559.073 299.441 553.997 296.996 549.048 302.846C546.792 305.512 545.214 309.729 543.695 313.809C541.811 318.843 539.86 324.05 536.651 326.231C532.318 329.179 529.287 329.541 527.634 327.306C524.805 323.467 526.07 312.495 527.195 302.813C527.828 297.326 528.423 292.142 528.185 288.827C527.738 282.495 525.936 276.065 524.023 269.257C520.687 257.355 517.24 245.048 520.896 232.267C521.916 228.713 523.792 226.212 526.197 225.228C528.945 224.098 531.938 225.094 534.186 227.892C536.785 231.11 537.336 235.648 537.917 240.452C538.416 244.543 538.929 248.772 540.783 252.229C542.95 256.295 547.135 258.427 551.565 260.684C555.972 262.931 560.47 265.226 563.158 269.525C563.381 269.881 564 269.73 564 269.31C564 269.241 563.982 269.173 563.947 269.114C561.117 264.266 556.273 261.791 551.781 259.504C547.455 257.299 543.375 255.217 541.334 251.41C539.622 248.202 539.131 244.138 538.647 240.209C538.066 235.388 537.455 230.404 534.633 226.903C532.206 223.885 528.982 222.812 526.018 224.029C523.397 225.105 521.342 227.842 520.225 231.739C516.413 245.043 519.942 257.617 523.353 269.778C525.229 276.493 527.009 282.836 527.448 288.973C527.671 292.097 527.083 297.19 526.458 302.581C525.303 312.601 523.986 323.957 527.165 328.262C528.014 329.42 529.131 330.001 530.523 330.001C532.236 329.999 534.358 329.125 536.934 327.374C540.367 325.04 542.377 319.661 544.328 314.46C545.809 310.485 547.351 306.374 549.48 303.852C554.141 298.346 558.825 300.605 563.784 302.996C563.883 303.047 564 302.97 564 302.859V301.814Z" fill="white"/>
<path fill-rule="evenodd" clip-rule="evenodd" d="M563.999 311.528C560.67 309.829 554.997 310.146 551.959 315.235C549.516 319.332 547.379 325.76 545.317 331.976C543.91 336.209 542.458 340.587 540.954 344.045C536.166 355.06 530.075 359.449 524.662 355.787C519.733 352.454 515.422 341.858 516.896 325.701C518.817 304.548 519.137 291.02 515.742 271.343C515.34 269.028 514.886 266.632 514.446 264.317C511.468 248.634 508.393 232.417 517.484 219.851C520.924 215.104 524.305 213.089 527.529 213.844C533.545 215.262 538.206 225.59 542.458 236.046C546.203 245.229 551.81 246.533 557.245 247.794C559.28 248.267 561.275 248.736 563.162 249.57C563.55 249.742 563.999 249.466 563.999 249.043C563.999 248.828 563.877 248.631 563.683 248.539C561.619 247.567 559.467 247.064 557.342 246.57C551.839 245.291 546.635 244.082 543.076 235.355C538.727 224.669 533.947 214.11 527.633 212.622C524.193 211.804 520.611 213.923 517.008 218.902C507.529 231.998 510.686 248.617 513.739 264.687C514.178 266.995 514.625 269.384 515.027 271.684C518.385 291.14 518.065 304.545 516.159 325.514C514.826 340.081 518.132 352.705 524.379 356.931C525.734 357.847 527.127 358.295 528.526 358.295C533.083 358.294 537.737 353.564 541.557 344.766C543.091 341.248 544.55 336.838 545.972 332.571C548.012 326.429 550.119 320.079 552.487 316.103C555.002 311.892 559.715 311.174 562.87 312.262C563.393 312.443 563.999 312.081 563.999 311.528Z" fill="white"/>
<path fill-rule="evenodd" clip-rule="evenodd" d="M564.001 316.369C552.556 316.271 550.233 330.757 547.985 344.817C547.642 346.954 547.292 349.164 546.912 351.292C544.046 367.308 537.419 388.174 528.186 394.271C524.567 396.659 521.648 396.526 519.273 393.864C510.979 384.59 510.859 347.335 510.785 322.682C510.755 313.536 510.733 306.314 510.323 302.124C509.802 296.721 508.544 289.554 507.092 281.255C503.19 258.914 497.837 228.317 504.173 213.434C506.585 207.786 510.457 204.779 516.012 204.243C525.766 203.294 535.118 210.381 541.678 223.669C542.355 225.031 542.936 226.283 543.472 227.432C546.346 233.593 548.089 237.311 554.507 238.804C557.062 239.399 559.752 239.519 562.32 239.381C563.275 239.329 564.001 238.524 564.001 237.567C564.001 236.47 563.054 235.616 561.958 235.667C559.331 235.787 556.903 235.619 554.82 235.136C549.295 233.852 548.022 231.129 545.237 225.163C544.694 223.99 544.098 222.712 543.405 221.322C536.391 207.106 526.354 199.537 515.878 200.543C509.69 201.142 505.141 204.761 502.349 211.297C495.394 227.636 500.912 259.223 504.947 282.288C506.377 290.469 507.613 297.536 508.119 302.714C508.499 306.62 508.521 314.072 508.551 322.702C508.633 349.654 508.752 386.569 518.022 396.936C519.646 398.752 521.477 399.661 523.495 399.661C525.2 399.661 527.047 399.011 529.012 397.712C538.975 391.133 545.9 369.963 549.049 352.346C549.444 350.167 549.801 347.929 550.144 345.766C552.035 333.933 553.722 323.385 560.371 320.722C562.268 319.962 564.001 318.413 564.001 316.369Z" fill="white"/>
<path fill-rule="evenodd" clip-rule="evenodd" d="M563.997 323.365C563.319 323.617 562.664 324.005 562.031 324.548C554.608 330.974 552.188 355.855 550.058 377.81C548.912 389.622 547.929 399.824 546.328 404.934C542.374 417.548 533.856 438.101 521.228 434.01C509.538 430.227 507.378 408.711 505.636 391.422C505.42 389.222 505.204 387.083 504.973 385.044C503.603 372.704 503.328 360.965 503.037 348.536C502.859 340.811 502.673 332.821 502.204 324.589C501.571 313.583 499.664 302.423 497.81 291.631C496.612 284.628 495.376 277.388 494.549 270.467C494.236 267.877 493.886 265.214 493.514 262.392C491.385 246.303 488.972 228.067 493.194 213.844C498.168 197.106 506.79 191.147 519.567 195.624C530.714 199.53 537.78 206.413 545.635 221.022C551.097 231.19 557.325 230.954 563.721 227.177C563.892 227.076 563.997 226.891 563.997 226.693C563.997 226.248 563.508 225.975 563.121 226.194C557.087 229.604 551.251 229.624 546.186 220.201C538.212 205.372 531.041 198.383 519.724 194.415C506.746 189.868 497.595 196.222 492.531 213.299C488.19 227.91 490.633 246.369 492.784 262.656C493.157 265.472 493.507 268.129 493.819 270.708C494.653 277.677 495.897 284.942 497.096 291.969C498.935 302.707 500.841 313.812 501.459 324.705C501.935 332.904 502.114 340.875 502.293 348.584C502.583 361.058 502.859 372.841 504.244 385.269C504.467 387.299 504.683 389.433 504.906 391.625C506.679 409.291 508.89 431.276 521.079 435.222C522.248 435.6 523.387 435.777 524.482 435.777C535.717 435.777 543.297 417.271 546.983 405.504C548.644 400.216 549.641 389.923 550.795 378.005C552.791 357.411 555.278 331.781 562.381 325.644C562.547 325.5 562.715 325.37 562.884 325.251C563.516 324.809 563.997 324.137 563.997 323.365Z" fill="white"/>
<path fill-rule="evenodd" clip-rule="evenodd" d="M563.998 337.424C563.432 338.402 562.814 339.36 562.181 340.336C560.722 342.591 559.211 344.924 558.228 347.806C556.515 352.814 555.309 361.006 554.996 366.511C554.319 378.495 554.84 390.765 555.346 402.631C555.502 406.249 555.659 409.99 555.778 413.592C556.798 444.847 543.18 471.11 524.088 474.684C518.705 475.693 513.999 473.397 510.083 467.865C496.821 449.126 495.377 398.22 494.759 376.484C493.672 338.147 490.046 300.436 483.352 257.808C480.418 239.073 478.043 215.646 485.883 200.662C493.575 185.951 505.354 178.967 517.394 181.984C528.221 184.694 538.191 197.697 545.666 208.724C551.668 217.582 557.727 220.034 563.752 216.092C563.906 215.991 563.998 215.817 563.998 215.633C563.998 215.181 563.482 214.914 563.094 215.147C557.45 218.537 551.777 216.093 546.158 207.801C538.608 196.661 528.526 183.522 517.506 180.761C505.213 177.687 493.188 184.821 485.317 199.854C477.254 215.274 479.644 239.092 482.637 258.119C489.316 300.662 492.927 338.293 494.014 376.541C494.64 398.439 496.092 449.719 509.599 468.804C513.053 473.689 517.104 476.151 521.661 476.151C522.487 476.151 523.321 476.071 524.178 475.912C543.656 472.264 557.565 445.443 556.523 413.525C556.403 409.913 556.247 406.168 556.091 402.544C555.584 390.728 555.071 378.51 555.741 366.627C556.039 361.253 557.215 353.272 558.875 348.414C559.799 345.698 561.273 343.432 562.688 341.241C562.811 341.051 562.934 340.86 563.057 340.671C563.68 339.704 563.998 338.575 563.998 337.424Z" fill="white"/>
<path fill-rule="evenodd" clip-rule="evenodd" d="M364.234 629.759C368.56 620.232 375.112 615.547 381.464 611.022C384.717 608.704 388.083 606.307 391.084 603.293C401.642 592.704 406.839 575.764 406.117 554.302L406.11 554.078C405.03 522.016 407.971 512.509 410.629 510.18C412.327 508.688 414.553 509.664 417.249 513.081C424.992 522.931 421.024 557.205 418.954 571.484C418.723 573.088 418.306 575.259 417.874 577.559C416.75 583.446 415.484 590.119 415.804 593.94C416.281 599.643 418.053 601.575 419.937 603.619C421.135 604.924 422.379 606.274 423.525 608.711C426.295 614.6 427.572 621.943 427.754 629.398C427.759 629.598 427.923 629.759 428.124 629.759C428.33 629.759 428.496 629.59 428.491 629.384C428.308 621.67 426.986 614.059 424.114 607.951C422.893 605.352 421.537 603.883 420.346 602.587C418.462 600.537 416.973 598.919 416.541 593.772C416.243 590.224 417.539 583.408 418.581 577.93C419.021 575.61 419.438 573.418 419.676 571.773C422.289 553.745 425.506 522.021 417.695 512.102C414.754 508.363 412.26 507.35 410.279 509.089C406.132 512.723 404.479 527.881 405.365 554.147L405.372 554.368C406.08 575.348 401.002 591.899 390.697 602.237C387.741 605.206 384.397 607.587 381.173 609.887C374.752 614.462 368.127 619.197 363.686 628.914C363.504 629.311 363.797 629.759 364.234 629.759Z" fill="white"/>
<path fill-rule="evenodd" clip-rule="evenodd" d="M346.265 629.759C351.999 623.3 358.308 618.175 364.815 612.895C370.065 608.633 375.5 604.224 380.638 599.013C389.096 590.441 394.852 583.745 397.726 569.348C400.392 555.969 401.04 540.58 401.486 525.964C401.531 524.518 401.561 522.818 401.591 520.946C401.799 509.103 402.149 489.278 407.25 485.193C409.543 483.358 412.67 484.872 416.542 489.685C425.879 501.271 427.286 524.886 425.499 543.122C425.09 547.258 424.442 551.525 423.75 556.043C421.523 570.642 419.223 585.739 424.628 599.197C426.304 603.361 428.254 607.021 430.146 610.559C433.439 616.714 436.415 622.321 437.485 629.437C437.513 629.621 437.67 629.759 437.857 629.759C438.083 629.759 438.257 629.559 438.224 629.335C437.117 621.76 433.979 615.862 430.704 609.741C428.828 606.232 426.892 602.607 425.246 598.512C420.027 585.51 422.283 570.684 424.472 556.345C425.164 551.801 425.82 547.509 426.237 543.32C428.061 524.726 426.587 500.614 416.989 488.697C412.871 483.585 409.491 482.029 406.929 484.079C401.412 488.492 401.069 508.001 400.846 520.912C400.816 522.773 400.786 524.463 400.742 525.902C400.303 540.434 399.655 555.729 397.019 568.96C394.227 582.958 388.568 589.531 380.251 597.959C375.143 603.14 369.722 607.535 364.488 611.786C357.941 617.099 351.597 622.26 345.819 628.777C345.479 629.16 345.753 629.759 346.265 629.759Z" fill="white"/>
<path fill-rule="evenodd" clip-rule="evenodd" d="M330.272 629.76C331.15 629.062 332.031 628.383 332.918 627.757C336.669 625.112 340.763 622.597 345.098 619.935C364.388 608.084 386.249 594.652 391.171 561.83C391.968 556.532 392.102 545.615 392.258 532.974C392.593 504.929 393.062 466.52 400.888 454.885C402.653 452.26 404.656 451.146 407.031 451.504C415.936 452.821 425.884 487.089 428.661 498.989C433.024 517.666 430.121 539.976 427.559 555.133C427.261 556.883 426.978 558.534 426.703 560.102C423.62 577.796 422.347 585.119 432.109 600.774C432.972 602.167 433.97 603.675 435.027 605.272C439.552 612.123 445.075 620.498 447.195 629.476C447.234 629.642 447.382 629.76 447.552 629.76C447.785 629.76 447.959 629.544 447.907 629.317C445.719 619.797 439.94 611.044 435.526 604.361C434.476 602.77 433.486 601.268 432.622 599.888C423.181 584.748 424.335 578.13 427.418 560.446C427.693 558.875 427.976 557.219 428.274 555.467C430.873 540.14 433.799 517.563 429.354 498.542C426.532 486.456 416.383 451.647 407.098 450.273C404.559 449.904 402.295 451.14 400.389 453.965C392.325 465.959 391.856 504.678 391.514 532.95C391.357 545.516 391.223 556.368 390.449 561.531C385.624 593.722 363.956 607.033 344.84 618.777C340.497 621.445 336.395 623.966 332.628 626.621C331.709 627.268 330.797 627.964 329.89 628.688C329.443 629.045 329.699 629.76 330.272 629.76Z" fill="white"/>
<path fill-rule="evenodd" clip-rule="evenodd" d="M322.374 629.76C328.098 624.523 334.046 620.416 340.156 616.213C345.04 612.856 350.09 609.383 355.277 605.178C375.001 589.175 384.301 567.137 384.524 535.82C384.725 508.344 384.658 480.588 384.591 453.748C384.561 440.209 384.524 426.208 384.524 412.324C384.524 398.982 386.78 389.269 390.421 386.974C393.601 384.967 397.711 388.433 402.305 396.991C411.516 414.164 420.875 432.435 426.891 449.708C432.982 467.223 437.189 488.352 438.135 506.23C438.887 520.367 436.519 530.343 434.024 540.908C432.796 546.082 431.53 551.434 430.517 557.603C426.117 584.457 437.077 592.92 447.68 601.103C456.265 607.731 464.426 614.043 465.075 629.399C465.083 629.598 465.246 629.76 465.445 629.76C465.653 629.76 465.82 629.582 465.811 629.374C465.13 613.223 456.437 606.501 447.993 599.984C437.196 591.649 427.003 583.777 431.24 557.927C432.237 551.824 433.496 546.503 434.717 541.358C437.249 530.656 439.639 520.548 438.879 506.121C437.926 488.074 433.682 466.754 427.532 449.09C421.486 431.723 412.104 413.391 402.856 396.171C396.773 384.827 392.588 384.279 390.153 385.82C386.162 388.339 383.78 398.248 383.78 412.324C383.78 426.21 383.817 440.213 383.847 453.753C383.914 480.588 383.981 508.339 383.78 535.805C383.556 566.603 374.398 588.294 354.946 604.068C349.783 608.257 344.744 611.722 339.87 615.073C333.719 619.303 327.728 623.426 321.96 628.709C321.551 629.084 321.818 629.76 322.374 629.76Z" fill="white"/>
<path fill-rule="evenodd" clip-rule="evenodd" d="M314.482 629.759C327.114 616.932 340.266 604.765 353.097 592.9L355.656 590.533C365.06 581.834 373.943 573.615 377.018 554.85C379.765 538.066 377.658 519.768 375.797 503.623C375.454 500.602 375.112 497.636 374.806 494.743C373.518 482.495 372.93 469.621 372.357 457.17C371.865 446.355 371.344 435.171 370.384 424.372C370.168 421.952 369.937 419.495 369.706 417.01C367.815 396.409 365.663 373.063 367.554 352.023C368.917 336.815 372.215 327.923 377.345 325.595C389.892 319.9 412.2 353.782 423.309 376.477C438.834 408.206 446.957 451.844 445.58 496.2C445.267 506.266 442.475 517.862 439.779 529.078C435.803 545.573 431.7 562.629 435.401 575.544C437.501 582.864 441.819 588.129 448.595 591.639C451.819 593.306 457.709 594.268 464.529 595.38C480.791 598.035 503.062 601.668 510.046 617.397C511.526 620.73 512.219 624.428 512.165 628.596C512.157 629.23 512.66 629.759 513.294 629.759C513.892 629.759 514.384 629.286 514.391 628.688C514.45 623.702 513.607 619.176 511.848 615.201C504.276 598.143 481.424 594.415 464.745 591.694C458.051 590.601 452.266 589.657 449.265 588.104C443.115 584.918 439.236 580.289 437.419 573.952C434.135 562.5 437.881 546.933 441.849 530.452C444.619 518.957 447.478 507.07 447.813 496.39C449.213 451.132 440.911 406.574 425.044 374.142C416.794 357.294 392.051 315.09 376.757 322.021C370.689 324.772 366.854 334.682 365.343 351.478C363.399 373.069 365.581 396.711 367.502 417.569C367.733 420.05 367.956 422.5 368.172 424.914C369.125 435.585 369.639 446.701 370.13 457.452C370.704 469.99 371.299 482.955 372.602 495.378C372.908 498.29 373.258 501.277 373.608 504.318C375.417 520.069 377.472 537.922 374.859 553.878C372.037 571.139 363.548 578.989 354.569 587.299L352.009 589.665C339.117 601.586 325.91 613.821 313.206 626.729C312.095 627.858 312.898 629.759 314.482 629.759Z" fill="white"/>
<path fill-rule="evenodd" clip-rule="evenodd" d="M417.977 346.049C422.058 353.531 426.28 361.266 429.787 369.728C447.599 412.633 457.838 446.893 457.481 495.054C457.407 504.947 455.925 514.726 454.488 524.183C453.058 533.583 451.583 543.303 451.509 553.092C451.338 574.323 463.93 574.944 474.042 575.444C476.232 575.552 478.302 575.654 480.156 575.943C494.215 578.129 505.139 582.95 513.562 590.683C520.459 597.022 529.386 614.228 534.422 629.474C534.479 629.645 534.638 629.76 534.818 629.76C535.1 629.76 535.301 629.487 535.214 629.219C530.166 613.642 521.118 596.213 513.919 589.602C505.415 581.786 494.394 576.915 480.23 574.713C478.346 574.421 476.261 574.318 474.065 574.21C463.766 573.702 452.097 573.125 452.254 553.109C452.328 543.465 453.795 533.817 455.21 524.486C456.654 514.959 458.151 505.108 458.226 495.068C458.583 446.579 448.299 412.137 430.405 369.028C426.861 360.499 422.623 352.732 418.528 345.22C414.842 338.463 411.029 331.477 407.723 323.942C403.962 315.367 399.911 298.187 403.143 288.54C404.804 283.59 408.162 281.385 413.144 281.978C416.078 282.329 419.384 284.46 422.884 286.716C430.48 291.614 439.088 297.164 444.576 282.959C448.284 273.371 447.48 256.546 446.773 241.702C446.423 234.456 446.103 227.611 446.311 222.191C447.041 203.325 451.256 184.657 457.578 172.254C459.529 168.433 461.852 164.782 464.101 161.251C470.312 151.507 476.738 141.429 476.842 125.838C476.932 112.532 472.084 106.143 467.392 99.965C463.647 95.0243 460.102 90.3576 458.963 82.3988C456.781 67.2233 470.848 59.3386 479.248 54.6275C480.521 53.9138 481.727 53.2395 482.725 52.6245C500.381 41.7535 519.978 29.6667 530.52 0.554583C530.616 0.287222 530.42 0 530.135 0C529.962 0 529.807 0.111354 529.747 0.273749C519.276 28.7763 499.916 40.7213 482.464 51.4662C481.474 52.075 480.275 52.7468 479.009 53.4581C470.364 58.3038 455.902 66.4145 458.241 82.6841C459.44 91.059 463.252 96.0776 466.931 100.931C471.481 106.925 476.187 113.123 476.098 125.823C475.993 140.892 469.686 150.785 463.595 160.355C461.331 163.909 458.985 167.584 457.012 171.457C450.585 184.054 446.311 202.991 445.566 222.112C445.351 227.621 445.686 234.508 446.028 241.799C446.728 256.449 447.517 273.054 443.951 282.293C438.79 295.645 430.837 290.52 423.152 285.565C419.6 283.275 416.242 281.111 413.203 280.747C407.901 280.106 404.305 282.531 402.488 287.94C399.062 298.17 403.136 315.574 407.12 324.668C410.448 332.256 414.276 339.268 417.977 346.049Z" fill="white"/>
<path fill-rule="evenodd" clip-rule="evenodd" d="M563.998 617.385C562.285 613.699 560.498 610.024 558.45 607.26C556.097 604.089 553.446 601.467 550.884 598.932C548.717 596.789 546.483 594.574 544.458 592.056C543.073 590.333 541.703 588.606 540.332 586.881C533.884 578.75 527.212 570.343 519.847 563.367C509.734 553.791 501.819 548.587 491.319 550.291C489.964 550.512 488.474 550.87 486.896 551.249C478.682 553.219 468.458 555.674 464.861 541.738C462.002 530.677 462.843 512.648 463.595 496.74C463.893 490.236 464.183 484.092 464.183 479.008V474.65C464.206 456.149 464.221 437.018 461.004 419.553C457.697 401.596 450.117 384.951 443.43 370.266C442.819 368.931 442.216 367.609 441.62 366.296C440.548 363.923 439.349 361.475 438.083 358.884C432.362 347.176 425.986 334.139 426.711 320.198C426.93 315.967 430.683 313.616 433.868 316.409C436.527 318.744 439.274 321.157 442.603 318.117C451.122 310.314 450.08 285.542 449.461 270.741C449.38 268.767 449.298 266.948 449.253 265.342C448.672 246.01 449.878 226.128 452.842 206.247C455.925 185.512 460.803 171.618 468.659 161.195C478.593 148.009 485.704 136.216 479.62 114.729C478.496 110.762 476.009 106.483 473.38 101.953C469.441 95.17 465.367 88.1583 466.015 82.2235C466.35 79.2079 467.869 76.6665 470.669 74.4548C475.934 70.2957 482.711 68.499 489.264 66.7603C494.082 65.4809 499.071 64.1584 503.39 61.9022C525.325 50.4492 540.394 31.0676 550.586 0.538409C550.674 0.275265 550.479 0 550.202 0C550.027 0 549.871 0.114118 549.815 0.280036C539.711 30.3226 524.814 49.4218 503.166 60.7242C498.9 62.9531 493.94 64.2683 489.144 65.5402C482.539 67.2925 475.711 69.1041 470.349 73.341C467.318 75.7354 465.665 78.5682 465.286 82.0024C464.571 88.5584 468.778 95.8035 472.844 102.809C475.428 107.263 477.878 111.472 478.95 115.254C484.803 135.925 477.87 147.389 468.19 160.231C460.311 170.69 455.203 185.219 452.12 205.95C449.141 225.949 447.927 245.952 448.508 265.404C448.553 267.018 448.635 268.844 448.717 270.827C449.327 285.333 450.348 309.614 442.238 317.037C439.267 319.753 436.817 317.6 434.218 315.318C432.148 313.502 430.011 311.625 427.427 311.897C427.288 311.912 427.174 312.012 427.14 312.147L427.107 312.282C422.87 329.715 430.986 346.321 437.502 359.661C438.768 362.243 439.96 364.682 441.024 367.036C441.62 368.351 442.223 369.676 442.834 371.011C449.484 385.613 457.02 402.164 460.296 419.913C463.476 437.202 463.461 455.39 463.439 474.647V479.008C463.439 484.043 463.156 490.165 462.85 496.645C462.098 512.694 461.242 530.885 464.176 542.225C468.004 557.034 478.533 554.505 487 552.471C488.571 552.095 490.053 551.738 491.393 551.521C501.699 549.84 509.496 554.987 519.475 564.442C526.795 571.376 533.452 579.758 539.886 587.864C541.256 589.591 542.626 591.32 544.011 593.043C546.066 595.6 548.323 597.834 550.505 599.993C553.044 602.506 555.665 605.103 557.981 608.218C559.864 610.758 561.539 614.138 563.145 617.573C563.347 618.006 563.998 617.863 563.998 617.385Z" fill="white"/>
<path fill-rule="evenodd" clip-rule="evenodd" d="M563.997 577.933C558.695 573.484 553.311 569.193 547.994 564.956C542.7 560.736 537.696 556.75 532.826 552.654C530.741 550.901 528.559 548.863 526.25 546.706C520.159 541.002 513.852 535.103 507.805 533.04C503.471 531.567 499.092 532.902 494.855 534.194C489.65 535.783 484.735 537.285 480.074 533.815C472.687 528.315 472.888 508.728 473.059 492.991C473.111 487.798 473.163 482.892 472.947 478.846C471.696 455.064 469.693 434.189 466.975 416.798C464.302 399.634 458.605 382.512 449.572 364.46C448.939 363.195 448.083 361.753 447.1 360.085C443.846 354.559 439.378 346.989 440.316 341.185C440.934 337.372 442.483 336.91 445.387 336.363C448.068 335.859 451.404 335.232 453.772 329.774C458.508 318.836 456.788 299.41 455.403 283.801C454.919 278.31 454.457 273.122 454.338 268.987C453.616 244.506 454.591 226.589 457.607 209.08C460.348 193.112 464.555 175.054 474.943 162.201C485.636 148.966 492.093 138.622 484.706 116.329C483.805 113.596 482.747 110.917 481.727 108.326C479.113 101.682 476.641 95.4065 477.609 90.4706C478.257 87.1365 480.454 84.3234 484.318 81.8697C493.887 75.7891 506.442 74.5283 517.515 73.4169L518.238 73.344C528.536 72.3092 543.422 69.4887 553.81 57.0016C557.628 52.4123 560.996 45.526 563.891 38.9881C563.961 38.8293 563.997 38.6579 563.997 38.4842C563.997 37.1272 562.121 36.738 561.564 37.9757C558.893 43.9205 555.844 49.9812 552.5 54.0021C542.581 65.9212 528.119 68.6391 518.104 69.6468L517.381 69.7184C506.144 70.8471 493.411 72.1252 483.514 78.4095C478.979 81.2905 476.35 84.8618 475.479 89.3284C474.184 95.9486 476.939 102.944 479.858 110.351C480.856 112.884 481.883 115.503 482.747 118.112C489.427 138.268 483.916 146.47 473.603 159.233C462.686 172.745 458.3 191.5 455.455 208.064C452.372 225.985 451.375 244.259 452.104 269.167C452.231 273.483 452.7 278.757 453.191 284.341C454.517 299.289 456.17 317.892 451.955 327.613C450.168 331.736 447.726 332.195 445.134 332.682C442.357 333.205 439.199 333.797 438.164 340.225C436.891 348.069 441.873 356.511 445.507 362.676C446.452 364.286 447.279 365.678 447.852 366.826C456.677 384.451 462.224 401.099 464.816 417.727C467.496 434.919 469.485 455.59 470.721 479.167C470.922 483.02 470.877 487.831 470.825 492.927C470.646 509.752 470.423 530.692 479.158 537.193C484.452 541.138 489.948 539.459 495.265 537.838C499.472 536.552 503.449 535.339 507.351 536.67C513.055 538.615 519.206 544.369 525.156 549.934C527.486 552.111 529.683 554.167 531.813 555.957C536.713 560.072 541.724 564.066 547.026 568.295C551.606 571.942 556.23 575.629 560.811 579.423C562.075 580.47 563.997 579.575 563.997 577.933Z" fill="white"/>
<path fill-rule="evenodd" clip-rule="evenodd" d="M564 506.842C561.46 503.526 558.884 500.578 556.531 498.386C548.794 491.169 542.762 493.813 535.777 496.88C534.801 497.308 533.804 497.746 532.776 498.168C519.655 503.551 506.519 495.411 497.643 476.394C490.003 460.012 487.776 439.378 486.681 423.232C486.034 413.566 485.237 403.912 484.462 394.578C483.539 383.36 482.586 371.759 481.886 360.211C481.364 351.632 481.089 342.852 480.821 334.364C480.434 322.133 480.032 309.487 478.9 297.201C478.267 290.307 477.306 283.252 476.375 276.429C474.759 264.573 473.091 252.313 473.121 240.684L473.129 238.745C473.166 219.572 473.203 203.014 481.759 189.146C490.055 175.703 500.621 167.909 511.516 167.199C519.871 166.65 527.578 168.664 535.047 170.608C538.957 171.627 543 172.68 547.103 173.361C553.406 174.404 558.853 173.476 563.279 170.782C563.735 170.504 564 170.001 564 169.466C564 168.148 562.462 167.356 561.282 167.945C556.119 170.523 550.587 170.216 547.327 169.675C543.291 169.004 539.269 167.959 535.39 166.948C527.816 164.976 519.99 162.941 511.426 163.496C499.974 164.244 488.886 172.411 480.195 186.496C470.976 201.449 470.932 219.559 470.895 238.732L470.887 240.667C470.857 252.718 472.555 265.188 474.193 277.245C475.117 284.005 476.07 290.996 476.688 297.759C477.805 309.863 478.2 322.417 478.587 334.557C478.855 343.092 479.138 351.914 479.667 360.58C480.367 372.195 481.327 383.829 482.251 395.079C483.018 404.392 483.814 414.023 484.462 423.644C485.587 440.271 487.895 461.55 495.878 478.661C505.305 498.875 519.305 507.509 533.312 501.764C534.355 501.337 535.36 500.895 536.35 500.461C543.134 497.482 548.488 495.133 555.436 501.616C557.208 503.268 559.139 505.406 561.092 507.828C562.039 509.003 564 508.351 564 506.842Z" fill="white"/>
<path fill-rule="evenodd" clip-rule="evenodd" d="M563.997 549.877C557.898 541.423 550.295 533.454 541.977 526.886C536.266 522.374 530.867 521.139 525.163 519.833C521.737 519.049 518.2 518.24 514.566 516.657C496.583 508.832 484.206 477.451 481.265 450.496C478.845 428.355 477.415 405.315 476.037 383.033C474.943 365.416 473.818 347.197 472.202 329.496C471.622 323.109 470.974 316.646 470.289 309.802C467.057 277.638 463.393 241.183 467.191 209.99C471.979 170.712 497.268 152.395 517.47 148.645C520.955 147.996 524.396 147.683 527.724 147.38C536.616 146.568 545.008 145.802 553.512 139.011C557.954 135.465 561.19 131.507 563.949 126.22C563.98 126.161 563.997 126.094 563.997 126.027C563.997 125.583 563.383 125.437 563.174 125.829C560.529 130.78 557.415 134.523 553.192 137.899C544.822 144.583 536.496 145.343 527.68 146.147C524.344 146.45 520.896 146.765 517.381 147.417C496.933 151.215 471.324 169.816 466.461 209.746C462.633 241.162 466.312 277.736 469.551 310.005C470.236 316.843 470.884 323.302 471.465 329.679C473.074 347.352 474.205 365.556 475.293 383.16C476.678 405.465 478.108 428.529 480.528 450.716C483.417 477.214 495.242 509.526 514.373 517.851C518.051 519.453 521.611 520.267 525.058 521.056C530.71 522.35 536.05 523.571 541.657 528.001C549.709 534.359 557.082 542.034 563.052 550.182C563.349 550.587 563.997 550.379 563.997 549.877Z" fill="white"/>
<path fill-rule="evenodd" clip-rule="evenodd" d="M563.996 575.237C561.435 573.395 559.067 571.586 557.265 569.572C554.115 566.047 550.98 561.833 547.956 557.759C541.768 549.432 535.372 540.824 527.97 536.73C522.794 533.867 517.187 532.443 511.773 531.069C506.188 529.652 500.417 528.186 495.212 525.139C486.231 519.884 483.044 503.681 480.229 489.386C479.582 486.108 478.971 483.011 478.308 480.088C474.287 462.392 471.025 442.463 468.628 420.855C465.857 396.002 463.795 370.224 461.792 345.294C460.66 331.184 459.491 316.594 458.202 302.327C456.862 287.387 457.592 272.122 458.299 257.36C458.56 251.882 458.828 246.219 458.984 240.703L459.036 238.982C459.595 218.965 460.042 203.155 465.627 185.326C476.171 151.691 510.82 137.369 521.186 133.781C531.581 130.182 542.319 124.873 550.458 110.503C554.055 104.164 556.81 95.1214 559.484 86.3772C560.921 81.6742 562.38 76.9041 563.971 72.5662C563.988 72.5196 563.996 72.4704 563.996 72.4208C563.996 71.9536 563.363 71.8378 563.204 72.2769C561.649 76.5556 560.224 81.2201 558.821 85.8202C556.17 94.4867 553.437 103.448 549.922 109.657C541.917 123.778 531.306 129.015 521.037 132.572C510.582 136.189 475.657 150.639 464.971 184.757C459.304 202.827 458.858 218.757 458.292 238.925L458.24 240.646C458.083 246.141 457.815 251.795 457.554 257.263C456.847 272.094 456.11 287.43 457.465 302.51C458.753 316.767 459.922 331.352 461.054 345.457C463.057 370.402 465.128 396.196 467.89 421.08C470.303 442.758 473.572 462.76 477.616 480.525C478.271 483.421 478.882 486.504 479.522 489.77C482.389 504.336 485.636 520.845 494.959 526.304C500.231 529.39 506.039 530.864 511.654 532.289C517.045 533.657 522.616 535.071 527.739 537.902C535.007 541.923 541.351 550.461 547.487 558.719C550.525 562.81 553.668 567.039 556.848 570.595C558.508 572.453 560.613 574.123 562.904 575.795C563.359 576.127 563.996 575.8 563.996 575.237Z" fill="white"/>
<path fill-rule="evenodd" clip-rule="evenodd" d="M307.151 0.000335693C305.891 0.000335693 304.85 0.986121 304.816 2.24515C304.745 4.8572 304.772 7.51328 304.799 10.0436C304.812 11.2081 304.824 12.3541 304.826 13.463C304.872 33.5682 302.234 52.7755 299.683 71.3506C297.086 90.2567 294.401 109.807 294.401 130.771C294.401 142.042 294.586 153.782 294.765 165.135C295.273 197.451 295.799 230.865 292.352 261.326C287.995 299.823 273.241 348.373 251.142 363.999C246.292 367.43 241.052 368.915 235.985 370.352C229.701 372.131 223.203 373.974 217.488 379.55C207.171 389.618 203.328 404.694 199.26 420.653C198.577 423.336 197.87 426.109 197.131 428.859C194.334 439.266 191.4 445.099 187.895 447.217C184.161 449.469 179.455 447.823 171.648 441.525C165.265 436.376 161.552 436.446 155.134 438.607C154.173 438.931 153.198 439.315 152.245 439.69C149.77 440.666 146.385 442.002 145.747 440.712C145.642 440.499 145.195 439.173 146.672 433.849C147.826 429.69 149.95 426.689 152.198 423.512C154.066 420.872 155.997 418.144 157.384 414.639C159.116 410.266 159.999 405.64 160.852 401.167C161.786 396.276 162.668 391.656 164.582 387.514C167.357 381.511 170.32 376.583 173.185 371.816C178.613 362.787 183.74 354.257 186.936 339.83C190.506 323.714 190.305 309.85 186.336 298.622C180.834 283.06 168.014 272.516 148.232 267.281C139.84 265.062 133.599 257.091 126.991 248.651C125.176 246.335 123.3 243.939 121.342 241.611C119.608 239.549 117.926 237.691 116.3 235.891C106.516 225.073 100.612 218.544 106.491 195.682C111.356 176.768 111.919 159.148 111.252 136.854C111.171 134.181 111.057 131.507 110.936 128.674C110.2 111.447 109.438 93.6353 116.648 81.3692C132.453 54.4821 159.976 56.3789 180.465 67.1224C181.349 67.5855 182.235 68.0634 183.124 68.54C193.949 74.3613 205.144 80.3764 214.96 65.4207C217.066 62.2113 218.84 59.0648 220.407 56.2875C225.668 46.9555 229.144 40.7935 238.811 42.4618C250.926 44.5549 263.721 45.7157 275.246 35.1451C280.348 30.4674 284.237 24.309 286.805 16.8404C287.477 14.8856 288.12 11.4391 288.801 7.79121C289.142 5.96327 289.617 3.42483 290.064 1.45862C290.232 0.720219 289.676 0.000335693 288.919 0.000335693C288.384 0.000335693 287.918 0.369362 287.805 0.892679C287.461 2.48154 287.095 4.40613 286.667 6.69464C286.052 9.99301 285.415 13.4038 284.864 15.0042C282.502 21.8738 278.903 27.5592 274.166 31.9035C263.206 41.9543 250.804 40.8095 239.042 38.7781C228.266 36.9122 224.079 44.3487 218.775 53.7573C217.16 56.6197 215.492 59.5785 213.449 62.6929C204.593 76.1827 194.501 70.7604 183.813 65.0169C182.919 64.5366 182.027 64.0574 181.138 63.5906C160.017 52.5162 131.563 50.6898 115.048 78.7834C107.138 92.2387 107.972 111.735 108.708 128.936C108.828 131.749 108.941 134.404 109.021 137.037C109.673 158.806 109.133 175.967 104.436 194.23C97.8292 219.918 105.433 228.328 115.06 238.974C116.671 240.754 118.336 242.597 120.04 244.622C121.967 246.913 123.828 249.29 125.627 251.587C132.467 260.321 138.928 268.571 147.879 270.94C166.971 275.992 179.262 285.935 184.409 300.496C188.023 310.722 188.169 323.526 184.838 338.552C181.811 352.217 176.853 360.466 171.603 369.201C168.687 374.051 165.672 379.066 162.809 385.26C160.656 389.917 159.673 395.068 158.723 400.049C157.878 404.478 157.08 408.659 155.517 412.607C154.305 415.667 152.578 418.108 150.749 420.692C148.416 423.989 146.002 427.4 144.643 432.301C143.165 437.624 142.973 440.944 144.02 443.062C145.543 446.141 148.889 444.821 152.761 443.295C153.691 442.928 154.642 442.553 155.578 442.238C161.851 440.129 164.911 440.213 170.671 444.857C175.883 449.061 180.379 451.897 184.418 451.896C185.888 451.896 187.298 451.519 188.659 450.698C192.771 448.213 196.112 441.753 199.172 430.366C199.919 427.584 200.63 424.794 201.319 422.096C205.238 406.716 208.941 392.189 218.621 382.744C223.983 377.511 229.995 375.807 236.362 374.003C241.556 372.53 246.927 371.007 252.018 367.408C274.872 351.248 290.085 301.444 294.548 262.01C298.039 231.162 297.509 197.547 296.998 165.039C296.82 153.709 296.635 141.993 296.635 130.771C296.635 110.225 299.291 90.8803 301.861 72.1731C304.439 53.3942 307.107 33.9769 307.06 13.4507C307.058 12.3232 307.045 11.16 307.033 9.97696C306.998 6.71069 306.966 3.22338 307.151 0.000335693Z" fill="white"/>
<path fill-rule="evenodd" clip-rule="evenodd" d="M287.735 49.0002C282.128 68.3211 280.373 85.1205 278.804 103.517C276.881 126.051 273.92 148.54 271.056 170.288C268.782 187.558 266.43 205.417 264.597 223.283C260.65 261.743 244.633 291.367 226.624 317.738C223.553 322.235 216.989 320.086 217.214 314.645C217.751 301.603 218.307 288.119 214.132 275.907C208.35 258.998 197.857 251.757 187.687 244.738C177.01 237.368 166.272 230.763 157.178 225.272C155.194 224.074 153.063 222.964 150.806 221.789C142.445 217.435 132.97 212.5 128.066 201.143C122.257 187.687 125.154 165.138 128.325 146.996C129.107 142.523 129.698 137.334 130.323 131.84C131.858 118.362 133.597 103.087 138.805 94.471C149.662 76.5084 164.72 83.9708 179.281 91.1862C189.562 96.2801 200.193 101.547 209.224 97.7484C215.317 95.1848 220.735 89.7031 225.977 84.4018C228.353 81.9987 230.808 79.5154 233.308 77.3197C241.836 69.8252 250.095 65.8625 259.872 62.2196C277.941 55.4857 287.612 40.5531 294.32 8.99872C294.355 8.8358 294.282 8.66532 294.138 8.58141C293.91 8.44875 293.618 8.58412 293.563 8.84163C286.956 39.7598 277.44 54.4058 259.709 61.0143C249.873 64.6795 241.561 68.6694 232.958 76.2281C230.44 78.4423 227.974 80.9355 225.589 83.3484C220.395 88.6016 215.024 94.0326 209.041 96.5506C200.213 100.27 189.679 95.0502 179.494 90.0032C164.724 82.6828 149.451 75.1155 138.278 93.5967C132.907 102.483 131.146 117.957 129.592 131.61C128.97 137.074 128.382 142.236 127.61 146.652C124.391 165.062 121.465 187.974 127.461 201.861C132.509 213.555 142.111 218.555 150.583 222.967C152.831 224.137 154.955 225.244 156.923 226.432C166.01 231.918 176.737 238.518 187.424 245.894C197.455 252.818 207.828 259.976 213.485 276.516C217.549 288.404 217.026 301.109 216.471 314.561C216.224 320.551 215.968 326.745 216.155 332.857L216.163 333.116C216.172 333.433 216.578 333.558 216.764 333.301C238.744 303.032 260.597 269.619 265.332 223.49C267.162 205.652 269.512 187.807 271.783 170.551C274.65 148.781 277.615 126.269 279.541 103.689C281.102 85.3971 282.845 68.6965 288.405 49.5361C292.465 35.5472 296.128 19.9339 295.84 0.367873C295.837 0.164732 295.672 0 295.469 0C295.26 0 295.092 0.172826 295.096 0.381166C295.388 18.5143 292.361 33.0582 287.735 49.0002Z" fill="white"/>
<path fill-rule="evenodd" clip-rule="evenodd" d="M299.305 0C299.249 2.58338 299.194 5.49894 299.135 8.79731C298.911 21.4833 298.678 34.6027 297.95 39.2322C295.211 56.6416 292.591 75.2328 289.943 96.0702C286.134 126.028 284.811 154.877 283.409 185.418C282.916 196.156 282.408 207.258 281.781 218.425C280.491 241.405 274.656 298.16 248.389 328.778C242.98 335.083 236.892 339.504 231.004 343.78C226.38 347.139 221.598 350.612 217.137 354.992C212.807 359.245 208.674 366.557 204.678 373.629C199.343 383.069 193.826 392.831 187.596 396.02C186.933 396.358 186.21 397.046 185.51 397.709C184.788 398.394 183.703 398.026 183.583 397.038C182.473 387.865 188.215 375.179 193.333 363.872C196.378 357.143 199.253 350.79 200.364 345.851C204.648 326.781 206.007 298.963 200.315 282.694C192.395 260.057 176.647 252.618 161.418 245.423C153.222 241.552 144.747 237.548 137.828 231.215C126.25 220.619 117.323 210.583 116.425 186.302C115.965 173.875 116.895 162.302 117.879 150.049C118.508 142.229 119.157 134.143 119.403 125.862C119.955 107.332 124.513 92.3026 132.585 82.3976C142.06 70.7687 155.951 67.274 169.744 73.0508C171.297 73.7015 172.89 74.4091 174.514 75.1303C184.608 79.6179 196.051 84.6994 206.284 79.4956C210.873 77.1617 214.899 73.3508 218.795 69.6647C224.264 64.4881 229.429 59.5992 235.98 58.5273C247.831 56.5873 259.026 54.7547 270.55 45.1881C280.617 36.8316 284.424 27.0637 289.245 14.6963C290.585 11.2584 291.97 7.70444 293.604 3.87012C294.029 2.87458 294.374 1.69292 294.696 0.494641C294.763 0.244882 294.575 0 294.316 0C294.138 0 293.982 0.119625 293.935 0.291516C293.651 1.32759 293.349 2.32985 292.996 3.1576C291.353 7.0129 289.964 10.578 288.62 14.0258C283.861 26.2351 280.102 35.8783 270.217 44.0841C258.816 53.5495 247.688 55.3697 235.907 57.2973C229.198 58.3964 223.721 63.5792 218.425 68.5916C214.566 72.2444 210.576 76.0219 206.066 78.3151C196.032 83.4164 184.703 78.3805 174.707 73.9374C173.08 73.215 171.483 72.5049 169.926 71.8529C155.711 65.9008 141.939 69.3831 132.142 81.4047C123.885 91.537 119.223 106.889 118.66 125.8C118.415 134.032 117.767 142.091 117.141 149.886C116.195 161.659 115.218 173.832 115.682 186.378C116.603 211.287 125.688 221.515 137.469 232.296C144.461 238.697 152.978 242.72 161.214 246.611C176.301 253.738 191.901 261.107 199.671 283.314C205.247 299.252 203.889 326.622 199.665 345.419C198.594 350.192 195.749 356.476 192.738 363.13C187 375.807 180.497 390.174 183.429 400.119L183.473 400.266C183.525 400.442 183.727 400.523 183.887 400.432C184.533 400.06 185.218 399.409 185.881 398.781C186.544 398.15 187.231 397.498 187.816 397.199C194.234 393.915 199.819 384.031 205.221 374.473C209.364 367.142 213.278 360.218 217.517 356.056C221.939 351.713 226.699 348.256 231.304 344.912C237.224 340.612 243.347 336.164 248.817 329.788C275.338 298.874 281.224 241.69 282.522 218.54C283.149 207.363 283.659 196.254 284.152 185.513C285.551 155.011 286.873 126.203 290.671 96.3246C293.318 75.5069 295.934 56.9331 298.669 39.5447C299.42 34.7793 299.654 21.5895 299.879 8.83312C299.925 6.2192 299.975 3.45388 300.031 0.741468C300.039 0.334511 299.712 0 299.305 0Z" fill="white"/>
<path fill-rule="evenodd" clip-rule="evenodd" d="M243.691 624.186C243.994 624.3 244.207 623.949 244.375 623.666C244.573 623.335 244.719 623.117 244.938 623.117C244.941 623.117 244.944 623.114 244.944 623.111L244.949 622.333C244.95 622.089 244.736 621.893 244.527 622.02C244.295 622.16 244.112 622.386 243.973 622.595C243.929 622.661 243.826 622.648 243.809 622.57C243.807 622.561 243.806 622.55 243.806 622.541C244.292 616.394 245.006 610.047 245.698 603.907C247.189 590.68 248.73 577.001 248.301 563.241C248.13 557.747 247.535 552.172 246.961 546.781C245.402 532.165 243.931 518.361 250.439 506.655C253.601 500.967 257.578 496.049 261.424 491.295C267.115 484.259 273 476.984 276.366 467.054C279.948 456.492 280.282 442.723 280.606 429.408C280.802 421.304 280.987 413.65 281.852 406.689C286.086 372.547 292.29 338.385 298.29 305.351C299.78 297.148 301.263 288.981 302.711 280.852C306.164 261.452 306.431 243.495 306.431 220.243C306.431 217.475 306.441 214.7 306.451 211.921C306.482 203.687 306.514 195.172 306.264 186.896C306.197 184.631 305.967 181.793 305.724 178.787C305.109 171.197 304.344 161.751 305.802 156.301C309.133 143.847 318.97 143.409 327.65 143.023C331.008 142.874 334.18 142.733 336.672 141.877C344.803 139.082 351.232 130.256 357.451 121.719C361.721 115.858 366.133 109.799 371.059 105.735C381.254 97.336 392.12 92.2942 402.635 87.419C404.073 86.7514 405.512 86.0839 406.95 85.4089C408.433 84.7117 410.639 83.3335 413.188 81.7392C422.131 76.1459 435.642 67.6923 440.762 73.8459C441.544 74.7836 442.439 76.1496 442.252 77.3403C441.783 80.4239 435.195 81.8873 432.378 82.5117C431.595 82.6856 430.969 82.8238 430.604 82.9485C426.61 84.3033 422.824 87.0574 418.814 89.9719C417.48 90.9406 416.102 91.9413 414.723 92.884C412.316 94.5251 409.938 96.0971 407.569 97.6568C398.134 103.887 389.221 109.769 380.427 118.843C354.267 145.824 337.897 174.87 331.767 205.177C327.256 227.477 324.043 248.933 334.13 266.29C342.528 280.739 353.598 287.597 363.316 292.401C363.83 292.655 364.53 292.951 365.358 293.301C369.553 295.075 377.356 298.379 378.191 303.959C379.055 309.797 375.053 311.819 371.186 313.774C369.658 314.545 368.219 315.274 367.176 316.222C356.042 326.304 355.476 345.466 354.926 363.999L354.765 369.332C354.154 389.391 353.522 410.133 354.089 430.037C354.382 440.352 355.759 450.228 357.093 459.78C358.412 469.25 359.776 479.041 360.089 489.268C361.333 530.161 344.641 550.704 326.968 572.456C323.924 576.202 320.775 580.078 317.751 584.034C307.668 597.227 296.558 611.796 288.307 629.392C288.174 629.675 288.38 630 288.693 630C288.859 630 289.01 629.904 289.08 629.754C297.261 612.447 308.241 598.049 318.213 585.003C321.229 581.058 324.372 577.188 327.413 573.446C345.25 551.493 362.101 530.758 360.834 489.206C360.521 478.871 359.142 469.024 357.816 459.501C356.497 450.003 355.124 440.183 354.833 429.98C354.267 410.134 354.899 389.423 355.513 369.395L355.669 364.06C356.206 345.867 356.765 327.054 367.534 317.304C368.51 316.417 369.919 315.706 371.402 314.955C375.21 313.03 379.95 310.636 378.914 303.664C377.975 297.366 370.194 294.072 365.537 292.105C364.732 291.761 364.039 291.468 363.532 291.219C353.903 286.461 342.944 279.677 334.668 265.435C324.856 248.551 327.869 228.334 332.474 205.568C338.547 175.542 354.812 146.716 380.822 119.891C389.556 110.875 398.439 105.011 407.844 98.8031C410.214 97.2422 412.599 95.6665 415.006 94.0254C416.392 93.0765 417.778 92.0733 419.112 91.1022C423.085 88.2136 426.841 85.4866 430.753 84.1565C431.096 84.0417 431.707 83.906 432.482 83.7345C437.274 82.6708 442.431 81.2346 442.975 77.6426C443.206 76.1286 442.625 74.5603 441.202 72.8476C435.754 66.3054 422.019 74.8972 412.927 80.5843C410.393 82.1699 408.202 83.5383 406.749 84.2219C405.31 84.8968 403.872 85.5631 402.434 86.2307C391.889 91.1207 380.986 96.1785 370.731 104.631C365.723 108.757 361.274 114.864 356.974 120.769C350.826 129.209 344.47 137.936 336.52 140.667C334.094 141.502 330.954 141.641 327.629 141.789C318.73 142.186 308.643 142.634 305.121 155.8C303.577 161.57 304.358 171.208 304.985 178.951C305.226 181.931 305.453 184.744 305.52 186.958C305.768 195.199 305.737 203.696 305.706 211.914C305.696 214.695 305.686 217.473 305.686 220.243C305.686 243.39 305.421 261.262 301.996 280.501C300.549 288.629 299.066 296.795 297.577 304.996C291.572 338.056 285.362 372.244 281.121 406.44C280.246 413.5 280.051 421.561 279.86 429.359C279.541 442.528 279.21 456.147 275.717 466.449C272.427 476.152 266.607 483.349 260.978 490.305C257.105 495.094 253.099 500.046 249.89 505.818C243.133 517.974 244.636 532.071 246.227 546.995C246.798 552.349 247.388 557.887 247.557 563.303C247.981 576.919 246.449 590.524 244.966 603.682C244.266 609.891 243.542 616.311 243.054 622.541L243.054 622.544C243.047 622.637 243.053 622.73 243.071 622.821C243.229 623.578 243.387 624.071 243.691 624.186Z" fill="white"/>
<path fill-rule="evenodd" clip-rule="evenodd" d="M250.973 630C252.499 630 253.858 629.012 254.232 627.532C257.879 613.075 256.226 592.905 254.43 577.724C251.977 556.984 252.938 542.743 258.104 523.303C261.714 509.719 267.292 503.641 273.75 496.601C276.482 493.624 279.308 490.544 282.156 486.694C291.14 474.557 294.452 456.528 297.653 439.093C298.243 435.876 298.855 432.551 299.487 429.351C301.496 419.191 302.745 408.862 303.954 398.874C305.302 387.728 306.697 376.205 309.138 365.253C314.046 343.229 316.134 324.587 316.121 302.914C316.11 284.656 316.013 263.037 315.374 241.131C314.645 216.097 315.933 195.575 319.202 180.137C321.493 169.321 329.915 175.169 326.912 185.81C320.402 208.873 317.698 231.287 322.896 260.192C324.769 270.609 326.122 276.399 330.412 284.46C331.995 287.436 334.068 290.026 336.072 292.532C338.497 295.561 340.786 298.422 342.216 301.816C346.756 312.589 343.323 328.196 340.293 341.967C339.231 346.797 338.227 351.36 337.599 355.526C333.699 381.388 335.337 406.903 336.921 431.579C338.017 448.649 339.15 466.301 338.498 484.189C337.345 515.81 324.301 533.572 310.489 552.375C304.162 560.991 297.619 569.901 292.333 580.247C287.438 589.83 283.613 600.897 279.915 611.6C277.988 617.174 276.023 622.835 273.903 628.306C273.587 629.119 274.185 630 275.058 630C275.569 630 276.028 629.686 276.21 629.208C278.193 624.016 280.041 618.689 281.855 613.438C285.504 602.881 289.277 591.963 294.04 582.637C299.195 572.548 305.659 563.746 311.91 555.234C325.483 536.754 339.518 517.643 340.73 484.414C341.393 466.216 340.25 448.409 339.145 431.189C337.508 405.712 335.963 381.648 339.767 356.422C340.367 352.445 341.352 347.971 342.394 343.234C345.61 328.617 349.255 312.049 344.05 299.699C342.416 295.822 339.876 292.647 337.42 289.577C335.504 287.183 333.523 284.707 332.089 282.013C328.074 274.469 326.857 269.248 325.039 259.136C317.986 219.915 326.124 192.79 338.391 158.752L338.778 157.679C339.122 156.723 338.286 155.76 337.292 155.967C329.972 157.487 320.526 162.702 317.093 178.912C313.68 195.025 312.387 215.437 313.142 241.308C313.777 263.139 313.874 284.703 313.885 302.917C313.898 324.124 311.851 342.384 307.04 363.97C304.539 375.193 303.127 386.861 301.762 398.146C300.566 408.029 299.329 418.25 297.362 428.199C296.722 431.435 296.108 434.781 295.514 438.017C292.41 454.921 289.2 472.402 280.743 483.826C277.982 487.557 275.206 490.582 272.52 493.509C266.047 500.564 259.932 507.228 256.057 521.811C250.683 542.038 249.684 556.856 252.236 578.435C254.149 594.598 255.921 616.609 250.973 630Z" fill="white"/>
<path fill-rule="evenodd" clip-rule="evenodd" d="M259.171 611.446C258.232 617.892 257.272 624.531 258.336 629.701C258.372 629.876 258.527 629.999 258.706 629.999C258.955 629.999 259.137 629.765 259.084 629.522C258.016 624.662 258.968 618.101 259.895 611.735C260.36 608.543 260.799 605.527 260.965 602.82C261.503 594.127 261.238 583.698 260.181 571.824C258.139 548.914 260.565 537.948 271.472 520.806C274.946 515.344 278.749 510.606 282.427 506.024C287.983 499.102 293.728 491.944 298.299 482.277C305.492 467.068 307.055 450.146 308.711 432.231C309.1 428.008 309.504 423.643 309.986 419.284C310.551 414.158 311.048 408.424 311.572 402.354C312.441 392.309 313.399 381.235 314.901 370.623C317.115 354.98 328.657 356.09 328.163 371.881C327.951 378.666 327.75 385.075 328.048 390.579C328.539 399.678 328.937 409.131 329.321 418.273C329.81 429.885 330.315 441.895 331.023 453.515C333.436 493.1 318.126 519.495 301.918 547.439C300.786 549.391 299.652 551.347 298.523 553.309C287.371 572.691 280.746 594.09 273.732 616.743C272.439 620.919 271.114 625.192 269.752 629.477C269.67 629.736 269.863 629.999 270.134 629.999C270.309 629.999 270.463 629.887 270.516 629.72C271.843 625.541 273.134 621.377 274.395 617.306C281.384 594.733 287.984 573.413 299.063 554.159C300.191 552.198 301.324 550.245 302.456 548.293C318.786 520.138 334.212 493.543 331.764 453.391C331.058 441.79 330.553 429.79 330.065 418.188C329.68 409.039 329.282 399.58 328.79 390.468C328.497 385.052 328.697 378.685 328.908 371.944C329.368 357.212 329.846 341.978 325.551 332.287L325.535 332.251C325.434 332.022 325.116 332.002 324.986 332.217C315.527 347.934 312.926 378.011 310.835 402.177C310.311 408.236 309.816 413.959 309.252 419.062C308.769 423.439 308.365 427.813 307.974 432.043C306.334 449.796 304.785 466.562 297.713 481.516C293.202 491.057 287.75 497.848 281.979 505.038C278.284 509.641 274.464 514.401 270.958 519.912C259.965 537.19 257.382 548.874 259.443 572.004C260.492 583.777 260.755 594.102 260.225 602.694C260.062 605.319 259.629 608.295 259.171 611.446Z" fill="white"/>
<path fill-rule="evenodd" clip-rule="evenodd" d="M264.699 600.325C264.886 605.672 264.418 610.767 263.966 615.694C263.556 620.157 263.133 624.768 263.201 629.538C263.204 629.749 263.383 629.915 263.593 629.903C263.794 629.891 263.949 629.723 263.946 629.523C263.878 624.857 264.297 620.295 264.702 615.88C265.161 610.89 265.635 605.73 265.442 600.254C265.285 595.778 264.82 591.361 264.371 587.088C263.818 581.844 263.248 576.421 263.207 570.668C263.061 549.826 268.225 539.93 276.666 525.509C280.081 519.673 283.708 514.115 287.216 508.74C300.404 488.53 312.862 469.44 313.884 437.444C314.013 433.398 314.051 429.161 314.091 424.677C314.177 415.192 314.269 405.09 315.279 395.714C316.077 388.307 323.07 389.304 323.609 396.734C325.817 427.199 328.101 458.701 320.441 485.204C319.975 486.816 319.508 488.446 319.037 490.087C314.645 505.405 310.104 521.242 303.724 533.562C300.918 538.981 297.817 544.134 294.818 549.115C290.965 555.517 286.98 562.135 283.594 569.372C276.272 585.023 270.897 605.558 267.752 629.572C267.722 629.798 267.898 630 268.126 630C268.315 630 268.475 629.858 268.5 629.67C271.624 605.907 276.946 585.601 284.183 570.13C287.541 562.951 291.509 556.361 295.345 549.986C298.355 544.989 301.466 539.82 304.291 534.364C310.734 521.92 315.297 506.007 319.71 490.616C320.181 488.976 320.647 487.349 321.113 485.737C328.867 458.911 326.569 427.226 324.348 396.587C323.666 387.163 323.02 378.263 322.678 369.632L322.669 369.395C322.656 369.063 322.221 368.949 322.046 369.231C313.726 382.651 313.524 404.969 313.346 424.658C313.307 429.131 313.268 433.356 313.14 437.38C312.134 468.875 299.784 487.799 286.71 507.834C283.194 513.22 279.56 518.789 276.13 524.65C267.558 539.297 262.312 549.357 262.462 570.683C262.504 576.535 263.079 582.008 263.637 587.3C264.103 591.732 264.544 595.92 264.699 600.325Z" fill="white"/>
<path fill-rule="evenodd" clip-rule="evenodd" d="M270.658 570.674C270.642 549.166 275.823 538.107 285.387 525.224C293.771 513.933 302.544 501.015 309.904 483.104C316.52 467.009 316.901 453.991 317.428 435.974C317.483 434.056 317.541 432.083 317.608 430.042C317.649 428.814 317.672 427.613 317.695 426.435C317.769 422.662 320.839 422.661 321.132 426.424C323.047 450.985 317.207 480.744 303.693 515.152C299.848 524.943 295.578 533.535 291.447 541.846C283.264 558.313 275.534 573.868 272.119 596.369C271.501 600.444 270.606 604.516 269.74 608.453C268.66 613.364 267.544 618.443 266.938 623.622C266.703 625.635 266.514 627.627 266.344 629.593C266.325 629.812 266.497 630 266.717 630C266.912 630 267.074 629.851 267.091 629.657C267.257 627.743 267.442 625.806 267.67 623.856C268.264 618.772 269.37 613.74 270.44 608.875C271.312 604.908 272.214 600.805 272.842 596.67C276.216 574.438 283.894 558.987 292.023 542.63C296.166 534.293 300.45 525.672 304.318 515.824C320.773 473.93 325.926 438.788 319.635 411.374L319.619 411.303C319.544 410.98 319.098 410.946 318.975 411.253C317.158 415.795 317.057 420.945 316.95 426.396C316.928 427.565 316.904 428.756 316.864 429.976C316.796 432.018 316.739 433.993 316.683 435.914C316.162 453.731 315.786 466.602 309.289 482.411C301.982 500.189 293.257 513.034 284.917 524.268C275.173 537.391 269.896 548.674 269.913 570.677C269.929 592.601 268.171 609.818 264.036 628.183C263.999 628.344 264.069 628.511 264.209 628.598C264.436 628.739 264.734 628.614 264.792 628.353C268.918 609.941 270.674 592.652 270.658 570.674Z" fill="white"/>
</g>
</svg>
