<svg width="25" height="24" viewBox="0 0 25 24" fill="none" xmlns="http://www.w3.org/2000/svg">
<g clip-path="url(#clip0)">
<path d="M24.3391 4.29272C24.1207 2.24597 22.5042 0.62915 20.4573 0.410889C15.3241 -0.136963 10.1759 -0.136963 5.04291 0.410889C2.99597 0.629333 1.37933 2.24597 1.16089 4.29272C0.613037 9.42572 0.613037 14.5741 1.16089 19.7071C1.37933 21.754 2.99597 23.3707 5.04272 23.5891C10.1757 24.137 15.3241 24.137 20.4573 23.5891C22.5042 23.3707 24.1207 21.754 24.3391 19.7071C24.887 14.5741 24.887 9.4259 24.3391 4.29272Z" fill="url(#paint0_radial)"/>
<path d="M23.0337 5.1608C22.84 3.34457 21.4055 1.90994 19.5891 1.71603C15.0342 1.23007 10.4657 1.23007 5.9108 1.71603C4.09457 1.90994 2.65994 3.34457 2.46603 5.1608C1.98007 9.71573 1.98007 14.2842 2.46603 18.839C2.65994 20.6554 4.09457 22.09 5.9108 22.2837C10.4657 22.7699 15.0342 22.7699 19.589 22.2837C21.4054 22.09 22.84 20.6554 23.0337 18.839C23.5199 14.2842 23.5199 9.71573 23.0337 5.1608Z" fill="url(#paint1_linear)"/>
<path d="M1.10986 19.21C1.12634 19.3759 1.14337 19.5417 1.16113 19.7076C1.37958 21.7544 2.99622 23.371 5.04315 23.5895C10.1761 24.1373 15.3245 24.1373 20.4575 23.5895C22.5045 23.371 24.1209 21.7544 24.3394 19.7076C24.3571 19.5417 24.3741 19.3759 24.3908 19.21L1.10986 19.21Z" fill="url(#paint2_linear)"/>
<path d="M24.3393 19.7069C24.6337 16.9488 24.7696 14.1862 24.7476 11.4241L19.2618 5.93826C18.5764 5.15585 17.5754 4.66751 16.3991 4.62521C13.9801 4.53805 11.5534 4.54245 9.13403 4.62558C7.12463 4.69479 5.71948 6.04538 5.35913 8.03042C5.29559 8.38089 5.25751 8.73593 5.20752 9.08896V14.9084C5.23517 15.097 5.27582 15.2847 5.28845 15.4744C5.36902 16.6818 5.86523 17.716 6.65973 18.4156L12.2422 23.9979C14.9819 24.0172 17.7217 23.8809 20.4575 23.5889C22.5044 23.3704 24.1208 21.7538 24.3393 19.7069Z" fill="url(#paint3_linear)"/>
<path d="M24.3389 19.7075C24.1207 21.7541 22.5037 23.3711 20.4571 23.5894C17.7217 23.8812 14.9813 24.0176 12.2421 23.9984L6.66797 18.4243C7.31415 18.9899 8.15643 19.3343 9.13385 19.3712C11.5527 19.462 13.9799 19.4596 16.3987 19.3724C18.5865 19.2933 20.1696 17.6741 20.2379 15.4864C20.3108 13.1635 20.3108 10.8346 20.2379 8.51172C20.2068 7.50244 19.8525 6.61438 19.2651 5.94238L24.7474 11.4247C24.769 14.1865 24.6332 16.9494 24.3389 19.7075Z" fill="url(#paint4_linear)"/>
<path d="M15.5818 9.40106C14.879 8.63586 13.8707 8.15576 12.7499 8.15576C10.627 8.15576 8.90576 9.87695 8.90576 11.9999C8.90576 13.1207 9.38586 14.129 10.1511 14.8318L19.045 23.7258C19.5158 23.6848 19.9866 23.6392 20.457 23.589C22.5039 23.3705 24.1205 21.7539 24.339 19.707C24.3892 19.2366 24.4348 18.7658 24.4758 18.295L15.5818 9.40106Z" fill="url(#paint5_linear)"/>
<path d="M24.7033 14.5851L17.5453 7.42737C17.3784 7.20819 17.1152 7.06592 16.8184 7.06592C16.3134 7.06592 15.9038 7.47534 15.9038 7.98053C15.9038 8.27734 16.0461 8.54047 16.2653 8.70746L24.5753 17.0177C24.6317 16.2071 24.6744 15.3961 24.7033 14.5851Z" fill="url(#paint6_linear)"/>
<path d="M5.20752 9.08896C5.25751 8.73593 5.29559 8.38089 5.35913 8.03042C5.7193 6.04538 7.12463 4.69479 9.13403 4.62558C11.5534 4.54245 13.9801 4.53805 16.3991 4.62521C18.5861 4.70395 20.17 6.32333 20.2383 8.51108C20.311 10.8341 20.311 13.1629 20.2383 15.4859C20.17 17.6737 18.5867 19.2929 16.3993 19.3718C13.9803 19.4591 11.553 19.4613 9.13422 19.3705C6.94684 19.2883 5.43475 17.6653 5.28845 15.4742C5.27582 15.2847 5.23517 15.0968 5.20752 14.9082C5.20752 12.9684 5.20752 11.0286 5.20752 9.08896ZM12.7522 18.0752C13.8593 18.0752 14.9674 18.1084 16.073 18.0675C17.8065 18.0033 18.8727 16.9687 18.9131 15.2369C18.9633 13.079 18.9633 10.9182 18.9131 8.7601C18.8727 7.02865 17.8057 5.96994 16.073 5.93313C13.8737 5.88662 11.6721 5.88699 9.47278 5.93313C7.75323 5.96921 6.6839 7.0065 6.63721 8.7189C6.57788 10.9041 6.57788 13.0931 6.63721 15.2783C6.6839 16.9905 7.75323 18.0038 9.47296 18.0675C10.5646 18.1082 11.6591 18.0752 12.7522 18.0752Z" fill="url(#paint7_linear)"/>
<path d="M5.20752 9.08896C5.25751 8.73593 5.29559 8.38089 5.35913 8.03042C5.7193 6.04538 7.12463 4.69479 9.13403 4.62558C11.5534 4.54245 13.9801 4.53805 16.3991 4.62521C18.5861 4.70395 20.17 6.32333 20.2383 8.51108C20.311 10.8341 20.311 13.1629 20.2383 15.4859C20.17 17.6737 18.5867 19.2929 16.3993 19.3718C13.9803 19.4591 11.553 19.4613 9.13422 19.3705C6.94684 19.2883 5.43475 17.6653 5.28845 15.4742C5.27582 15.2847 5.23517 15.0968 5.20752 14.9082C5.20752 12.9684 5.20752 11.0286 5.20752 9.08896ZM12.7522 18.0752C13.8593 18.0752 14.9674 18.1084 16.073 18.0675C17.8065 18.0033 18.8727 16.9687 18.9131 15.2369C18.9633 13.079 18.9633 10.9182 18.9131 8.7601C18.8727 7.02865 17.8057 5.96994 16.073 5.93313C13.8737 5.88662 11.6721 5.88699 9.47278 5.93313C7.75323 5.96921 6.6839 7.0065 6.63721 8.7189C6.57788 10.9041 6.57788 13.0931 6.63721 15.2783C6.6839 16.9905 7.75323 18.0038 9.47296 18.0675C10.5646 18.1082 11.6591 18.0752 12.7522 18.0752Z" fill="white"/>
<path d="M12.7504 8.15576C10.6274 8.15576 8.90625 9.87677 8.90625 11.9997C8.90625 14.1228 10.6274 15.8438 12.7504 15.8438C14.8735 15.8438 16.5945 14.1228 16.5945 11.9997C16.5945 9.87677 14.8735 8.15576 12.7504 8.15576ZM12.7504 14.5203C11.3582 14.5203 10.2297 13.3918 10.2297 11.9997C10.2297 10.6075 11.3582 9.47906 12.7504 9.47906C14.1425 9.47906 15.271 10.6075 15.271 11.9997C15.271 13.3918 14.1425 14.5203 12.7504 14.5203Z" fill="white"/>
<path d="M17.7333 7.98053C17.7333 8.48553 17.3239 8.89496 16.8189 8.89496C16.3139 8.89496 15.9043 8.48553 15.9043 7.98053C15.9043 7.47534 16.3139 7.06592 16.8189 7.06592C17.3239 7.06592 17.7333 7.47534 17.7333 7.98053Z" fill="white"/>
</g>
<defs>
<radialGradient id="paint0_radial" cx="0" cy="0" r="1" gradientUnits="userSpaceOnUse" gradientTransform="translate(5.66986 20.9741) scale(26.4678)">
<stop stop-color="#FAE100"/>
<stop offset="0.0544" stop-color="#FADC04"/>
<stop offset="0.1167" stop-color="#FBCE0E"/>
<stop offset="0.1829" stop-color="#FCB720"/>
<stop offset="0.2514" stop-color="#FE9838"/>
<stop offset="0.3054" stop-color="#FF7950"/>
<stop offset="0.4922" stop-color="#FF1C74"/>
<stop offset="1" stop-color="#6C1CD1"/>
</radialGradient>
<linearGradient id="paint1_linear" x1="9.95494" y1="10.4278" x2="-30.7039" y2="-12.4428" gradientUnits="userSpaceOnUse">
<stop stop-color="#A1B5D8" stop-opacity="0"/>
<stop offset="0.3094" stop-color="#90A2BD" stop-opacity="0.309804"/>
<stop offset="0.7554" stop-color="#7C8B9C" stop-opacity="0.756863"/>
<stop offset="1" stop-color="#748290"/>
</linearGradient>
<linearGradient id="paint2_linear" x1="12.7503" y1="21.1863" x2="12.7503" y2="24.9273" gradientUnits="userSpaceOnUse">
<stop stop-color="#FAE100" stop-opacity="0"/>
<stop offset="0.3068" stop-color="#FCA800" stop-opacity="0.305882"/>
<stop offset="0.6275" stop-color="#FE7300" stop-opacity="0.627451"/>
<stop offset="0.8685" stop-color="#FF5200" stop-opacity="0.866667"/>
<stop offset="1" stop-color="#FF4500"/>
</linearGradient>
<linearGradient id="paint3_linear" x1="11.3848" y1="10.6005" x2="5.44522" y2="4.66085" gradientUnits="userSpaceOnUse">
<stop stop-color="#833AB4" stop-opacity="0"/>
<stop offset="1" stop-color="#833AB4"/>
</linearGradient>
<linearGradient id="paint4_linear" x1="17.1982" y1="21.9512" x2="14.2337" y2="7.97544" gradientUnits="userSpaceOnUse">
<stop stop-color="#833AB4" stop-opacity="0"/>
<stop offset="1" stop-color="#833AB4"/>
</linearGradient>
<linearGradient id="paint5_linear" x1="18.3264" y1="17.5764" x2="6.41899" y2="5.66898" gradientUnits="userSpaceOnUse">
<stop stop-color="#833AB4" stop-opacity="0"/>
<stop offset="1" stop-color="#833AB4"/>
</linearGradient>
<linearGradient id="paint6_linear" x1="19.2095" y1="10.3716" x2="15.272" y2="6.43405" gradientUnits="userSpaceOnUse">
<stop stop-color="#833AB4" stop-opacity="0"/>
<stop offset="1" stop-color="#833AB4"/>
</linearGradient>
<linearGradient id="paint7_linear" x1="17.5154" y1="7.26773" x2="7.80687" y2="16.9763" gradientUnits="userSpaceOnUse">
<stop stop-color="#833AB4"/>
<stop offset="0.0922" stop-color="#9C3495"/>
<stop offset="0.2927" stop-color="#DC2546"/>
<stop offset="0.392" stop-color="#FD1D1D"/>
<stop offset="0.5589" stop-color="#FC6831"/>
<stop offset="0.6887" stop-color="#FC9B40"/>
<stop offset="0.7521" stop-color="#FCAF45"/>
<stop offset="0.7806" stop-color="#FDB750"/>
<stop offset="0.8656" stop-color="#FECB6A"/>
<stop offset="0.9415" stop-color="#FFD87A"/>
<stop offset="1" stop-color="#FFDC80"/>
</linearGradient>
<clipPath id="clip0">
<rect width="24" height="24" fill="white" transform="translate(0.75)"/>
</clipPath>
</defs>
</svg>
