<svg width="246" height="226" viewBox="0 0 246 226" fill="none" xmlns="http://www.w3.org/2000/svg">
<path opacity="0.38" d="M241.155 168.378L162.025 168.378L104.325 226L0.000595093 226L0.000596905 205.272L42.0867 205.272L56.0914 219.258L102.415 219.258L160.66 161.09L225.944 161.09L241.155 168.378Z" fill="#646464"/>
<path opacity="0.38" d="M208.908 150.361L155.561 150.361L115.5 190.368L115.5 178.376L154.555 139.373L171.002 139.373L176.288 144.652L214.999 144.652L208.908 150.361Z" fill="#646464"/>
<path opacity="0.38" d="M0.000355087 -9.99495e-06L108.16 -5.39318e-07L145.248 37.0522L245.234 37.0522L233.442 47.2943L136.17 47.2943L116.534 27.6852L116.534 17.357L106.235 7.08626L0.000354467 7.08625L0.000355087 -9.99495e-06Z" fill="#646464"/>
<path opacity="0.38" d="M4.99687e-05 23.6399L66.7345 23.6399L110.401 67.2477L193.625 67.2477L189.273 71.5941L103.606 71.5941L82.032 50.0341L82.032 44.3823L65.2837 27.6564L4.96175e-05 27.6564L4.99687e-05 23.6399Z" fill="#646464"/>
<path opacity="0.38" d="M214.998 176.583L167.052 176.583L129.347 214.237L137.965 214.237L166.147 186.093L166.147 183.038L172.165 183.038L191.829 183.038L195.234 179.638L226.662 179.638L214.998 176.583Z" fill="#646464"/>
<path opacity="0.38" d="M0.000275865 151.91L83.0233 151.91L126.718 108.273L202.717 108.273L202.717 114.958L175.9 114.958L129.347 114.958L78.5274 165.709L48.5501 165.709L41.6985 158.867L0.000275256 158.867L0.000275865 151.91Z" fill="#646464"/>
<path opacity="0.38" d="M6.10352e-05 124.182L62.1955 124.182L94.2556 92.15L146.942 92.15L150.088 89.0086L89.8459 89.0086L61.0751 117.741L36.3406 117.741L32.2182 113.624L6.19581e-05 113.624L6.10352e-05 124.182Z" fill="#646464"/>
<path opacity="0.38" d="M0.000100414 54.4236L54.4104 54.4236L68.53 68.51L64.0198 68.51L52.4425 56.9482L36.0677 56.9482L30.1355 62.8726L9.9675e-05 62.8726L0.000100414 54.4236Z" fill="#646464"/>
</svg>
