<svg width="98" height="92" viewBox="0 0 98 92" fill="none" xmlns="http://www.w3.org/2000/svg">
<path opacity="0.38" d="M96.3699 68.0499L64.7479 68.0499L41.6901 91.0768L9.91821e-05 91.0768L9.99063e-05 82.7935L16.8185 82.7935L22.415 88.3826L40.9267 88.3826L64.2026 65.1378L90.2912 65.1378L96.3699 68.0499Z" fill="#646464"/>
<path opacity="0.38" d="M83.4835 60.0867L62.1649 60.0867L46.1559 76.0743L46.1559 71.282L61.7631 55.6957L68.3355 55.6957L70.4478 57.8052L85.9172 57.8052L83.4835 60.0867Z" fill="#646464"/>
<path opacity="0.38" d="M5.5058e-05 5.24677e-05L43.2227 5.62464e-05L58.0435 14.8068L98 14.8068L93.2874 18.8997L54.4158 18.8997L46.5691 11.0636L46.5691 6.93624L42.4535 2.83185L5.48105e-05 2.83185L5.5058e-05 5.24677e-05Z" fill="#646464"/>
<path opacity="0.38" d="M-0.000196689 9.44686L26.6681 9.44687L44.1179 26.8733L77.3757 26.8733L75.6365 28.6102L41.4028 28.6102L32.7812 19.9945L32.7812 17.7359L26.0883 11.0519L-0.000196829 11.0519L-0.000196689 9.44686Z" fill="#646464"/>
<path opacity="0.38" d="M85.9168 70.5658L66.7565 70.5658L51.6889 85.6133L55.1329 85.6133L66.3949 74.3664L66.3949 73.1454L68.8 73.1454L76.6581 73.1454L78.0185 71.7868L90.5778 71.7868L85.9168 70.5658Z" fill="#646464"/>
<path opacity="0.38" d="M0.000145441 60.7059L33.1776 60.7059L50.6389 43.268L81.0095 43.268L81.0095 45.9393L70.2928 45.9393L51.6893 45.9393L31.381 66.2205L19.4015 66.2205L16.6635 63.4861L0.000145198 63.4861L0.000145441 60.7059Z" fill="#646464"/>
<path opacity="0.38" d="M-0.000144958 49.6253L24.8543 49.6253L37.6661 36.8249L58.7206 36.8249L59.9777 35.5695L35.9039 35.5695L24.4066 47.0515L14.5222 47.0515L12.8748 45.4063L-0.00014459 45.4063L-0.000144958 49.6253Z" fill="#646464"/>
<path opacity="0.38" d="M6.72493e-05 21.7487L21.7434 21.7487L27.3859 27.3779L25.5835 27.3779L20.957 22.7576L14.4133 22.7576L12.0427 25.1251L6.69542e-05 25.1251L6.72493e-05 21.7487Z" fill="#646464"/>
</svg>
