<svg width="25" height="24" viewBox="0 0 25 24" fill="none" xmlns="http://www.w3.org/2000/svg">
<g clip-path="url(#clip0)">
<path d="M20.2073 23.5891C15.0743 24.137 9.92572 24.137 4.79272 23.5891C2.74597 23.3707 1.12933 21.754 0.910889 19.7071C0.363037 14.5741 0.363037 9.42572 0.910889 4.29272C1.12933 2.24597 2.74597 0.629333 4.79272 0.410889C9.92572 -0.136963 15.0741 -0.136963 20.2071 0.410889C22.254 0.629333 23.8707 2.24597 24.0891 4.29272C24.637 9.42572 24.637 14.5741 24.0891 19.7071C23.8707 21.754 22.2542 23.3707 20.2073 23.5891Z" fill="url(#paint0_linear)"/>
<path d="M22.7837 5.1608C22.59 3.34457 21.1555 1.90994 19.3391 1.71603C14.7842 1.23007 10.2157 1.23007 5.6608 1.71603C3.84457 1.90994 2.40994 3.34457 2.21603 5.1608C1.73007 9.71573 1.73007 14.2842 2.21603 18.839C2.40994 20.6554 3.84457 22.09 5.6608 22.2837C10.2157 22.7699 14.7842 22.7699 19.339 22.2837C21.1554 22.09 22.59 20.6554 22.7837 18.839C23.2699 14.2842 23.2699 9.71573 22.7837 5.1608Z" fill="url(#paint1_linear)"/>
<path d="M0.859863 19.21C0.876343 19.3759 0.893372 19.5417 0.911133 19.7076C1.12958 21.7544 2.74622 23.371 4.79315 23.5895C9.92615 24.1373 15.0745 24.1373 20.2075 23.5895C22.2545 23.371 23.8709 21.7544 24.0894 19.7076C24.1071 19.5417 24.1241 19.3759 24.1408 19.21L0.859863 19.21Z" fill="url(#paint2_linear)"/>
<path d="M23.8304 20.7922L8.34265 5.3042C7.99676 4.85284 7.45258 4.56152 6.84009 4.56152C5.79529 4.56152 4.94824 5.40839 4.94824 6.45319C4.94824 7.06586 5.23975 7.61005 5.6911 7.95575L21.1251 23.3899C22.3726 22.9748 23.3668 22.0162 23.8304 20.7922Z" fill="url(#paint3_linear)"/>
<path d="M8.42914 9.58594H5.25098L5.25098 19.4381L9.7605 23.9476C13.2435 24.0795 16.7289 23.9603 20.2072 23.5889C20.8153 23.5241 21.385 23.335 21.8918 23.0486L8.42914 9.58594Z" fill="url(#paint4_linear)"/>
<path d="M19.2224 10.4113C18.6411 9.77393 17.8041 9.37402 16.8737 9.37402C15.4021 9.37402 14.4523 9.89093 13.8871 10.3709L13.2643 9.58606H10.3359L10.3359 19.4382L14.859 23.9613C16.6428 23.9033 18.4259 23.7791 20.2073 23.5891C22.2543 23.3706 23.8707 21.754 24.0892 19.7072C24.2353 18.3387 24.342 16.9691 24.4102 15.5991L19.2224 10.4113Z" fill="url(#paint5_linear)"/>
<path d="M5.25146 9.58594H8.42944V19.4381H5.25146L5.25146 9.58594Z" fill="white"/>
<path d="M16.8737 9.37402C14.5448 9.37402 13.5218 10.6684 13.2643 11.0624V9.58606H10.3359L10.3359 19.4382H13.5141V14.4894C13.5141 13.0594 14.1724 11.947 15.421 11.947C16.6694 11.947 16.8737 13.3317 16.8737 15.0344V19.4382H20.0519V12.5522C20.0519 10.7969 18.629 9.37402 16.8737 9.37402Z" fill="white"/>
<path d="M8.73175 6.45337C8.73175 7.49817 7.88489 8.34503 6.84009 8.34503C5.79529 8.34503 4.94824 7.49817 4.94824 6.45337C4.94824 5.40857 5.79529 4.56152 6.84009 4.56152C7.88489 4.56152 8.73175 5.40857 8.73175 6.45337Z" fill="white"/>
</g>
<defs>
<linearGradient id="paint0_linear" x1="8.46847" y1="3.37435" x2="14.5388" y2="16.3619" gradientUnits="userSpaceOnUse">
<stop stop-color="#0077B5"/>
<stop offset="1" stop-color="#0066B2"/>
</linearGradient>
<linearGradient id="paint1_linear" x1="17.5757" y1="14.7228" x2="-17.2931" y2="-3.98217" gradientUnits="userSpaceOnUse">
<stop stop-color="#0066B2" stop-opacity="0"/>
<stop offset="1" stop-color="#07485E"/>
</linearGradient>
<linearGradient id="paint2_linear" x1="12.5003" y1="19.4922" x2="12.5003" y2="24.5082" gradientUnits="userSpaceOnUse">
<stop stop-color="#0066B2" stop-opacity="0"/>
<stop offset="1" stop-color="#07485E"/>
</linearGradient>
<linearGradient id="paint3_linear" x1="13.2198" y1="12.833" x2="4.24616" y2="3.85942" gradientUnits="userSpaceOnUse">
<stop stop-color="#0066B2" stop-opacity="0"/>
<stop offset="1" stop-color="#07485E"/>
</linearGradient>
<linearGradient id="paint4_linear" x1="18.4884" y1="21.17" x2="0.417785" y2="12.6994" gradientUnits="userSpaceOnUse">
<stop stop-color="#0066B2" stop-opacity="0"/>
<stop offset="1" stop-color="#07485E"/>
</linearGradient>
<linearGradient id="paint5_linear" x1="22.8843" y1="23.0275" x2="10.2955" y2="10.4387" gradientUnits="userSpaceOnUse">
<stop stop-color="#0066B2" stop-opacity="0"/>
<stop offset="1" stop-color="#07485E"/>
</linearGradient>
<clipPath id="clip0">
<rect width="24" height="24" fill="white" transform="translate(0.5)"/>
</clipPath>
</defs>
</svg>
