<svg width="222" height="76" viewBox="0 0 222 76" fill="none" xmlns="http://www.w3.org/2000/svg">
<path fill-rule="evenodd" clip-rule="evenodd" d="M45.0343 40.7604C45.082 40.8999 45.3683 41.0307 45.659 41.4012C45.3683 41.035 45.082 40.8999 45.0343 40.7604ZM45.0256 40.743C45.0256 40.7474 45.0299 40.7561 45.0299 40.7604C45.0299 40.7561 45.0299 40.7474 45.0256 40.743ZM45.0256 40.7212C45.0256 40.7256 45.0256 40.7343 45.0256 40.7386C45.0256 40.7343 45.0256 40.7256 45.0256 40.7212ZM45.0256 40.7038C45.0256 40.7081 45.0256 40.7125 45.0256 40.7169C45.0256 40.7125 45.0256 40.7081 45.0256 40.7038ZM45.0299 40.682C45.0299 40.6863 45.0256 40.6951 45.0256 40.6994C45.0256 40.6951 45.0299 40.6863 45.0299 40.682ZM45.0386 40.6602C45.0343 40.6645 45.0343 40.6733 45.0343 40.6776C45.0343 40.6689 45.0343 40.6645 45.0386 40.6602ZM45.0646 40.6166C45.0603 40.621 45.0559 40.6297 45.0516 40.634C45.0559 40.6297 45.0603 40.621 45.0646 40.6166ZM43.0471 42.674C43.0211 42.6783 42.9994 42.687 42.9734 42.6914L43.0471 42.674ZM44.0233 42.5781C43.993 42.5781 43.9626 42.5781 43.9322 42.5781C43.9669 42.5781 43.993 42.5781 44.0233 42.5781ZM11.1883 61.0681L11.1927 61.0724L11.1883 61.0681ZM31.2156 29.7545L30.4303 28.9961L31.2156 29.7545ZM4.00783 47.6168L10.6677 60.0961C9.81731 58.1172 9.91276 55.6762 10.3423 52.1718C11.2925 44.4829 13.9434 42.687 14.1603 41.8589C13.7698 43.6939 12.9672 45.3808 13.106 47.6561C16.7288 39.3264 19.2669 40.6602 19.8006 37.3867L21.1586 32.9538C21.6966 32.1867 21.3668 32.7839 22.035 33.9389C22.6381 34.9763 22.4775 34.6756 23.137 35.4863C22.8897 31.5111 22.3344 28.7171 25.0721 26.3328L24.6946 30.9619C27.2457 30.6132 26.3476 29.8983 29.7448 30.4998C29.3413 29.3317 28.4345 28.5776 27.6926 27.8976L30.2307 28.7868C33.0161 29.2619 32.7168 30.8442 34.1789 31.8816C34.8991 32.3872 35.2506 34.3748 33.2374 35.8568C33.5541 36.1968 33.4023 36.066 33.8405 36.3886C35.1768 37.3737 38.3093 38.4808 40.483 40.9261L39.3419 38.8295C40.1142 39.0649 41.0253 39.6402 41.6674 40.2853C42.2749 40.8956 42.1924 41.2181 42.9604 41.5276L44.2446 41.654C44.6828 40.9871 44.6611 41.1048 44.2446 39.5095C45.1557 39.5966 45.4594 39.601 45.5245 39.6228L37.9145 30.5696C37.9839 30.6655 38.0447 30.7614 38.1011 30.8486C36.3699 29.5758 31.7015 26.6903 30.7687 25.1821L30.0875 26.6859C27.6666 21.1284 22.5817 26.3634 21.1022 27.7189L21.792 25.9972C19.8917 26.821 18.525 27.7189 16.9978 28.9089C15.6311 29.9768 14.1082 31.9993 12.9455 32.6792C11.774 33.3636 8.87582 34.2179 7.36162 34.9415L2.60645 38.1452C5.9906 37.4129 11.3402 34.9153 14.6679 34.9458C8.25973 39.3482 7.87358 40.6994 4.00783 47.6168Z" fill="black"/>
<path d="M45.0343 40.7604C45.082 40.8999 45.3683 41.0307 45.659 41.4012C45.3683 41.035 45.082 40.8999 45.0343 40.7604ZM45.0256 40.743C45.0256 40.7474 45.0299 40.7561 45.0299 40.7604C45.0299 40.7561 45.0299 40.7474 45.0256 40.743ZM45.0256 40.7212C45.0256 40.7256 45.0256 40.7343 45.0256 40.7386C45.0256 40.7343 45.0256 40.7256 45.0256 40.7212ZM45.0256 40.7038C45.0256 40.7081 45.0256 40.7125 45.0256 40.7169C45.0256 40.7125 45.0256 40.7081 45.0256 40.7038ZM45.0299 40.682C45.0299 40.6863 45.0256 40.6951 45.0256 40.6994C45.0256 40.6951 45.0299 40.6863 45.0299 40.682ZM45.0386 40.6602C45.0343 40.6645 45.0343 40.6733 45.0343 40.6776C45.0343 40.6689 45.0343 40.6645 45.0386 40.6602ZM45.0646 40.6166C45.0603 40.621 45.0559 40.6297 45.0516 40.634C45.0559 40.6297 45.0603 40.621 45.0646 40.6166ZM43.0471 42.674C43.0211 42.6783 42.9994 42.687 42.9734 42.6914L43.0471 42.674ZM44.0233 42.5781C43.993 42.5781 43.9626 42.5781 43.9322 42.5781C43.9669 42.5781 43.993 42.5781 44.0233 42.5781ZM11.1883 61.0681L11.1927 61.0724L11.1883 61.0681ZM31.2156 29.7545L30.4303 28.9961L31.2156 29.7545ZM4.00783 47.6168L10.6677 60.096C9.81731 58.1172 9.91276 55.6762 10.3423 52.1718C11.2925 44.4829 13.9434 42.687 14.1603 41.8589C13.7698 43.6939 12.9672 45.3808 13.106 47.6561C16.7288 39.3264 19.2669 40.6602 19.8006 37.3867L21.1586 32.9538C21.6966 32.1867 21.3668 32.7839 22.035 33.9389C22.6381 34.9763 22.4775 34.6756 23.137 35.4863C22.8897 31.5111 22.3344 28.7171 25.0721 26.3328L24.6946 30.9619C27.2457 30.6132 26.3476 29.8983 29.7448 30.4998C29.3413 29.3317 28.4345 28.5776 27.6926 27.8976L30.2307 28.7868C33.0161 29.2619 32.7168 30.8442 34.1789 31.8816C34.8991 32.3872 35.2506 34.3748 33.2374 35.8568C33.5541 36.1968 33.4023 36.066 33.8405 36.3886C35.1768 37.3737 38.3093 38.4808 40.483 40.9261L39.3419 38.8295C40.1142 39.0649 41.0253 39.6402 41.6674 40.2853C42.2749 40.8956 42.1924 41.2181 42.9604 41.5276L44.2446 41.654C44.6828 40.9871 44.6611 41.1048 44.2446 39.5095C45.1557 39.5966 45.4594 39.601 45.5245 39.6228L37.9145 30.5696C37.9839 30.6655 38.0447 30.7614 38.1011 30.8486C36.3699 29.5758 31.7015 26.6903 30.7687 25.1821L30.0875 26.6859C27.6666 21.1284 22.5817 26.3634 21.1022 27.7189L21.792 25.9972C19.8917 26.821 18.525 27.7189 16.9978 28.9089C15.6311 29.9768 14.1082 31.9993 12.9455 32.6792C11.774 33.3636 8.87582 34.2179 7.36162 34.9415L2.60645 38.1452C5.9906 37.4129 11.3402 34.9153 14.6679 34.9458C8.25973 39.3482 7.87358 40.6994 4.00783 47.6168Z" stroke="black" stroke-width="0.216" stroke-miterlimit="22.9256"/>
<path fill-rule="evenodd" clip-rule="evenodd" d="M13.4357 63.3531C12.9627 58.4364 13.2144 49.1173 16.1951 46.2187C15.5269 52.5738 15.4054 52.8441 17.0107 58.7851C17.3925 57.4121 16.976 55.2632 17.1322 53.6156C17.6832 47.8402 19.7614 44.4795 22.7421 40.2166C21.8483 37.3921 21.1281 36.3417 21.1628 32.9549L19.8048 37.3878C19.2712 40.6612 16.733 39.3275 13.1103 47.6571C12.9714 45.3818 13.7741 43.695 14.1646 41.8599C13.9476 42.6881 11.2967 44.4839 10.3465 52.1728C9.648 57.8175 9.82589 60.7117 13.4357 63.3531Z" fill="black"/>
<path d="M13.4357 63.3531C12.9627 58.4364 13.2144 49.1173 16.1951 46.2187C15.5269 52.5738 15.4054 52.8441 17.0107 58.7851C17.3925 57.4121 16.976 55.2632 17.1322 53.6156C17.6832 47.8402 19.7614 44.4795 22.7421 40.2166C21.8483 37.3921 21.1281 36.3417 21.1628 32.9549L19.8048 37.3878C19.2712 40.6612 16.733 39.3275 13.1103 47.6571C12.9714 45.3818 13.7741 43.695 14.1646 41.8599C13.9476 42.6881 11.2967 44.4839 10.3465 52.1728C9.648 57.8175 9.82589 60.7117 13.4357 63.3531Z" stroke="black" stroke-width="0.216" stroke-miterlimit="22.9256"/>
<path fill-rule="evenodd" clip-rule="evenodd" d="M45.5461 40.2427C44.9343 39.4146 46.57 39.724 44.2531 39.5061C44.6697 41.1014 44.687 40.9837 44.2531 41.6506L42.9689 41.5242C42.201 41.2104 42.2834 40.8922 41.676 40.282C41.0339 39.6369 40.1227 39.0615 39.3504 38.8261L40.4915 40.9227C38.3092 38.4862 35.1767 37.3747 33.8403 36.3896C33.4021 36.067 33.554 36.1978 33.2373 35.8578C35.2504 34.3758 34.899 32.3882 34.1788 31.8826C32.7166 30.8495 33.016 29.2673 30.2306 28.7878C30.2913 28.8619 30.3954 28.8663 30.4301 28.9927L31.2154 29.7511C31.7101 30.235 31.8272 30.296 32.222 30.9062C33.055 32.2008 33.3414 33.9051 31.6233 34.6984C30.0267 35.435 27.853 34.585 26.5601 33.8266C27.3106 39.4451 33.7232 39.3884 34.8252 39.6674C36.6735 40.1381 37.8015 40.914 37.897 40.9881L33.6234 41.5983C34.6517 42.2173 35.8752 42.4788 36.9165 42.9539C38.1183 43.5031 39.0988 44.2441 39.9796 44.7323C41.1553 43.9085 41.9146 42.5355 44.0275 42.5747C43.3897 42.8493 43.0166 43.4639 42.6956 44.4969L46.34 43.9652C46.327 40.2863 44.0232 41.2235 45.5461 40.2427Z" fill="black"/>
<path d="M45.5461 40.2427C44.9343 39.4146 46.57 39.724 44.2531 39.5061C44.6697 41.1014 44.687 40.9837 44.2531 41.6506L42.9689 41.5242C42.201 41.2104 42.2834 40.8922 41.676 40.282C41.0339 39.6369 40.1227 39.0615 39.3504 38.8261L40.4915 40.9227C38.3092 38.4862 35.1766 37.3747 33.8403 36.3896C33.4021 36.067 33.554 36.1978 33.2373 35.8578C35.2504 34.3758 34.899 32.3882 34.1788 31.8826C32.7166 30.8495 33.016 29.2673 30.2306 28.7878C30.2913 28.8619 30.3954 28.8663 30.4301 28.9927L31.2154 29.7511C31.7101 30.235 31.8272 30.296 32.222 30.9062C33.055 32.2008 33.3414 33.9051 31.6233 34.6984C30.0267 35.435 27.853 34.585 26.5601 33.8266C27.3106 39.4451 33.7232 39.3884 34.8252 39.6674C36.6735 40.1381 37.8015 40.914 37.897 40.9881L33.6234 41.5983C34.6517 42.2173 35.8752 42.4788 36.9165 42.9539C38.1183 43.5031 39.0988 44.2441 39.9796 44.7323C41.1553 43.9085 41.9146 42.5355 44.0275 42.5747C43.3897 42.8493 43.0166 43.4639 42.6956 44.4969L46.34 43.9652C46.327 40.2863 44.0232 41.2235 45.5461 40.2427Z" stroke="black" stroke-width="0.216" stroke-miterlimit="22.9256"/>
<path fill-rule="evenodd" clip-rule="evenodd" d="M20.989 21.1852L20.6245 19.3545C16.2642 19.324 13.0015 20.4529 9.49151 22.4361C8.97087 22.7325 8.63246 22.9287 8.17256 23.2425C7.10091 23.9704 7.45234 23.5171 6.77551 24.5066C9.31363 23.8833 11.4613 22.7761 14.3508 22.8241C8.96219 25.0558 4.80141 27.7626 1.7817 31.1101C0.58857 32.4308 0.579892 32.5878 0.853228 34.8587C1.29577 38.5811 2.44552 44.5875 4.00744 47.6169C7.87319 40.6995 8.25933 39.3483 14.6632 34.9459C11.3398 34.9154 5.98587 37.4129 2.60171 38.1452L7.35255 34.9415C8.86674 34.218 11.765 33.3636 12.9364 32.6793C14.0992 31.9993 15.622 29.9768 16.9887 28.9089C18.5159 27.719 19.8826 26.8167 21.783 25.9973L21.0931 27.719C22.5726 26.3634 27.6575 21.1241 30.0785 26.686L30.7597 25.1822C31.6925 26.6903 36.3609 29.5758 38.0963 30.8486C37.1332 29.3012 34.2826 26.529 32.4864 25.374C33.1112 22.8633 34.608 20.5488 32.5211 18.0948L28.9678 22.2051C27.3798 21.1459 26.7941 21.3726 25.0022 20.588L24.8721 16.7087C22.6594 16.8917 21.783 19.3457 20.989 21.1852Z" fill="black"/>
<path d="M20.989 21.1852L20.6245 19.3545C16.2642 19.324 13.0015 20.4529 9.49151 22.4361C8.97087 22.7325 8.63246 22.9287 8.17256 23.2425C7.10091 23.9704 7.45234 23.5171 6.77551 24.5066C9.31363 23.8833 11.4613 22.7761 14.3508 22.8241C8.96219 25.0558 4.80141 27.7626 1.7817 31.1101C0.58857 32.4308 0.579892 32.5878 0.853228 34.8587C1.29577 38.5811 2.44552 44.5875 4.00744 47.6169C7.87319 40.6995 8.25933 39.3483 14.6632 34.9459C11.3398 34.9154 5.98587 37.4129 2.60171 38.1452L7.35255 34.9415C8.86674 34.218 11.765 33.3636 12.9364 32.6793C14.0992 31.9993 15.622 29.9768 16.9887 28.9089C18.5159 27.719 19.8826 26.8167 21.783 25.9973L21.0931 27.719C22.5726 26.3634 27.6575 21.1241 30.0785 26.686L30.7597 25.1822C31.6925 26.6903 36.3609 29.5758 38.0963 30.8486C37.1332 29.3012 34.2826 26.529 32.4864 25.374C33.1112 22.8633 34.608 20.5488 32.5211 18.0948L28.9678 22.2051C27.3798 21.1459 26.7941 21.3726 25.0022 20.588L24.8721 16.7087C22.6594 16.8917 21.783 19.3457 20.989 21.1852Z" stroke="black" stroke-width="0.216" stroke-miterlimit="22.9256"/>
<path fill-rule="evenodd" clip-rule="evenodd" d="M26.7941 5.99945L21.8784 6.04304C22.8676 7.26786 24.3775 7.86938 25.6921 9.16394L24.3081 13.8278C25.857 13.1697 26.933 11.9884 28.2563 11.2169C29.5492 11.6223 31.1458 13.0999 32.4821 13.854L31.0807 9.19009C32.391 7.8563 33.7794 7.26786 34.9552 6.06484L29.957 6.02125L28.4732 1.2876L26.7941 5.99945Z" fill="black"/>
<path d="M26.7941 5.99945L21.8784 6.04304C22.8676 7.26786 24.3775 7.86938 25.6921 9.16394L24.3081 13.8278C25.857 13.1697 26.933 11.9884 28.2563 11.2169C29.5492 11.6223 31.1458 13.0999 32.4821 13.854L31.0807 9.19009C32.391 7.8563 33.7794 7.26786 34.9552 6.06484L29.957 6.02125L28.4732 1.2876L26.7941 5.99945Z" stroke="black" stroke-width="0.216" stroke-miterlimit="22.9256"/>
<path fill-rule="evenodd" clip-rule="evenodd" d="M14.3684 9.43404L11.2793 9.51686C12.1774 10.5848 12.7544 10.563 13.6439 11.6657L12.8499 14.4815L15.4661 12.8862C16.5161 13.418 16.9716 14.0064 18.0476 14.4685L17.3491 11.6614L19.7657 9.57788L16.6072 9.42968L15.618 6.62262L14.3684 9.43404Z" fill="black"/>
<path d="M14.3684 9.43404L11.2793 9.51686C12.1774 10.5848 12.7544 10.563 13.6439 11.6657L12.8499 14.4815L15.4661 12.8862C16.5161 13.418 16.9716 14.0064 18.0476 14.4685L17.3491 11.6614L19.7657 9.57788L16.6072 9.42968L15.618 6.62262L14.3684 9.43404Z" stroke="black" stroke-width="0.216" stroke-miterlimit="22.9256"/>
<path fill-rule="evenodd" clip-rule="evenodd" d="M40.2659 9.41307L37.1421 9.49153L39.511 11.4225L38.6606 14.5172L41.3593 12.8565C42.47 13.5408 42.9472 14.0029 43.9408 14.5041L43.1598 11.6709C44.2315 10.3764 44.5569 10.5725 45.5678 9.6005L42.4786 9.41307L41.4851 6.57114L40.2659 9.41307Z" fill="black"/>
<path d="M40.2659 9.41307L37.1421 9.49153L39.511 11.4225L38.6606 14.5172L41.3593 12.8565C42.47 13.5408 42.9472 14.0029 43.9408 14.5041L43.1598 11.6709C44.2315 10.3764 44.5569 10.5725 45.5678 9.6005L42.4786 9.41307L41.4851 6.57114L40.2659 9.41307Z" stroke="black" stroke-width="0.216" stroke-miterlimit="22.9256"/>
<path fill-rule="evenodd" clip-rule="evenodd" d="M51.2427 13.7189L48.7002 13.7887L49.7241 14.7302C50.2491 15.1791 50.2578 15.1922 50.5919 15.5845L50.0105 17.9818L52.0366 16.5957L54.1843 17.8641L53.6333 15.1748L55.5813 13.902C51.8674 13.7538 53.4771 13.9935 52.1494 11.4L51.2427 13.7189Z" fill="black"/>
<path d="M51.2427 13.7189L48.7002 13.7887L49.7241 14.7302C50.2491 15.1791 50.2578 15.1922 50.5919 15.5845L50.0105 17.9818L52.0366 16.5957L54.1843 17.8641L53.6333 15.1748L55.5813 13.902C51.8674 13.7538 53.4771 13.9935 52.1494 11.4L51.2427 13.7189Z" stroke="black" stroke-width="0.216" stroke-miterlimit="22.9256"/>
<path fill-rule="evenodd" clip-rule="evenodd" d="M3.76471 13.7797L1.30469 13.8189L3.09222 15.2748L2.60195 17.8377L4.77562 16.5911C5.78219 17.1534 5.92537 17.4978 6.81045 17.9729L6.15098 15.2573L8.13375 13.7928L5.5479 13.7361L4.76694 11.3737L3.76471 13.7797Z" fill="black"/>
<path d="M3.76471 13.7797L1.30469 13.8189L3.09222 15.2748L2.60195 17.8377L4.77562 16.5911C5.78219 17.1534 5.92537 17.4978 6.81045 17.9729L6.15098 15.2573L8.13375 13.7928L5.5479 13.7361L4.76694 11.3737L3.76471 13.7797Z" stroke="black" stroke-width="0.216" stroke-miterlimit="22.9256"/>
<path fill-rule="evenodd" clip-rule="evenodd" d="M21.1628 32.9587C21.1237 36.3455 21.8439 37.3959 22.742 40.2204C19.7614 44.4833 17.6832 47.844 17.1365 53.6194C16.9803 55.267 17.3968 57.4159 17.015 58.7889C15.4097 52.8435 15.5312 52.5776 16.1993 46.2225C13.2187 49.1211 12.9627 58.4402 13.4399 63.3569C14.2036 65.5494 21.115 71.1461 23.5013 72.8547C25.9744 74.6244 27.8313 76.1413 29.3715 75.3044C34.9163 72.3055 41.3723 66.6391 45.0384 61.7267C47.2208 58.802 51.0562 53.6717 52.0063 49.618C46.0103 57.1587 39.3071 63.0562 28.8465 67.9598L27.5666 64.4989C27.3193 63.3308 27.2195 63.1172 26.764 62.0711C24.0914 55.9382 22.0305 53.1878 26.0047 46.5538C29.8097 46.9548 25.957 48.0837 35.0205 47.7699C41.8148 47.5345 38.7734 53.1704 46.3357 49.8316C47.5202 49.3085 48.3141 48.428 48.6265 46.7935C49.3815 42.8749 46.2099 41.0442 45.5374 40.2509C44.0145 41.2317 46.3184 40.2945 46.3314 43.9777L42.6869 44.5095C43.0079 43.4765 43.3811 42.8619 44.0189 42.5873C41.9103 42.548 41.1467 43.921 39.9709 44.7449C39.0858 44.2567 38.1053 43.5157 36.9078 42.9665C35.8665 42.4914 34.6473 42.2342 33.6147 41.6109L37.8883 41.0007C37.7929 40.9266 36.6692 40.1507 34.8165 39.6799C33.7145 39.3966 27.2976 39.4576 26.5514 33.8392C27.8443 34.5976 30.018 35.4476 31.6146 34.7109C33.3327 33.922 33.0507 32.2133 32.2134 30.9188C31.8185 30.3042 31.7014 30.2475 31.2068 29.7637L30.4215 29.0053C30.3911 28.8788 30.2826 28.8745 30.2219 28.8004L27.6838 27.9112C28.4257 28.5912 29.3325 29.3452 29.736 30.5134C26.3388 29.9075 27.2369 30.6267 24.6858 30.9754L25.0632 26.3464C22.3255 28.7307 22.8809 31.529 23.1282 35.4999C22.4644 34.6891 22.6249 34.9855 22.0262 33.9525C21.3667 32.7887 21.7008 32.1915 21.1628 32.9587Z" fill="black"/>
<path d="M21.1628 32.9587C21.1237 36.3455 21.8439 37.3959 22.742 40.2204C19.7614 44.4833 17.6832 47.844 17.1365 53.6194C16.9803 55.267 17.3968 57.4159 17.015 58.7889C15.4097 52.8435 15.5312 52.5776 16.1993 46.2225C13.2187 49.1211 12.9627 58.4402 13.4399 63.3569C14.2036 65.5494 21.115 71.1461 23.5013 72.8547C25.9744 74.6244 27.8313 76.1413 29.3715 75.3044C34.9163 72.3055 41.3723 66.6391 45.0384 61.7267C47.2208 58.802 51.0562 53.6717 52.0063 49.618C46.0103 57.1587 39.3071 63.0562 28.8465 67.9598L27.5666 64.4989C27.3193 63.3308 27.2195 63.1172 26.764 62.0711C24.0914 55.9382 22.0305 53.1878 26.0047 46.5538C29.8097 46.9548 25.957 48.0837 35.0205 47.7699C41.8148 47.5345 38.7734 53.1704 46.3357 49.8316C47.5202 49.3085 48.3141 48.428 48.6265 46.7935C49.3815 42.8749 46.2099 41.0442 45.5374 40.2509C44.0145 41.2317 46.3184 40.2945 46.3314 43.9777L42.6869 44.5095C43.0079 43.4765 43.3811 42.8619 44.0189 42.5873C41.9103 42.548 41.1467 43.921 39.9709 44.7449C39.0858 44.2567 38.1053 43.5157 36.9078 42.9665C35.8665 42.4914 34.6473 42.2342 33.6147 41.6109L37.8883 41.0007C37.7929 40.9266 36.6692 40.1507 34.8165 39.6799C33.7145 39.3966 27.2976 39.4576 26.5514 33.8392C27.8443 34.5976 30.018 35.4476 31.6146 34.7109C33.3327 33.922 33.0507 32.2133 32.2134 30.9188C31.8185 30.3042 31.7014 30.2475 31.2068 29.7637L30.4215 29.0053C30.3911 28.8788 30.2826 28.8745 30.2219 28.8004L27.6838 27.9112C28.4257 28.5912 29.3325 29.3452 29.736 30.5134C26.3388 29.9075 27.2369 30.6267 24.6858 30.9754L25.0632 26.3464C22.3255 28.7307 22.8809 31.529 23.1282 35.4999C22.4644 34.6891 22.6249 34.9855 22.0262 33.9525C21.3667 32.7887 21.7008 32.1915 21.1628 32.9587Z" stroke="black" stroke-width="0.216" stroke-miterlimit="22.9256"/>
<path fill-rule="evenodd" clip-rule="evenodd" d="M44.3267 40.4772C44.3745 40.6167 44.6608 40.7475 44.9515 41.118C44.6608 40.7475 44.3788 40.6167 44.3267 40.4772ZM44.3224 40.4554C44.3224 40.4598 44.3267 40.4685 44.3267 40.4729C44.3267 40.4685 44.3224 40.4641 44.3224 40.4554ZM44.3181 40.4336C44.3181 40.438 44.3181 40.4467 44.3181 40.4511C44.3224 40.4467 44.3181 40.4423 44.3181 40.4336ZM44.3224 40.4162C44.3224 40.4205 44.3224 40.4249 44.3224 40.4293C44.3181 40.4293 44.3181 40.4205 44.3224 40.4162ZM44.3267 40.3944C44.3267 40.3988 44.3224 40.4075 44.3224 40.4118C44.3224 40.4075 44.3224 40.4031 44.3267 40.3944ZM44.3311 40.3726C44.3267 40.377 44.3267 40.3857 44.3267 40.39C44.3267 40.3857 44.3311 40.3813 44.3311 40.3726ZM44.3614 40.329C44.3571 40.3334 44.3528 40.3421 44.3484 40.3464C44.3528 40.3421 44.3571 40.3377 44.3614 40.329ZM42.344 42.3864C42.3179 42.3907 42.2962 42.3994 42.2702 42.4038L42.344 42.3864ZM43.3202 42.2905C43.2898 42.2905 43.2594 42.2905 43.2291 42.2905C43.2594 42.2905 43.2898 42.2905 43.3202 42.2905ZM10.4808 60.7805L10.4851 60.7848L10.4808 60.7805ZM30.5124 29.4669L29.7271 28.7085L30.5124 29.4669ZM3.30465 47.3292L9.96451 59.8085C9.11413 57.8296 9.20958 55.3887 9.63911 51.8842C10.5893 44.1953 13.2402 42.3994 13.4571 41.5713C13.0667 43.4063 12.264 45.0932 12.4028 47.3685C16.0256 39.0388 18.5637 40.3726 19.0974 37.0991L20.4554 32.6663C20.9934 31.8991 20.6637 32.4963 21.3318 33.6513C21.9349 34.6887 21.7744 34.388 22.4338 35.1987C22.1865 31.2235 21.6312 28.4295 24.3689 26.0452L23.9914 30.6699C26.5425 30.3212 25.6444 29.6064 29.0416 30.2079C28.6381 29.0397 27.7313 28.2857 26.9894 27.6057L29.5275 28.4949C32.313 28.97 32.0136 30.5522 33.4757 31.5896C34.1916 32.0953 34.5474 34.0829 32.5342 35.5649C32.851 35.9048 32.6991 35.7741 33.1373 36.0966C34.4736 37.0817 37.6061 38.1888 39.7798 40.6341L38.6387 38.5376C39.411 38.7729 40.3221 39.3483 40.9643 39.9934C41.5717 40.6036 41.4892 40.9262 42.2572 41.2356L43.5414 41.362C43.9796 40.6952 43.9579 40.8128 43.5414 39.2175C44.4526 39.3047 44.7563 39.3091 44.8213 39.3309L37.207 30.282C37.2764 30.3779 37.3371 30.4738 37.3935 30.561C35.6624 29.2882 30.994 26.4027 30.0612 24.8945L29.38 26.3983C26.9634 20.8408 21.8741 26.0758 20.3947 27.4313L21.0845 25.7096C19.1842 26.5334 17.8175 27.4313 16.2903 28.6213C14.9236 29.6892 13.4007 31.7117 12.238 32.3916C11.0665 33.076 8.1683 33.9303 6.6541 34.6539L1.89893 37.8576C5.28309 37.1253 10.6327 34.6277 13.9604 34.6582C7.55655 39.0606 7.1704 40.4118 3.30465 47.3292Z" fill="black"/>
<path d="M44.3267 40.4772C44.3745 40.6167 44.6608 40.7475 44.9515 41.118C44.6608 40.7475 44.3788 40.6167 44.3267 40.4772ZM44.3224 40.4554C44.3224 40.4598 44.3267 40.4685 44.3267 40.4729C44.3267 40.4685 44.3224 40.4641 44.3224 40.4554ZM44.3181 40.4336C44.3181 40.438 44.3181 40.4467 44.3181 40.4511C44.3224 40.4467 44.3181 40.4423 44.3181 40.4336ZM44.3224 40.4162C44.3224 40.4205 44.3224 40.4249 44.3224 40.4293C44.3181 40.4293 44.3181 40.4205 44.3224 40.4162ZM44.3267 40.3944C44.3267 40.3988 44.3224 40.4075 44.3224 40.4118C44.3224 40.4075 44.3224 40.4031 44.3267 40.3944ZM44.3311 40.3726C44.3267 40.377 44.3267 40.3857 44.3267 40.39C44.3267 40.3857 44.3311 40.3813 44.3311 40.3726ZM44.3614 40.329C44.3571 40.3334 44.3528 40.3421 44.3484 40.3464C44.3528 40.3421 44.3571 40.3377 44.3614 40.329ZM42.344 42.3864C42.3179 42.3907 42.2962 42.3994 42.2702 42.4038L42.344 42.3864ZM43.3202 42.2905C43.2898 42.2905 43.2594 42.2905 43.2291 42.2905C43.2594 42.2905 43.2898 42.2905 43.3202 42.2905ZM10.4808 60.7805L10.4851 60.7848L10.4808 60.7805ZM30.5124 29.4669L29.7271 28.7085L30.5124 29.4669ZM3.30465 47.3292L9.96451 59.8085C9.11413 57.8296 9.20958 55.3887 9.63911 51.8842C10.5893 44.1953 13.2402 42.3994 13.4571 41.5713C13.0667 43.4063 12.264 45.0932 12.4028 47.3685C16.0256 39.0388 18.5637 40.3726 19.0974 37.0991L20.4554 32.6663C20.9934 31.8991 20.6637 32.4963 21.3318 33.6513C21.9349 34.6887 21.7744 34.388 22.4338 35.1987C22.1865 31.2235 21.6312 28.4295 24.3689 26.0452L23.9914 30.6699C26.5425 30.3212 25.6444 29.6064 29.0416 30.2079C28.6381 29.0397 27.7313 28.2857 26.9894 27.6057L29.5276 28.4949C32.313 28.97 32.0136 30.5522 33.4757 31.5896C34.1916 32.0953 34.5474 34.0829 32.5342 35.5649C32.851 35.9048 32.6991 35.7741 33.1373 36.0966C34.4736 37.0817 37.6061 38.1888 39.7798 40.6341L38.6387 38.5376C39.411 38.7729 40.3221 39.3483 40.9643 39.9934C41.5717 40.6036 41.4892 40.9262 42.2572 41.2356L43.5414 41.362C43.9796 40.6952 43.9579 40.8128 43.5414 39.2175C44.4526 39.3047 44.7563 39.3091 44.8213 39.3309L37.207 30.282C37.2764 30.3779 37.3371 30.4738 37.3935 30.561C35.6624 29.2882 30.994 26.4027 30.0612 24.8945L29.38 26.3983C26.9634 20.8408 21.8741 26.0758 20.3947 27.4313L21.0845 25.7096C19.1842 26.5334 17.8175 27.4313 16.2903 28.6213C14.9236 29.6892 13.4007 31.7117 12.238 32.3916C11.0665 33.076 8.1683 33.9303 6.6541 34.6539L1.89893 37.8576C5.28309 37.1253 10.6327 34.6277 13.9604 34.6582C7.55655 39.0606 7.1704 40.4118 3.30465 47.3292Z" stroke="black" stroke-width="0.216" stroke-miterlimit="22.9256"/>
<path fill-rule="evenodd" clip-rule="evenodd" d="M12.7327 63.0643C12.2598 58.1476 12.5114 48.8285 15.4921 45.9299C14.8239 52.285 14.7024 52.5552 16.3077 58.4963C16.6895 57.1232 16.273 54.9744 16.4292 53.3267C16.9802 47.5513 19.0584 44.1907 22.0348 39.9278C21.141 37.1033 20.4208 36.0528 20.4555 32.666L19.0975 37.0989C18.5638 40.3724 16.0257 39.0386 12.4029 47.3683C12.2641 45.093 13.0668 43.4061 13.4572 41.5711C13.2403 42.3992 10.5894 44.1951 9.63921 51.884C8.94502 57.533 9.12291 60.4228 12.7327 63.0643Z" fill="black"/>
<path d="M12.7327 63.0643C12.2598 58.1476 12.5114 48.8285 15.4921 45.9299C14.8239 52.285 14.7024 52.5552 16.3077 58.4963C16.6895 57.1232 16.273 54.9744 16.4292 53.3267C16.9802 47.5513 19.0584 44.1907 22.0348 39.9278C21.141 37.1033 20.4208 36.0528 20.4555 32.666L19.0975 37.0989C18.5638 40.3724 16.0257 39.0386 12.4029 47.3683C12.2641 45.093 13.0668 43.4061 13.4572 41.5711C13.2403 42.3992 10.5894 44.1951 9.63921 51.884C8.94502 57.533 9.12291 60.4228 12.7327 63.0643Z" stroke="black" stroke-width="0.216" stroke-miterlimit="22.9256"/>
<path fill-rule="evenodd" clip-rule="evenodd" d="M44.8387 39.9595C44.2269 39.1313 45.8626 39.4408 43.5457 39.2229C43.9622 40.8182 43.9796 40.7005 43.5457 41.3674L42.2615 41.241C41.4935 40.9272 41.576 40.609 40.9686 39.9987C40.3264 39.3536 39.4153 38.7783 38.643 38.5429L39.7841 40.6395C37.6104 38.1942 34.4779 37.0871 33.1416 36.102C32.7034 35.7794 32.8553 35.9102 32.5385 35.5702C34.5517 34.0882 34.2002 32.1006 33.48 31.595C32.0179 30.562 32.3173 28.9797 29.5318 28.5002C29.5926 28.5743 29.6967 28.5787 29.7314 28.7051L30.5167 29.4635C31.0113 29.9474 31.1285 30.0084 31.5233 30.6186C32.3563 31.9132 32.6427 33.6175 30.9246 34.4108C29.3279 35.1474 27.1543 34.2974 25.8613 33.539C26.6119 39.1575 33.0245 39.1008 34.1265 39.3798C35.9748 39.8505 37.1028 40.6264 37.1983 40.7005L32.9203 41.3107C33.9486 41.9297 35.1721 42.1912 36.2134 42.6663C37.4152 43.2155 38.3957 43.9565 39.2765 44.4447C40.4523 43.6209 41.2115 42.2479 43.3245 42.2871C42.6867 42.5617 42.3136 43.1763 41.9925 44.2093L45.637 43.6776C45.6196 40.0031 43.3158 40.9359 44.8387 39.9595Z" fill="black"/>
<path d="M44.8387 39.9595C44.2269 39.1313 45.8626 39.4408 43.5457 39.2229C43.9622 40.8182 43.9796 40.7005 43.5457 41.3674L42.2615 41.241C41.4935 40.9272 41.576 40.609 40.9686 39.9987C40.3264 39.3536 39.4153 38.7783 38.643 38.5429L39.7841 40.6395C37.6104 38.1942 34.4779 37.0871 33.1416 36.102C32.7034 35.7794 32.8553 35.9102 32.5385 35.5702C34.5517 34.0882 34.2002 32.1006 33.48 31.595C32.0179 30.562 32.3173 28.9797 29.5318 28.5002C29.5926 28.5743 29.6967 28.5787 29.7314 28.7051L30.5167 29.4635C31.0113 29.9474 31.1285 30.0084 31.5233 30.6186C32.3563 31.9132 32.6427 33.6175 30.9246 34.4108C29.3279 35.1474 27.1543 34.2974 25.8613 33.539C26.6119 39.1575 33.0245 39.1008 34.1265 39.3798C35.9748 39.8505 37.1028 40.6264 37.1983 40.7005L32.9203 41.3107C33.9486 41.9297 35.1721 42.1912 36.2134 42.6663C37.4152 43.2155 38.3957 43.9565 39.2765 44.4447C40.4523 43.6209 41.2115 42.2479 43.3245 42.2871C42.6867 42.5617 42.3136 43.1763 41.9925 44.2093L45.637 43.6776C45.6196 40.0031 43.3158 40.9359 44.8387 39.9595Z" stroke="black" stroke-width="0.216" stroke-miterlimit="22.9256"/>
<path fill-rule="evenodd" clip-rule="evenodd" d="M20.2819 20.8982L19.9175 19.0675C15.5571 19.037 12.2945 20.166 8.78448 22.1492C8.26384 22.4456 7.92543 22.6418 7.46553 22.9556C6.39388 23.6835 6.74531 23.2302 6.06848 24.2196C8.6066 23.5963 10.7542 22.4892 13.6438 22.5371C8.25516 24.7688 4.09872 27.48 1.07467 30.8232C-0.118462 32.1439 -0.127139 32.3008 0.146197 34.5718C0.59308 38.2985 1.73849 44.3006 3.30475 47.33C7.1705 40.4126 7.55664 39.0613 13.9605 34.6589C10.6371 34.6284 5.28318 37.126 1.89902 37.8583L6.64986 34.6546C8.16405 33.9354 11.0623 33.0767 12.2337 32.3924C13.3965 31.7124 14.9194 29.6899 16.286 28.622C17.8132 27.4321 19.1799 26.5298 21.0803 25.7103L20.3904 27.4321C21.8699 26.0765 26.9548 20.8372 29.3758 26.399L30.057 24.8953C30.9941 26.4034 35.6582 29.2889 37.3893 30.5617C36.4261 29.0143 33.5756 26.2421 31.7794 25.087C32.4042 22.5764 33.901 20.2619 31.8141 17.8079L28.2651 21.9226C26.6771 20.8634 26.0914 21.09 24.2995 20.3054L24.1694 16.4261C21.9523 16.6048 21.0803 19.0588 20.2819 20.8982Z" fill="#C4A36B"/>
<path fill-rule="evenodd" clip-rule="evenodd" d="M26.0915 5.71621L21.1758 5.7598C22.165 6.98462 23.6749 7.58614 24.9895 8.8807L23.6054 13.5446C25.1543 12.8864 26.2303 11.7052 27.5536 10.938C28.8465 11.3434 30.4432 12.821 31.7795 13.5751L30.3781 8.91121C31.6884 7.57742 33.0767 6.98898 34.2525 5.78595L29.2544 5.74237L27.7662 1L26.0915 5.71621Z" fill="#C4A36B"/>
<path fill-rule="evenodd" clip-rule="evenodd" d="M13.6653 9.14644L10.5762 9.22926C11.4743 10.2972 12.0513 10.2754 12.9407 11.3781L12.1468 14.1939L14.763 12.5986C15.8129 13.1304 16.2685 13.7188 17.3445 14.1809L16.646 11.3738L19.0626 9.29028L15.9041 9.14209L14.9148 6.33502L13.6653 9.14644Z" fill="#C4A36B"/>
<path fill-rule="evenodd" clip-rule="evenodd" d="M39.5584 9.12856L36.4346 9.20702L38.8035 11.138L37.9531 14.2327L40.6518 12.572C41.7625 13.2563 42.2397 13.7184 43.2333 14.2196L42.4523 11.3864C43.5239 10.0919 43.8493 10.288 44.8603 9.31599L41.7711 9.12421L40.7776 6.28227L39.5584 9.12856Z" fill="#C4A36B"/>
<path fill-rule="evenodd" clip-rule="evenodd" d="M50.5356 13.4351L47.9932 13.5048L49.0171 14.4463C49.5421 14.8953 49.5507 14.9084 49.8848 15.3007L49.3034 17.698L51.3296 16.3119L53.4772 17.5803L52.9262 14.8909L54.8743 13.6182C51.1604 13.47 52.77 13.7097 51.4424 11.1162L50.5356 13.4351Z" fill="#C4A36B"/>
<path fill-rule="evenodd" clip-rule="evenodd" d="M3.05768 13.4921L0.597656 13.5313L2.38519 14.9872L1.89492 17.5502L4.06859 16.3035C5.07516 16.8658 5.21834 17.2102 6.10342 17.6853L5.44395 14.9697L7.42672 13.5052L4.84087 13.4485L4.05991 11.0861L3.05768 13.4921Z" fill="#C4A36B"/>
<path fill-rule="evenodd" clip-rule="evenodd" d="M20.4554 32.671C20.4163 36.0578 21.1365 37.1083 22.0346 39.9328C19.054 44.1957 16.9757 47.5563 16.4291 53.3317C16.2729 54.9793 16.6894 57.1282 16.3076 58.5012C14.7023 52.5558 14.8238 52.2899 15.4919 45.9348C12.5069 48.8334 12.2553 58.1525 12.7325 63.0692C13.4961 65.2617 20.4076 70.8584 22.7939 72.567C25.2669 74.3367 27.1239 75.8536 28.6641 75.0167C34.2089 72.0178 40.6649 66.3514 44.331 61.439C46.5134 58.5143 50.3488 53.384 51.2989 49.3303C45.3029 56.871 38.5997 62.7685 28.1391 67.6721L26.8636 64.2025C26.6163 63.0344 26.5165 62.8208 26.0609 61.7747C23.3883 55.6418 21.3274 52.8915 25.3016 46.2574C29.1067 46.6584 25.2539 47.7873 34.3174 47.4735C41.1117 47.2381 38.0703 52.874 45.6326 49.5352C46.8171 49.0121 47.6111 48.1316 47.9234 46.4971C48.6784 42.5785 45.5068 40.7479 44.8343 39.9546C43.3114 40.9353 45.6153 39.9981 45.6283 43.6813L41.9838 44.2131C42.3049 43.1801 42.678 42.5655 43.3158 42.2909C41.2072 42.2516 40.4436 43.6247 39.2678 44.4485C38.3827 43.9603 37.4022 43.2193 36.2047 42.6701C35.1634 42.195 33.9443 41.9378 32.9117 41.3145L37.1852 40.7043C37.0898 40.6302 35.9661 39.8543 34.1135 39.3835C33.0115 39.1002 26.5946 39.1613 25.8483 33.5428C27.1412 34.3012 29.3149 35.1512 30.9115 34.4145C32.6297 33.6256 32.3476 31.9169 31.5103 30.6224C31.1155 30.0078 30.9983 29.9511 30.5037 29.4673L29.7184 28.7089C29.688 28.5825 29.5796 28.5781 29.5188 28.504L26.9807 27.6148C27.7226 28.2948 28.6294 29.0489 29.0329 30.217C25.6357 29.6155 26.5338 30.3303 23.9827 30.679L24.3602 26.05C21.6225 28.4343 22.1778 31.2326 22.4251 35.2035C21.7613 34.3927 21.9218 34.6891 21.3231 33.6561C20.6636 32.501 20.9933 31.9039 20.4554 32.671Z" fill="#C4A36B"/>
<path d="M173.524 35.8859C173.524 35.1798 173.529 34.4737 173.542 33.7676C173.546 33.4276 173.437 33.1704 173.247 32.983C173.06 32.8043 172.834 32.6822 172.587 32.6561C172.552 32.6517 172.539 32.6604 172.505 32.6604C172.47 32.6604 172.44 32.6604 172.422 32.6604C172.387 32.6604 172.374 32.6648 172.357 32.6648C172.357 32.6648 172.34 32.6604 172.309 32.6648C172.027 32.6866 171.75 32.8304 171.52 33.0832C171.29 33.336 171.147 33.6978 171.142 34.1729C171.129 35.6506 171.142 37.1325 171.125 38.6102C171.108 40.0878 171.103 41.5698 171.09 43.0474C171.086 43.4441 171.207 43.7666 171.437 44.0151C171.667 44.2635 171.932 44.4117 172.214 44.451C172.249 44.4553 172.262 44.451 172.262 44.451C172.279 44.451 172.296 44.4466 172.327 44.4466C172.344 44.4466 172.374 44.4466 172.409 44.4466C172.444 44.4466 172.457 44.4422 172.492 44.4204C172.739 44.3812 172.969 44.2461 173.168 44.0194C173.368 43.7928 173.481 43.4789 173.481 43.0823C173.481 42.0493 173.498 41.0119 173.498 39.9745C175.789 39.9614 178.08 39.944 180.371 39.9265C180.371 40.9857 180.362 42.0493 180.353 43.1084C180.345 44.1676 180.336 45.2268 180.336 46.286C179.876 46.9703 178.952 47.476 177.568 47.7898C176.184 48.108 174.7 48.291 173.116 48.3259C172.986 48.3303 172.834 48.3216 172.687 48.3216C172.539 48.3216 172.405 48.3172 172.257 48.3172C169.949 48.291 167.992 47.8247 166.404 46.9573C164.795 46.0768 163.992 44.5992 164.014 42.4895C164.027 41.1731 164.04 39.8568 164.049 38.5404C164.057 37.2284 164.044 35.9121 164.066 34.5957C164.096 32.582 164.725 31.0825 165.962 30.0931C167.216 29.0906 169.129 28.5588 171.65 28.4847C173.463 28.4324 175.047 28.5283 176.431 28.7767C177.815 29.0252 179.169 29.4741 180.47 30.1323C180.453 31.0695 180.453 32.011 180.436 32.9481C180.418 33.8852 180.418 34.8267 180.401 35.7639C178.088 35.8031 175.798 35.8511 173.524 35.8859ZM92.1525 26.0481C95.0377 26.3445 97.923 26.6235 100.826 26.8894C100.826 28.2711 100.808 29.6485 100.808 31.0259C100.544 31.1218 100.357 31.2743 100.248 31.4879C100.144 31.6971 100.084 31.9238 100.066 32.1548C100.066 32.1766 100.066 32.1984 100.066 32.2202C100.066 32.242 100.066 32.2681 100.066 32.2899C100.066 32.3117 100.066 32.3422 100.066 32.3771C100.066 32.412 100.062 32.4556 100.066 32.4991C100.079 32.5907 100.101 32.6822 100.114 32.7781C100.131 32.8696 100.157 32.9655 100.162 33.0571C100.17 33.1748 100.17 33.2881 100.196 33.4058C100.222 33.5235 100.218 33.615 100.231 33.6847C100.435 35.1362 100.674 36.579 100.908 38.0217C101.138 39.4558 101.355 40.8898 101.602 42.3151C101.802 40.8855 102.014 39.4558 102.214 38.0305C102.413 36.6095 102.635 35.1885 102.839 33.7719C102.847 33.724 102.847 33.6455 102.856 33.5365C102.865 33.4232 102.869 33.3099 102.904 33.1966C102.934 33.1094 102.956 33.0178 102.969 32.9307C102.986 32.8391 102.986 32.7476 102.986 32.6561C102.986 32.6081 102.986 32.5732 102.986 32.5384C102.986 32.5079 102.986 32.4774 102.986 32.4556C102.986 32.4338 102.986 32.412 102.986 32.3902C102.986 32.3684 102.986 32.3422 102.986 32.3248C102.973 32.0981 102.908 31.8715 102.804 31.6492C102.695 31.4225 102.509 31.2656 102.244 31.1566C102.244 29.7793 102.262 28.4019 102.262 27.0245C104.8 27.2381 107.355 27.4342 109.911 27.626C109.893 28.938 109.893 30.2457 109.876 31.5533C109.594 31.8497 109.373 32.1853 109.251 32.5732C109.13 32.9568 109.008 33.3927 108.904 33.8722C108.366 36.3741 107.872 38.8979 107.373 41.4303C106.869 43.9802 106.349 46.5432 105.871 49.1192C102.674 49.2631 99.4935 49.42 96.3263 49.59C95.8144 47.0314 95.3198 44.451 94.8251 41.8575C94.3305 39.2466 93.8012 36.6269 93.3587 33.9637C93.2242 33.1486 93.12 32.4425 92.9118 31.854C92.7079 31.2743 92.4519 30.8123 92.1352 30.4723C92.1525 28.986 92.1525 27.517 92.1525 26.0481ZM197.89 33.1225C200.181 33.0135 202.472 32.9045 204.763 32.7825C204.745 33.0571 204.745 33.3273 204.745 33.6019C204.91 33.4799 205.062 33.3622 205.222 33.2358C205.374 33.1181 205.544 33.0135 205.717 32.9045C206.151 32.6386 206.576 32.425 207.036 32.2812C207.483 32.1417 208.008 32.0502 208.585 32.0153C209.162 31.9804 209.609 31.9848 210.004 32.0328C210.381 32.0763 210.759 32.2245 211.123 32.4556C211.301 32.5689 211.453 32.7084 211.635 32.874C211.817 33.0396 212.03 33.2401 212.229 33.4624C212.264 33.4406 212.281 33.4232 212.312 33.4058C212.329 33.3971 212.342 33.3709 212.377 33.3491C212.954 32.9089 213.566 32.5166 214.238 32.1417C214.885 31.7799 215.722 31.5576 216.729 31.4879C218.147 31.3877 219.249 31.6753 220.061 32.3553C220.898 33.0571 221.293 34.3255 221.263 36.178C221.245 37.3854 221.236 38.5927 221.228 39.7958C221.219 40.9988 221.206 42.2062 221.193 43.4136C221.189 44.0979 221.25 44.6558 221.375 45.0917C221.501 45.5276 221.705 45.8196 222 45.9504C222 47.3016 221.983 48.6572 222 50.0084C219.792 49.8733 217.566 49.7382 215.34 49.6161C215.223 48.5351 215.193 47.6111 215.158 46.8352C215.123 46.0506 215.119 45.3968 215.123 44.865C215.136 43.7884 215.132 42.7118 215.141 41.6352C215.149 40.5542 215.175 39.4819 215.188 38.4053C215.188 38.3312 215.18 38.2397 215.171 38.1307C215.162 38.0217 215.141 37.9084 215.123 37.7864C215.076 37.49 214.971 37.2372 214.794 37.0061C214.624 36.7882 214.347 36.6792 213.952 36.6923C213.822 36.6967 213.67 36.7141 213.522 36.7403C213.357 36.7708 213.193 36.8144 213.01 36.8667C212.993 38.013 212.971 39.1594 212.963 40.3014C212.954 41.4477 212.958 42.5897 212.945 43.7361C212.941 44.1676 212.98 44.5512 213.093 44.8781C213.21 45.205 213.405 45.484 213.705 45.7019C213.705 46.9791 213.705 48.2562 213.722 49.5333C211.514 49.4156 209.288 49.3066 207.062 49.1977C206.962 48.1864 206.915 47.306 206.88 46.5737C206.845 45.837 206.845 45.2137 206.845 44.7125C206.858 42.7815 206.88 40.8462 206.893 38.9153C206.893 38.8238 206.893 38.7017 206.893 38.5535C206.893 38.4053 206.845 38.2658 206.828 38.1263C206.78 37.8038 206.68 37.5205 206.515 37.272C206.351 37.0236 206.056 36.9059 205.656 36.919C205.539 36.9233 205.392 36.9451 205.227 36.9931C205.062 37.041 204.88 37.0933 204.715 37.1456C204.698 38.2353 204.671 39.3163 204.667 40.3973C204.658 41.4826 204.65 42.568 204.65 43.6489C204.65 44.172 204.693 44.5861 204.815 44.8781C204.94 45.1789 205.162 45.3837 205.439 45.5058C205.439 46.7132 205.457 47.9162 205.457 49.1236C202.901 49.0146 200.346 48.91 197.79 48.8141C197.79 47.6459 197.773 46.4778 197.773 45.3053C198.168 45.0307 198.415 44.7299 198.48 44.4248C198.545 44.1197 198.593 43.7797 198.597 43.4092C198.61 41.949 198.619 40.4801 198.632 39.0199C198.636 38.5361 198.567 38.0871 198.432 37.6774C198.302 37.2633 198.038 37.0105 197.625 36.9364C197.725 35.6636 197.79 34.3909 197.89 33.1225ZM190.206 43.6359C190.224 42.6638 190.232 41.6875 190.241 40.7155C190.25 39.7435 190.245 38.7671 190.258 37.7907C190.263 37.3897 190.163 37.0802 189.911 36.871C189.651 36.6531 189.369 36.5528 189.052 36.5572C188.757 36.5659 188.493 36.6923 188.245 36.9364C187.998 37.1805 187.855 37.5553 187.85 38.0566C187.842 38.985 187.85 39.9135 187.833 40.8375C187.816 41.7659 187.816 42.6944 187.816 43.6228C187.816 44.1633 187.95 44.5599 188.193 44.8171C188.428 45.0655 188.688 45.2007 188.983 45.205C189.295 45.2094 189.582 45.0917 189.842 44.8389C190.094 44.5948 190.206 44.1981 190.206 43.6707C190.206 43.662 190.206 43.6489 190.206 43.6359ZM181.733 43.2523C181.75 41.5393 181.75 39.8263 181.768 38.1133C181.785 36.3828 182.327 35.1493 183.382 34.417C184.453 33.676 186.349 33.2663 189.087 33.1617C191.842 33.0614 193.738 33.3142 194.792 33.9768C195.834 34.635 196.346 35.947 196.324 37.8953C196.315 38.863 196.307 39.8263 196.289 40.7896C196.272 41.7572 196.272 42.7205 196.272 43.6838C196.272 45.9329 195.66 47.3496 194.441 47.9206C193.239 48.4828 191.426 48.7226 189 48.6528C186.575 48.5831 184.74 48.217 183.529 47.5326C182.336 46.8614 181.716 45.4404 181.733 43.2784C181.733 43.2741 181.733 43.261 181.733 43.2523ZM155.536 45.7891C155.536 45.0307 155.827 44.4117 156.426 43.9497C157.046 43.4746 157.744 43.2479 158.534 43.2479C159.341 43.2479 160.048 43.4659 160.66 43.893C161.28 44.3245 161.61 44.9653 161.602 45.824C161.593 46.5868 161.346 47.1796 160.825 47.5849C160.287 48.0077 159.706 48.2736 159.076 48.3564C158.977 48.3695 158.894 48.3608 158.794 48.3695C158.712 48.3782 158.612 48.3826 158.53 48.3826C158.465 48.3826 158.382 48.3782 158.282 48.3695C158.2 48.3608 158.118 48.3651 158.053 48.3564C157.423 48.2649 156.846 48.0077 156.321 47.5936C155.809 47.1883 155.532 46.5955 155.532 45.8196C155.536 45.8109 155.536 45.8022 155.536 45.7891ZM145.154 40.406C145.136 41.7572 145.136 43.1041 145.136 44.4466C145.154 44.4858 145.184 44.5076 145.219 44.5207C145.249 44.5294 145.284 44.5338 145.301 44.5338C145.483 44.5948 145.648 44.6384 145.83 44.6776C145.995 44.7125 146.126 44.7343 146.208 44.7343C146.603 44.7343 146.889 44.5904 147.067 44.281C147.236 43.9802 147.327 43.5269 147.332 42.921C147.345 41.6831 147.336 40.4452 147.349 39.2073C147.353 38.7409 147.249 38.4053 147.037 38.1961C146.824 37.9912 146.59 37.891 146.329 37.891C146.212 37.891 146.065 37.9128 145.917 37.9476C145.735 37.9912 145.57 38.0392 145.388 38.0958C145.34 38.0958 145.306 38.1046 145.271 38.1263C145.236 38.1481 145.188 38.1656 145.154 38.183C145.154 38.924 145.154 39.665 145.154 40.406ZM138.147 28.9337C140.503 28.9816 142.863 29.0208 145.236 29.0557C145.219 29.9885 145.21 30.9213 145.201 31.854C145.193 32.7825 145.184 33.7153 145.184 34.6437C145.548 34.4911 146.043 34.3429 146.668 34.2078C147.28 34.077 147.969 34.016 148.763 34.0116C148.946 34.0116 149.128 33.9811 149.323 33.9811C150.594 33.9899 151.597 34.3255 152.325 34.9314C153.063 35.5459 153.423 36.5659 153.414 38.0087C153.41 38.9589 153.406 39.9178 153.397 40.868C153.388 41.8226 153.38 42.7772 153.38 43.7274C153.38 45.4578 152.751 46.6303 151.532 47.2711C150.343 47.8988 149.011 48.2867 147.575 48.3826C147.392 48.3957 147.21 48.3913 147.045 48.4044C146.863 48.4175 146.698 48.4218 146.516 48.4218C146.316 48.4218 146.121 48.4175 145.939 48.4175C145.757 48.4175 145.562 48.4044 145.362 48.3957C144.373 48.3521 143.349 48.2387 142.294 48.0121C141.24 47.7854 140.103 47.3147 138.867 46.6042C138.867 44.4902 138.876 42.3762 138.884 40.2578C138.893 38.1438 138.889 36.0254 138.919 33.907C138.923 33.4755 138.871 33.1268 138.754 32.8566C138.637 32.5863 138.424 32.412 138.112 32.3292C138.129 31.2002 138.147 30.0626 138.147 28.9337ZM127.148 33.8373C129.374 33.894 131.6 33.9375 133.808 33.9811C133.808 34.2775 133.808 34.5783 133.808 34.8747C133.856 34.8529 133.89 34.8137 133.938 34.757C133.986 34.7003 134.034 34.648 134.068 34.6132C134.298 34.3734 134.567 34.1642 134.893 33.955C135.209 33.7545 135.652 33.6542 136.246 33.6629C136.311 33.6629 136.394 33.6629 136.494 33.6673C136.593 33.6673 136.693 33.6629 136.789 33.6717C136.871 33.6804 136.954 33.7022 137.019 33.7022C137.084 33.7022 137.149 33.7152 137.218 33.7327C137.218 34.5826 137.21 35.4326 137.201 36.2826C137.192 37.1325 137.184 37.9781 137.184 38.8281C137.118 38.8281 137.053 38.8194 136.971 38.8107C136.889 38.802 136.823 38.7976 136.758 38.7976C136.693 38.7758 136.611 38.7671 136.528 38.7671C136.463 38.7671 136.381 38.7671 136.316 38.7671C135.691 38.7627 135.097 38.924 134.567 39.2509C134.038 39.5778 133.778 40.0311 133.778 40.6109C133.778 41.5131 133.76 42.411 133.76 43.3046C133.76 43.8407 133.851 44.2548 134.042 44.5338C134.233 44.8127 134.489 44.9958 134.767 45.0917C134.767 46.1465 134.767 47.197 134.767 48.2518C132.194 48.2998 129.656 48.3434 127.1 48.4C127.1 47.3147 127.1 46.225 127.1 45.144C127.495 44.8781 127.743 44.6035 127.808 44.3158C127.873 44.0325 127.907 43.7187 127.907 43.3743C127.907 41.8444 127.925 40.3145 127.925 38.7845C127.925 38.4445 127.855 38.122 127.695 37.8561C127.526 37.5728 127.33 37.3592 127.135 37.1892C127.135 36.0734 127.148 34.9531 127.148 33.8373ZM119.087 44.1023C119.087 43.5356 119.087 42.9602 119.087 42.3849C119.087 42.4067 118.957 42.4415 118.709 42.4939C118.462 42.5462 118.185 42.6464 117.903 42.7641C117.577 42.8992 117.291 43.0605 117.043 43.261C116.796 43.4615 116.679 43.7012 116.679 43.9758C116.679 44.3333 116.761 44.5861 116.926 44.7299C117.091 44.8738 117.291 44.9435 117.486 44.9391C117.551 44.9391 117.616 44.9304 117.699 44.9173C117.781 44.9043 117.863 44.8868 117.929 44.8694C118.076 44.8215 118.224 44.7561 118.358 44.6733C118.506 44.5817 118.627 44.5207 118.736 44.4466C118.822 44.3899 118.896 44.3202 118.948 44.2679C119.009 44.2112 119.048 44.1676 119.078 44.1284C119.087 44.1284 119.087 44.1153 119.087 44.1023ZM111.26 34.8878C111.954 34.4562 112.679 34.1206 113.451 33.8809C114.223 33.6455 115.03 33.4624 115.842 33.3753C116.336 33.3186 116.831 33.3012 117.325 33.2881C117.803 33.275 118.25 33.275 118.709 33.2924C118.939 33.3012 119.156 33.3142 119.386 33.3317C119.616 33.3491 119.851 33.3665 120.094 33.4014C121.412 33.6019 122.614 34.0509 123.721 34.7439C124.81 35.4239 125.361 36.4656 125.352 37.8779C125.343 38.8499 125.361 39.8219 125.352 40.7896C125.343 41.7616 125.335 42.7336 125.335 43.7012C125.335 44.0892 125.382 44.3681 125.5 44.5425C125.612 44.7125 125.747 44.8607 125.912 44.9827C125.964 45.022 125.994 45.0568 126.029 45.0873C126.059 45.1178 126.094 45.1527 126.146 45.1919C126.146 46.2729 126.146 47.3495 126.146 48.4305C123.92 48.4828 121.712 48.5439 119.486 48.6049C119.486 48.23 119.486 47.8552 119.486 47.4803C119.421 47.5457 119.356 47.598 119.304 47.6242C119.239 47.6634 119.191 47.6983 119.122 47.7375C119.039 47.7854 118.974 47.8334 118.892 47.89C118.809 47.9423 118.753 48.0164 118.679 48.0644C118.306 48.3172 117.855 48.5308 117.343 48.74C116.831 48.9449 116.124 49.0626 115.217 49.0931C114.045 49.1323 112.961 48.8533 112.019 48.23C111.065 47.598 110.492 46.4168 110.418 44.6733C110.375 43.5879 110.735 42.7074 111.373 42.0231C112.002 41.3519 112.705 40.8462 113.468 40.528C113.681 40.4409 113.881 40.3755 114.063 40.3275C114.262 40.2709 114.445 40.236 114.622 40.1837C116.111 39.7565 117.607 39.3163 119.109 38.8891C119.109 38.6363 119.109 38.3879 119.109 38.1351C119.109 37.8561 119.052 37.5946 118.961 37.3287C118.87 37.0672 118.649 36.8972 118.284 36.8579C118.185 36.8492 118.102 36.8492 118.02 36.8536C117.625 36.8623 117.343 37.0672 117.161 37.4507C116.978 37.8387 116.896 38.3269 116.896 38.9196C115 38.8891 113.139 38.8543 111.26 38.8194C111.26 37.5074 111.26 36.1998 111.26 34.8878ZM80.7592 30.189C80.7592 31.7494 80.7592 33.3142 80.7592 34.8703C81.666 34.9401 82.3602 34.8965 82.8548 34.7352C83.332 34.5827 83.5793 34.0988 83.5793 33.2968C83.5793 33.105 83.5967 32.9089 83.5793 32.7171C83.4969 31.7015 83.2192 31.052 82.7897 30.7731C82.3471 30.4854 81.6703 30.3067 80.7635 30.2326C80.7592 30.2151 80.7592 30.2021 80.7592 30.189ZM80.7592 39.6301C80.7592 41.4434 80.7592 43.2566 80.7592 45.0655C81.7484 45.0612 82.46 44.913 82.9025 44.6122C83.332 44.3202 83.562 43.6882 83.562 42.7292C83.562 42.4721 83.5837 42.2105 83.562 41.9577C83.4839 40.916 83.2322 40.2796 82.8548 40.0268C82.473 39.774 81.9957 39.6476 81.4057 39.6388C81.1887 39.6345 80.9761 39.6301 80.7592 39.6301ZM73.0928 23.6726C75.8956 24.0692 78.7157 24.4441 81.5315 24.8146C83.8917 25.1241 85.9613 25.6864 87.7618 26.4448C89.5537 27.2032 90.4431 28.9947 90.4344 31.8758C90.4301 33.3012 90.1611 34.5086 89.6101 35.498C89.0547 36.4962 88.1262 37.089 86.8073 37.272C88.2738 37.5161 89.3107 38.1961 89.9225 39.3032C90.5299 40.406 90.8422 41.6047 90.8292 42.9036C90.8249 43.1128 90.8379 43.322 90.8292 43.5312C90.7425 45.2748 90.2131 46.7873 89.2803 48.0949C88.3475 49.4025 86.3778 50.1697 83.345 50.3833C79.9305 50.6186 76.503 50.8715 73.0928 51.133C73.0928 49.4636 73.0928 47.7898 73.0928 46.1117C73.5874 45.8719 73.8824 45.5145 73.9648 45.035C74.0473 44.5556 74.082 44.0151 74.082 43.4005C74.082 41.5088 74.082 39.6214 74.082 37.7297C74.082 35.838 74.082 33.9506 74.082 32.0589C74.082 31.9761 74.082 31.8715 74.082 31.7451C74.082 31.6187 74.0863 31.501 74.082 31.3877C74.069 30.882 73.9909 30.3982 73.8694 29.9449C73.7436 29.4829 73.4746 29.1821 73.0928 29.0295C73.0928 27.2468 73.0928 25.4597 73.0928 23.6726Z" fill="black"/>
<path d="M172.786 35.1494C172.786 34.4433 172.791 33.7371 172.804 33.031C172.808 32.691 172.7 32.4339 172.509 32.2464C172.322 32.0677 172.097 31.9457 171.849 31.9195C171.815 31.9152 171.802 31.9239 171.767 31.9239C171.732 31.9239 171.702 31.9239 171.684 31.9239C171.65 31.9239 171.637 31.9282 171.619 31.9282C171.619 31.9282 171.602 31.9239 171.572 31.9282C171.29 31.95 171.012 32.0939 170.782 32.3467C170.552 32.5995 170.405 32.9613 170.405 33.4364C170.392 34.914 170.405 36.396 170.387 37.8736C170.37 39.3513 170.365 40.8333 170.352 42.3109C170.348 42.7075 170.47 43.0301 170.7 43.2785C170.93 43.527 171.194 43.6752 171.476 43.7144C171.511 43.7188 171.524 43.7144 171.524 43.7144C171.541 43.7144 171.559 43.7101 171.589 43.7101C171.606 43.7101 171.637 43.7101 171.671 43.7101C171.706 43.7101 171.719 43.7057 171.754 43.6839C172.001 43.6447 172.231 43.5096 172.431 43.2829C172.63 43.0562 172.743 42.7424 172.743 42.3458C172.743 41.3127 172.76 40.2753 172.76 39.2379C175.051 39.2249 177.342 39.2074 179.633 39.19C179.633 40.2492 179.624 41.3127 179.616 42.3719C179.607 43.4311 179.598 44.4903 179.598 45.5495C179.138 46.2338 178.214 46.7394 176.83 47.0533C175.446 47.3715 173.962 47.5545 172.379 47.5894C172.248 47.5938 172.097 47.585 171.949 47.585C171.802 47.585 171.667 47.5807 171.52 47.5807C169.211 47.5545 167.255 47.0881 165.667 46.2207C164.057 45.3403 163.254 43.8626 163.276 41.753C163.289 40.4366 163.302 39.1203 163.311 37.8039C163.32 36.4919 163.306 35.1755 163.328 33.8592C163.359 31.8454 163.988 30.346 165.224 29.3566C166.478 28.354 168.391 27.8223 170.912 27.7482C172.726 27.6959 174.309 27.7918 175.693 28.0402C177.077 28.2887 178.431 28.7376 179.733 29.3958C179.715 30.3329 179.715 31.2744 179.698 32.2116C179.681 33.1487 179.681 34.0902 179.663 35.0274C177.355 35.0709 175.064 35.1145 172.786 35.1494ZM91.4148 25.3116C94.3 25.608 97.1852 25.887 100.088 26.1528C100.088 27.5302 100.07 28.912 100.07 30.2893C99.8058 30.3852 99.6192 30.5378 99.5107 30.7514C99.4066 30.9606 99.3459 31.1873 99.3285 31.4183C99.3285 31.4401 99.3285 31.4619 99.3285 31.4837C99.3285 31.5054 99.3285 31.5316 99.3285 31.5534C99.3285 31.5752 99.3285 31.6057 99.3285 31.6406C99.3285 31.6754 99.3242 31.7147 99.3285 31.7626C99.3415 31.8541 99.3632 31.9457 99.3762 32.0416C99.3936 32.1331 99.4196 32.229 99.424 32.3205C99.4326 32.4382 99.4326 32.5516 99.4587 32.6692C99.4847 32.7869 99.4804 32.8785 99.4934 32.9482C99.6973 34.3997 99.9403 35.8424 100.17 37.2852C100.4 38.7192 100.617 40.1533 100.864 41.5786C101.064 40.1489 101.277 38.7192 101.476 37.2939C101.676 35.873 101.897 34.452 102.101 33.0354C102.11 32.9874 102.11 32.909 102.118 32.8C102.127 32.6867 102.131 32.5734 102.166 32.46C102.196 32.3728 102.218 32.2813 102.231 32.1941C102.248 32.1026 102.248 32.0111 102.248 31.9195C102.248 31.8716 102.248 31.8367 102.248 31.8018C102.248 31.7713 102.248 31.7408 102.248 31.719C102.248 31.6972 102.248 31.6754 102.248 31.6536C102.248 31.6319 102.248 31.6057 102.248 31.5883C102.235 31.3616 102.17 31.1349 102.066 30.9126C101.958 30.686 101.771 30.5291 101.507 30.4201C101.507 29.0427 101.524 27.6653 101.524 26.288C104.062 26.5015 106.617 26.6977 109.173 26.8895C109.156 28.2015 109.156 29.5091 109.138 30.8168C108.856 31.1132 108.635 31.4488 108.513 31.8367C108.392 32.2203 108.271 32.6562 108.166 33.1356C107.628 35.6376 107.134 38.1613 106.635 40.6938C106.132 43.2437 105.611 45.8066 105.134 48.3827C101.936 48.5265 98.7558 48.6834 95.5886 48.8534C95.0766 46.2948 94.582 43.7144 94.0874 41.1209C93.5928 38.51 93.0635 35.8904 92.6209 33.2272C92.4864 32.4121 92.3823 31.7059 92.1741 31.1175C91.9701 30.5378 91.7142 30.0758 91.3974 29.7401C91.4148 28.2538 91.4148 26.7849 91.4148 25.3116ZM197.152 32.3859C199.443 32.277 201.734 32.168 204.025 32.0459C204.008 32.3205 204.008 32.5908 204.008 32.8654C204.172 32.7433 204.324 32.6257 204.485 32.4992C204.637 32.3816 204.806 32.277 204.979 32.168C205.413 31.9021 205.838 31.6885 206.298 31.5447C206.745 31.4052 207.27 31.3137 207.847 31.2788C208.424 31.2439 208.871 31.2483 209.266 31.2962C209.643 31.3398 210.021 31.488 210.385 31.719C210.563 31.8324 210.715 31.9718 210.897 32.1375C211.08 32.3031 211.292 32.5036 211.492 32.7259C211.526 32.7041 211.544 32.6867 211.574 32.6692C211.591 32.6605 211.605 32.6344 211.639 32.6126C212.216 32.1723 212.828 31.7801 213.501 31.4052C214.147 31.0434 214.984 30.8211 215.991 30.7514C217.41 30.6511 218.512 30.9388 219.323 31.6188C220.16 32.3205 220.555 33.5889 220.525 35.4414C220.503 36.6488 220.499 37.8562 220.49 39.0592C220.481 40.2623 220.468 41.4696 220.455 42.677C220.451 43.3614 220.512 43.9193 220.638 44.3552C220.763 44.7954 220.967 45.0831 221.262 45.2139C221.262 46.5651 221.245 47.9207 221.262 49.2719C219.054 49.1368 216.828 49.0016 214.603 48.8796C214.485 47.7986 214.455 46.8789 214.42 46.0987C214.386 45.3141 214.381 44.6603 214.386 44.1285C214.399 43.0519 214.394 41.9753 214.403 40.8986C214.412 39.8177 214.438 38.7454 214.451 37.6688C214.451 37.5947 214.442 37.5031 214.433 37.3942C214.425 37.2852 214.403 37.1719 214.386 37.0498C214.338 36.7534 214.234 36.5006 214.056 36.2696C213.887 36.0517 213.609 35.9427 213.214 35.9558C213.084 35.9601 212.932 35.9776 212.785 36.0037C212.62 36.0342 212.455 36.0778 212.273 36.1301C212.255 37.2765 212.234 38.4228 212.225 39.5649C212.216 40.7112 212.221 41.8532 212.208 42.9996C212.203 43.4311 212.242 43.8147 212.355 44.1416C212.472 44.4685 212.667 44.7475 212.967 44.9654C212.967 46.2425 212.967 47.5197 212.984 48.7968C210.776 48.6791 208.55 48.5701 206.324 48.4612C206.225 47.4499 206.177 46.5694 206.142 45.8372C206.107 45.1005 206.107 44.4772 206.107 43.976C206.12 42.045 206.142 40.1097 206.155 38.1788C206.155 38.0872 206.155 37.9652 206.155 37.817C206.155 37.6688 206.107 37.5293 206.09 37.3898C206.042 37.0673 205.943 36.7839 205.778 36.5355C205.613 36.287 205.318 36.1694 204.919 36.1824C204.801 36.1868 204.654 36.2086 204.489 36.2565C204.324 36.3045 204.142 36.3568 203.977 36.4091C203.96 37.4988 203.938 38.5798 203.929 39.6607C203.921 40.7461 203.912 41.8314 203.912 42.9124C203.912 43.4355 203.955 43.8495 204.077 44.1416C204.203 44.4423 204.424 44.6472 204.702 44.7693C204.702 45.9766 204.719 47.1797 204.719 48.3871C202.164 48.2781 199.608 48.1691 197.053 48.0776C197.053 46.9094 197.035 45.7413 197.035 44.5688C197.43 44.2941 197.677 43.9934 197.742 43.6883C197.808 43.3832 197.855 43.0432 197.86 42.6727C197.873 41.2125 197.881 39.7436 197.894 38.2834C197.899 37.7995 197.829 37.3506 197.695 36.9409C197.56 36.5268 197.3 36.274 196.888 36.1999C196.988 34.9315 197.053 33.6587 197.152 32.3859ZM189.473 42.9037C189.49 41.9317 189.499 40.9553 189.508 39.9833C189.516 39.0113 189.512 38.0349 189.525 37.0585C189.529 36.6575 189.43 36.3481 189.178 36.1388C188.918 35.9209 188.636 35.8207 188.319 35.825C188.024 35.8337 187.759 35.9601 187.512 36.2042C187.265 36.4483 187.121 36.8232 187.117 37.3244C187.108 38.2529 187.117 39.1813 187.1 40.1053C187.082 41.0338 187.082 41.9622 187.082 42.8906C187.082 43.4311 187.217 43.8278 187.46 44.0849C187.694 44.3334 187.954 44.4685 188.249 44.4729C188.562 44.4772 188.848 44.3595 189.109 44.1067C189.36 43.8626 189.473 43.466 189.473 42.9386C189.473 42.9255 189.473 42.9168 189.473 42.9037ZM181 42.5201C181.017 40.8071 181.017 39.0941 181.034 37.3811C181.052 35.6507 181.594 34.4171 182.648 33.6848C183.72 32.9438 185.616 32.5341 188.354 32.4295C191.109 32.3293 193.009 32.5821 194.059 33.2446C195.1 33.9028 195.612 35.2148 195.59 37.1632C195.577 38.1308 195.573 39.0941 195.556 40.0574C195.538 41.0251 195.538 41.9883 195.538 42.9516C195.538 45.2008 194.927 46.6174 193.708 47.1884C192.506 47.7507 190.692 47.9904 188.267 47.9207C185.842 47.8509 184.011 47.4848 182.796 46.8005C181.603 46.1292 180.982 44.7082 181 42.5463C181 42.5376 181 42.5288 181 42.5201ZM154.803 45.0569C154.803 44.2985 155.093 43.6796 155.692 43.2175C156.313 42.7424 157.011 42.5158 157.801 42.5158C158.608 42.5158 159.315 42.7337 159.927 43.1609C160.547 43.5924 160.877 44.2331 160.868 45.0918C160.859 45.8546 160.608 46.4474 160.092 46.8528C159.554 47.2756 158.972 47.5414 158.343 47.6243C158.243 47.6373 158.161 47.6286 158.061 47.6373C157.979 47.6461 157.879 47.6504 157.796 47.6504C157.731 47.6504 157.649 47.6461 157.549 47.6373C157.467 47.6286 157.384 47.633 157.319 47.6243C156.69 47.5327 156.113 47.2756 155.588 46.8615C155.076 46.4561 154.798 45.8633 154.798 45.0831C154.803 45.0744 154.803 45.0657 154.803 45.0569ZM144.416 39.6695C144.399 41.0207 144.399 42.3676 144.399 43.7101C144.416 43.7493 144.446 43.7711 144.481 43.7842C144.511 43.7929 144.546 43.7972 144.563 43.7972C144.746 43.8583 144.911 43.9019 145.093 43.9411C145.258 43.976 145.388 43.9977 145.47 43.9977C145.865 43.9977 146.151 43.8539 146.329 43.5444C146.498 43.2437 146.59 42.7904 146.594 42.1845C146.607 40.9466 146.598 39.7087 146.611 38.4708C146.616 38.0044 146.512 37.6688 146.299 37.4596C146.086 37.2547 145.852 37.1544 145.592 37.1544C145.475 37.1544 145.327 37.1762 145.18 37.2111C144.997 37.2547 144.832 37.3026 144.65 37.3593C144.602 37.3593 144.568 37.368 144.533 37.3898C144.498 37.4116 144.451 37.429 144.416 37.4465C144.416 38.1918 144.416 38.9328 144.416 39.6695ZM137.409 28.1971C139.765 28.2451 142.125 28.2843 144.498 28.3192C144.481 29.2519 144.472 30.1847 144.464 31.1175C144.455 32.0459 144.446 32.9787 144.446 33.9071C144.811 33.7546 145.305 33.6064 145.93 33.4713C146.542 33.3405 147.232 33.2795 148.026 33.2751C148.208 33.2751 148.39 33.2446 148.585 33.2446C149.857 33.2533 150.859 33.5889 151.588 34.1948C152.325 34.8094 152.685 35.8294 152.677 37.2721C152.672 38.2223 152.668 39.1813 152.659 40.1315C152.651 41.0861 152.642 42.0406 152.642 42.9909C152.642 44.7213 152.013 45.8938 150.794 46.5346C149.605 47.1622 148.273 47.5502 146.837 47.6461C146.655 47.6591 146.477 47.6548 146.308 47.6679C146.125 47.6809 145.961 47.6853 145.778 47.6853C145.579 47.6853 145.383 47.6809 145.201 47.6809C145.019 47.6809 144.824 47.6679 144.624 47.6591C143.635 47.6155 142.611 47.5022 141.557 47.2756C140.502 47.0489 139.366 46.5782 138.129 45.8677C138.129 43.7537 138.138 41.6396 138.147 39.5213C138.155 37.4073 138.151 35.2889 138.181 33.1705C138.186 32.739 138.134 32.3903 138.016 32.12C137.899 31.8498 137.687 31.6754 137.374 31.5926C137.392 30.4637 137.409 29.3304 137.409 28.1971ZM126.415 33.1051C128.641 33.1618 130.866 33.2054 133.075 33.249C133.075 33.5454 133.075 33.8461 133.075 34.1425C133.122 34.1207 133.157 34.0815 133.205 34.0248C133.253 33.9682 133.3 33.9159 133.335 33.881C133.565 33.6413 133.834 33.432 134.159 33.2228C134.476 33.0223 134.919 32.9221 135.513 32.9308C135.578 32.9308 135.661 32.9308 135.76 32.9351C135.86 32.9351 135.96 32.9308 136.055 32.9395C136.138 32.9482 136.22 32.97 136.285 32.97C136.35 32.97 136.415 32.9831 136.485 33.0005C136.485 33.8505 136.476 34.7004 136.467 35.5504C136.459 36.4004 136.45 37.246 136.45 38.0959C136.385 38.0959 136.32 38.0872 136.238 38.0785C136.155 38.0698 136.09 38.0654 136.025 38.0654C135.96 38.0436 135.877 38.0349 135.795 38.0349C135.73 38.0349 135.647 38.0349 135.582 38.0349C134.958 38.0306 134.363 38.1918 133.834 38.5187C133.305 38.8457 133.044 39.299 133.044 39.8787C133.044 40.781 133.027 41.6789 133.027 42.5724C133.027 43.1086 133.118 43.5226 133.309 43.8016C133.5 44.0806 133.756 44.2636 134.034 44.3595C134.034 45.4144 134.034 46.4648 134.034 47.5197C131.461 47.5676 128.923 47.6112 126.367 47.6679C126.367 46.5825 126.367 45.4928 126.367 44.4118C126.762 44.1459 127.009 43.8713 127.074 43.5837C127.139 43.3003 127.174 42.9865 127.174 42.6422C127.174 41.1122 127.191 39.5823 127.191 38.0524C127.191 37.7124 127.122 37.3898 126.961 37.1239C126.792 36.8406 126.597 36.627 126.402 36.457C126.397 35.3368 126.415 34.221 126.415 33.1051ZM118.354 43.3701C118.354 42.8034 118.354 42.2281 118.354 41.6527C118.354 41.6745 118.223 41.7094 117.976 41.7617C117.729 41.814 117.451 41.9142 117.169 42.0319C116.844 42.1671 116.557 42.3283 116.31 42.5288C116.063 42.7293 115.946 42.9691 115.946 43.2437C115.946 43.6011 116.028 43.8539 116.193 43.9977C116.358 44.1416 116.557 44.2113 116.753 44.207C116.818 44.207 116.883 44.1983 116.965 44.1852C117.048 44.1721 117.13 44.1547 117.195 44.1372C117.343 44.0893 117.49 44.0239 117.625 43.9411C117.772 43.8495 117.894 43.7885 118.002 43.7144C118.089 43.6578 118.163 43.588 118.215 43.5357C118.275 43.4791 118.315 43.4355 118.345 43.3962C118.354 43.3919 118.354 43.3832 118.354 43.3701ZM110.522 34.1556C111.216 33.7241 111.941 33.3884 112.713 33.1487C113.486 32.9133 114.293 32.7303 115.104 32.6431C115.599 32.5864 116.093 32.569 116.588 32.5559C117.065 32.5428 117.512 32.5428 117.972 32.5603C118.202 32.569 118.419 32.5821 118.649 32.5995C118.879 32.6169 119.113 32.6344 119.356 32.6692C120.675 32.8697 121.877 33.3187 122.983 34.0118C124.072 34.6917 124.623 35.7335 124.614 37.1457C124.606 38.1177 124.623 39.0897 124.614 40.0574C124.606 41.0294 124.597 42.0014 124.597 42.9691C124.597 43.357 124.645 43.636 124.762 43.8103C124.875 43.9803 125.009 44.1242 125.174 44.2506C125.226 44.2898 125.256 44.3247 125.291 44.3552C125.321 44.3857 125.356 44.4206 125.408 44.4598C125.408 45.5408 125.408 46.6174 125.408 47.6984C123.182 47.7507 120.974 47.8117 118.748 47.8727C118.748 47.4979 118.748 47.123 118.748 46.7481C118.683 46.8135 118.618 46.8658 118.566 46.892C118.501 46.9312 118.453 46.9661 118.384 47.0053C118.301 47.0533 118.236 47.1012 118.154 47.1579C118.072 47.2102 118.015 47.2843 117.941 47.3322C117.568 47.585 117.117 47.7986 116.605 48.0078C116.093 48.2127 115.386 48.3304 114.479 48.3609C113.308 48.4001 112.223 48.1212 111.282 47.4979C110.327 46.8658 109.754 45.6846 109.681 43.9411C109.637 42.8557 109.997 41.9753 110.635 41.2909C111.264 40.6197 111.967 40.1141 112.731 39.7959C112.943 39.7087 113.143 39.6433 113.325 39.5954C113.525 39.5387 113.707 39.5038 113.885 39.4515C115.373 39.0244 116.87 38.5841 118.367 38.157C118.367 37.9042 118.367 37.6557 118.367 37.4029C118.367 37.1239 118.31 36.8624 118.219 36.5965C118.128 36.335 117.907 36.165 117.542 36.1258C117.442 36.117 117.36 36.1171 117.278 36.1214C116.883 36.1301 116.601 36.335 116.419 36.7186C116.236 37.1065 116.154 37.5947 116.154 38.1875C114.258 38.157 112.397 38.1221 110.514 38.0872C110.522 36.7709 110.522 35.4676 110.522 34.1556ZM80.0258 29.4568C80.0258 31.0173 80.0258 32.5821 80.0258 34.1382C80.9326 34.2079 81.6268 34.1643 82.1214 34.003C82.5986 33.8505 82.8459 33.3666 82.8459 32.5646C82.8459 32.3728 82.8633 32.1767 82.8459 31.9849C82.7635 30.9693 82.4858 30.3199 82.0563 30.0409C81.6137 29.7532 80.9369 29.5745 80.0301 29.5004C80.0258 29.483 80.0258 29.4699 80.0258 29.4568ZM80.0258 38.898C80.0258 40.7112 80.0258 42.5245 80.0258 44.3334C81.015 44.329 81.7266 44.1808 82.1691 43.8801C82.5986 43.588 82.8286 42.956 82.8286 41.9971C82.8286 41.7399 82.8459 41.4784 82.8286 41.2256C82.7505 40.1838 82.4988 39.5474 82.1214 39.2946C81.7396 39.0418 81.2623 38.911 80.6723 38.9067C80.451 38.898 80.2384 38.898 80.0258 38.898ZM72.3594 22.9404C75.1622 23.3371 77.9823 23.7119 80.7981 24.0824C83.1583 24.3919 85.2279 24.9542 87.0284 25.7126C88.8203 26.471 89.7097 28.2625 89.701 31.1437C89.6967 32.569 89.4277 33.7764 88.8767 34.7658C88.3213 35.764 87.3929 36.3568 86.0739 36.5399C87.5404 36.7839 88.5773 37.4639 89.1891 38.571C89.7965 39.6738 90.1089 40.8725 90.0958 42.1714C90.0915 42.3806 90.1045 42.5899 90.0958 42.7991C90.0091 44.5426 89.4797 46.0551 88.5469 47.3627C87.6141 48.6704 85.6444 49.4375 82.6116 49.6511C79.1971 49.8865 75.7696 50.1393 72.3594 50.4008C72.3594 48.7314 72.3594 47.0576 72.3594 45.3795C72.854 45.1398 73.149 44.7823 73.2314 44.3029C73.3139 43.8234 73.3486 43.2829 73.3486 42.6683C73.3486 40.7766 73.3486 38.8892 73.3486 36.9975C73.3486 35.1058 73.3486 33.2185 73.3486 31.3267C73.3486 31.2439 73.3486 31.1393 73.3486 31.0129C73.3486 30.8865 73.3529 30.7688 73.3486 30.6555C73.3356 30.1499 73.2575 29.666 73.136 29.2127C73.0102 28.7507 72.7412 28.4499 72.3594 28.2974C72.3594 26.5103 72.3594 24.7275 72.3594 22.9404Z" fill="#C4A36B"/>
</svg>
