<svg width="18" height="18" viewBox="0 0 18 18" fill="none" xmlns="http://www.w3.org/2000/svg">
<path opacity="0.4" d="M16.5 11.955C16.5 14.0475 14.82 15.7425 12.7275 15.75H12.72H5.2875C3.2025 15.75 1.5 14.0625 1.5 11.97V11.9625C1.5 11.9625 1.5045 8.643 1.5105 6.9735C1.51125 6.66 1.87125 6.4845 2.1165 6.6795C3.8985 8.09325 7.08525 10.671 7.125 10.7048C7.6575 11.1315 8.3325 11.3722 9.0225 11.3722C9.7125 11.3722 10.3875 11.1315 10.92 10.6965C10.9598 10.6702 14.0753 8.16975 15.8843 6.73275C16.1303 6.537 16.4918 6.7125 16.4925 7.02525C16.5 8.682 16.5 11.955 16.5 11.955Z" fill="#C4A36B"/>
<path d="M16.1069 4.25501C15.4574 3.03101 14.1794 2.24951 12.7724 2.24951H5.28741C3.88041 2.24951 2.60241 3.03101 1.95291 4.25501C1.80741 4.52876 1.87641 4.87001 2.11866 5.06351L7.68741 9.51776C8.07741 9.83276 8.54991 9.98951 9.02241 9.98951C9.02541 9.98951 9.02766 9.98951 9.02991 9.98951C9.03216 9.98951 9.03516 9.98951 9.03741 9.98951C9.50991 9.98951 9.98241 9.83276 10.3724 9.51776L15.9412 5.06351C16.1834 4.87001 16.2524 4.52876 16.1069 4.25501Z" fill="#C4A36B"/>
</svg>
