<svg width="34" height="34" viewBox="0 0 34 34" fill="none" xmlns="http://www.w3.org/2000/svg">
<g clip-path="url(#clip0)">
<path d="M16.9735 0C11.459 0 6.97266 4.48631 6.97266 10.0009V23.9991C6.97266 29.5137 11.459 34 16.9735 34C22.4881 34 26.9744 29.5137 26.9744 23.9991V10.0009C26.9744 4.48631 22.4881 0 16.9735 0ZM24.9345 23.9991C24.9345 28.3887 21.3631 31.9601 16.9735 31.9601C12.584 31.9601 9.01257 28.3887 9.01257 23.9991V10.0009C9.01257 5.61133 12.584 2.03992 16.9735 2.03992C21.3631 2.03992 24.9345 5.61133 24.9345 10.0009V23.9991Z" fill="#C4A36B"/>
<path d="M16.9738 6.76367C16.4104 6.76367 15.9539 7.22021 15.9539 7.78363V12.4782C15.9539 13.0414 16.4104 13.4982 16.9738 13.4982C17.537 13.4982 17.9938 13.0414 17.9938 12.4782V7.78363C17.9938 7.22021 17.5372 6.76367 16.9738 6.76367Z" fill="#C4A36B"/>
</g>
<defs>
<clipPath id="clip0">
<rect width="34" height="34" fill="white"/>
</clipPath>
</defs>
</svg>
