<svg width="13" height="91" viewBox="0 0 13 91" fill="none" xmlns="http://www.w3.org/2000/svg">
<path d="M4.664 0.672C2.152 0.671999 0.728 2.496 0.728 4.528C0.728 6.608 1.944 8.368 4.248 8.368C6.392 8.368 7.128 6.272 7.752 4.528C8.056 3.696 8.488 2.896 9.4 2.896C10.344 2.896 10.824 3.664 10.824 4.576C10.824 5.616 10.072 6.256 8.968 6.256L8.968 8.096C11.048 8.096 12.472 6.544 12.472 4.528C12.472 2.656 11.256 1.056 9.4 1.056C7.16 1.056 6.536 2.704 5.816 4.752C5.544 5.52 5.176 6.528 4.04 6.528C3.032 6.528 2.376 5.712 2.376 4.688C2.376 3.424 3.208 2.512 4.664 2.512L4.664 0.672ZM5.736 16.9974C7.176 16.8854 8.648 15.8934 8.648 13.4614C8.648 11.0454 6.744 9.74937 4.728 9.74937C2.696 9.74937 0.808 11.0454 0.807999 13.4774C0.807999 15.6374 2.008 16.7734 3.56 17.0134L3.56 15.2694C2.808 15.0454 2.36 14.6294 2.36 13.6054C2.36 12.1014 3.448 11.4934 4.728 11.4934C5.992 11.4934 7.096 12.1494 7.096 13.4934C7.096 14.6774 6.552 15.1574 5.736 15.2534L5.736 16.9974ZM8.44 23.5602C8.52 23.3683 8.552 23.1443 8.552 22.8722C8.552 21.8802 7.944 20.9042 7.256 20.5682L8.456 20.5682L8.456 18.8242L0.999999 18.8242L0.999999 20.5682L4.216 20.5682C6.072 20.5682 6.92 21.3842 6.92 22.8722C6.92 23.1443 6.904 23.2883 6.84 23.5602L8.44 23.5602ZM0.807999 27.8561C0.807999 30.2561 2.616 31.8081 4.728 31.8081C6.84 31.8081 8.648 30.2561 8.648 27.8561C8.648 25.4881 6.84 23.9361 4.728 23.9361C2.616 23.9361 0.807999 25.4881 0.807999 27.8561ZM2.36 27.8561C2.36 26.5441 3.448 25.6801 4.728 25.6801C6.008 25.6801 7.096 26.5441 7.096 27.8561C7.096 29.2001 6.008 30.0641 4.728 30.0641C3.448 30.0641 2.36 29.2001 2.36 27.8561ZM0.807998 36.9499C0.807998 39.3499 2.616 40.9019 4.728 40.9019C6.84 40.9019 8.648 39.3499 8.648 36.9499C8.648 34.5819 6.84 33.0299 4.728 33.0299C2.616 33.0299 0.807998 34.5819 0.807998 36.9499ZM2.36 36.9499C2.36 35.6379 3.448 34.7739 4.728 34.7739C6.008 34.7739 7.096 35.6379 7.096 36.9499C7.096 38.2939 6.008 39.1579 4.728 39.1579C3.448 39.1579 2.36 38.2939 2.36 36.9499ZM0.999998 42.6836L0.999998 44.4276L12.2 44.4276L12.2 42.6836L0.999998 42.6836ZM12.2 50.7617L0.999998 50.7617L0.999998 54.3937C0.999997 58.1057 3.768 60.2018 6.6 60.2018C9.432 60.2018 12.2 58.1057 12.2 54.3938L12.2 50.7617ZM10.552 54.3937C10.552 56.8898 8.6 58.3137 6.6 58.3137C4.6 58.3137 2.648 56.8897 2.648 54.3937L2.648 52.6017L10.552 52.6017L10.552 54.3937ZM0.807997 65.3405C0.807997 67.7405 2.616 69.2925 4.728 69.2925C6.84 69.2925 8.648 67.7405 8.648 65.3405C8.648 62.9725 6.84 61.4205 4.728 61.4205C2.616 61.4205 0.807997 62.9725 0.807997 65.3405ZM2.36 65.3405C2.36 64.0285 3.448 63.1645 4.728 63.1645C6.008 63.1645 7.096 64.0285 7.096 65.3405C7.096 66.6845 6.008 67.5485 4.728 67.5485C3.448 67.5485 2.36 66.6845 2.36 65.3405ZM0.999997 77.8902L0.999997 79.0582L8.456 81.9543L8.456 80.0823L3.736 78.4662L8.456 76.7862L8.456 75.0742L3.736 73.3942L8.456 71.7782L8.456 69.9062L0.999997 72.8022L0.999997 73.9702L6.568 75.9382L0.999997 77.8902ZM0.999996 83.1211L0.999996 84.8651L4.856 84.8651C6.136 84.8651 7.112 85.4411 7.112 86.6571C7.112 87.9051 6.136 88.2731 4.856 88.2731L0.999996 88.2731L0.999996 90.0171L5.432 90.0171C6.456 90.0171 7.08 89.9051 7.64 89.5371C8.264 89.1211 8.648 88.3691 8.648 87.2971C8.648 86.1931 8.216 85.3291 7.416 84.8651L8.456 84.8651L8.456 83.1211L0.999996 83.1211Z" fill="#C4A36B"/>
</svg>
