<svg width="154" height="143" viewBox="0 0 154 143" fill="none" xmlns="http://www.w3.org/2000/svg">
<path opacity="0.38" d="M2.55811 36.1319L52.1765 36.1319L88.3567 0L153.773 0V12.9974L127.383 12.9974L118.601 4.22753L89.5546 4.22753L53.0321 40.7012L12.0963 40.7012L2.55811 36.1319Z" fill="#646464"/>
<path opacity="0.38" d="M22.7781 48.6266H56.2293L81.3492 23.5403V31.0599L56.8598 55.5166H46.547L43.2325 52.2065H18.9592L22.7781 48.6266Z" fill="#646464"/>
<path opacity="0.38" d="M153.773 142.91L85.9517 142.91L62.6962 119.676L0 119.676L7.39457 113.254L68.3885 113.254L80.7008 125.55V132.026L87.1586 138.466L153.773 138.466V142.91Z" fill="#646464"/>
<path opacity="0.38" d="M153.773 128.086H111.927L84.5469 100.742H32.3616L35.0906 98.0168H88.8071L102.335 111.536V115.08L112.837 125.568H153.773V128.086Z" fill="#646464"/>
<path opacity="0.38" d="M18.9595 32.1843H49.0241L72.6669 8.57312H67.2629L49.5916 26.2208V28.1367H45.8177H33.4874L31.3528 30.2684L11.646 30.2684L18.9595 32.1843Z" fill="#646464"/>
<path opacity="0.38" d="M153.773 47.6553L101.714 47.6553L74.315 75.0173H26.6602V70.8257H43.4758H72.6668L104.533 39.0023L123.33 39.0023L127.626 43.2928H153.773V47.6553Z" fill="#646464"/>
<path opacity="0.38" d="M153.773 65.0421L114.774 65.0421L94.6705 85.1274H61.6336L59.6611 87.0972H97.4356L115.476 69.0808L130.986 69.0808L133.571 71.6622H153.773V65.0421Z" fill="#646464"/>
<path opacity="0.38" d="M153.773 108.784H119.655L110.802 99.9507H113.63L120.889 107.2H131.157L134.877 103.486H153.773V108.784Z" fill="#646464"/>
</svg>
