<svg width="10" height="7" viewBox="0 0 10 7" fill="none" xmlns="http://www.w3.org/2000/svg">
<path opacity="0.4" d="M2.89026 4.19435L0.835138 4.38519C0.373933 4.38519 0 3.98874 0 3.49975C0 3.01077 0.373933 2.61431 0.835138 2.61431L2.89026 2.80515C3.25207 2.80515 3.5454 3.11615 3.5454 3.49975C3.5454 3.884 3.25207 4.19435 2.89026 4.19435Z" fill="white"/>
<path d="M9.79124 4.15926C9.75912 4.19332 9.63912 4.33725 9.5264 4.45677C8.86883 5.20534 7.15189 6.42941 6.25372 6.80402C6.11736 6.86378 5.77252 6.991 5.58767 7C5.41131 7 5.24283 6.95695 5.08222 6.87213C4.88162 6.75326 4.72162 6.56563 4.63314 6.34459C4.60492 6.26803 4.56865 6.11462 4.53946 5.97947C4.50285 5.80992 4.47176 5.63815 4.45 5.46606C4.3866 4.96452 4.35254 4.26482 4.35254 3.50386C4.35254 3.01526 4.36805 2.55123 4.39471 2.14801C4.42913 1.62747 4.43447 1.04615 4.66526 0.5783C4.84162 0.221039 5.18647 0 5.55555 0H5.58767C6.06561 0.016593 6.61708 0.361664 7.02789 0.606465C7.87604 1.11187 8.95176 1.90811 9.48845 2.50003C9.51959 2.53437 9.55033 2.56827 9.5817 2.60241C9.64357 2.66974 9.75057 2.78989 9.807 2.87479C9.93548 3.05342 9.99972 3.27446 9.99972 3.4955C9.99972 3.74224 9.9276 3.97164 9.79124 4.15926Z" fill="#C4A36B"/>
</svg>
