<svg width="10" height="9" viewBox="0 0 10 9" fill="none" xmlns="http://www.w3.org/2000/svg">
<path opacity="0.4" d="M2.89026 5.26208L0.835138 5.47154C0.373933 5.47154 0 5.03641 0 4.49972C0 3.96303 0.373933 3.52789 0.835138 3.52789L2.89026 3.73735C3.25207 3.73735 3.5454 4.07869 3.5454 4.49972C3.5454 4.92145 3.25207 5.26208 2.89026 5.26208Z" fill="#414141"/>
<path d="M9.79124 5.22358C9.75912 5.26096 9.63912 5.41893 9.5264 5.55011C8.86883 6.37171 7.15189 7.7152 6.25372 8.12636C6.11736 8.19195 5.77252 8.33159 5.58767 8.34146C5.41131 8.34146 5.24283 8.29421 5.08222 8.20112C4.88162 8.07065 4.72162 7.86472 4.63314 7.62211C4.60192 7.52913 4.56084 7.33292 4.5304 7.17482C4.50048 7.01938 4.47465 6.8626 4.45562 6.70545C4.38862 6.15211 4.35254 5.36378 4.35254 4.50423C4.35254 3.95268 4.36895 3.42965 4.39702 2.97842C4.43109 2.43067 4.45589 1.83674 4.65242 1.32432C4.65668 1.31321 4.66096 1.30282 4.66526 1.29325C4.84162 0.901138 5.18647 0.658535 5.55555 0.658535H5.58767C6.07339 0.677043 6.61289 1.05327 7.01993 1.31896C7.8709 1.87445 8.95415 2.75407 9.49148 3.40615C9.52059 3.44147 9.5493 3.47621 9.57871 3.51128C9.64007 3.58444 9.74965 3.71909 9.807 3.8138C9.93548 4.00985 9.99972 4.25246 9.99972 4.49506C9.99972 4.76587 9.9276 5.01765 9.79124 5.22358Z" fill="#414141"/>
</svg>
