<svg width="246" height="226" viewBox="0 0 246 226" fill="none" xmlns="http://www.w3.org/2000/svg">
<path opacity="0.38" d="M4.0791 57.6225H83.2096L140.909 0H245.234V20.728H203.148L189.143 6.74199H142.82L84.5741 64.9095H19.2904L4.0791 57.6225Z" fill="#646464"/>
<path opacity="0.38" d="M36.3261 75.6393H89.6735L129.734 35.6321V47.6242L90.6789 86.6273H74.2323L68.9464 81.3485H30.2358L36.3261 75.6393Z" fill="#646464"/>
<path opacity="0.38" d="M245.234 226H137.074L99.9868 188.948H0L11.7927 178.706H109.065L128.7 198.315V208.643L138.999 218.914H245.234V226Z" fill="#646464"/>
<path opacity="0.38" d="M245.234 202.36H178.5L134.834 158.752H51.6094L55.9616 154.406H141.628L163.202 175.966V181.618L179.95 198.343H245.234V202.36Z" fill="#646464"/>
<path opacity="0.38" d="M30.2362 49.4173H78.1827L115.888 11.7626H107.27L79.0877 39.9068V42.9622H73.0692H53.4051L50.0009 46.3619H18.5728L30.2362 49.4173Z" fill="#646464"/>
<path opacity="0.38" d="M245.234 74.0901H162.211L118.516 117.727H42.5171V111.042H69.3344H115.888L166.707 60.2906H196.684L203.536 67.133H245.234V74.0901Z" fill="#646464"/>
<path opacity="0.38" d="M245.234 101.818H183.039L150.979 133.85H98.2922L95.1465 136.991H155.388L184.159 108.259H208.894L213.016 112.376H245.234V101.818Z" fill="#646464"/>
<path opacity="0.38" d="M245.234 171.576H190.824L176.704 157.49H181.214L192.792 169.052H209.166L215.099 163.127H245.234V171.576Z" fill="#646464"/>
</svg>
