<svg width="139" height="24" viewBox="0 0 139 24" fill="none" xmlns="http://www.w3.org/2000/svg">
<g clip-path="url(#clip0)">
<path d="M96.2073 23.5891C91.0743 24.137 85.9257 24.137 80.7927 23.5891C78.746 23.3707 77.1293 21.754 76.9109 19.7071C76.363 14.5741 76.363 9.42572 76.9109 4.29272C77.1293 2.24597 78.746 0.629333 80.7927 0.410889C85.9257 -0.136963 91.0741 -0.136963 96.2071 0.410889C98.254 0.629333 99.8707 2.24597 100.089 4.29272C100.637 9.42572 100.637 14.5741 100.089 19.7071C99.8707 21.754 98.2542 23.3707 96.2073 23.5891Z" fill="url(#paint0_linear)"/>
<path d="M98.7838 5.1608C98.5901 3.34457 97.1557 1.90994 95.3393 1.71603C90.7843 1.23007 86.2158 1.23007 81.6609 1.71603C79.8447 1.90994 78.4101 3.34457 78.2162 5.1608C77.7302 9.71573 77.7302 14.2842 78.2162 18.839C78.4101 20.6554 79.8447 22.09 81.6609 22.2837C86.2158 22.7699 90.7843 22.7699 95.3391 22.2837C97.1555 22.09 98.5901 20.6554 98.7838 18.839C99.27 14.2842 99.27 9.71573 98.7838 5.1608Z" fill="url(#paint1_linear)"/>
<path d="M76.8597 19.21C76.8762 19.3759 76.8932 19.5417 76.911 19.7076C77.1295 21.7544 78.7461 23.371 80.793 23.5895C85.926 24.1373 91.0744 24.1373 96.2074 23.5895C98.2543 23.371 99.8708 21.7544 100.089 19.7076C100.107 19.5417 100.124 19.3759 100.141 19.21L76.8597 19.21Z" fill="url(#paint2_linear)"/>
<path d="M99.8303 20.7922L84.3425 5.3042C83.9966 4.85284 83.4525 4.56152 82.84 4.56152C81.7952 4.56152 80.9481 5.40839 80.9481 6.45319C80.9481 7.06586 81.2396 7.61005 81.691 7.95575L97.1249 23.3899C98.3724 22.9748 99.3667 22.0162 99.8303 20.7922Z" fill="url(#paint3_linear)"/>
<path d="M84.4291 9.58594H81.251V19.4381L85.7605 23.9476C89.2435 24.0795 92.7289 23.9603 96.2072 23.5889C96.8153 23.5241 97.385 23.335 97.8918 23.0486L84.4291 9.58594Z" fill="url(#paint4_linear)"/>
<path d="M95.2223 10.4113C94.6409 9.77393 93.804 9.37402 92.8736 9.37402C91.402 9.37402 90.4522 9.89093 89.887 10.3709L89.2642 9.58606H86.3358V19.4382L90.8589 23.9613C92.6427 23.9033 94.4258 23.7791 96.2072 23.5891C98.2541 23.3706 99.8706 21.754 100.089 19.7072C100.235 18.3387 100.342 16.9691 100.41 15.5991L95.2223 10.4113Z" fill="url(#paint5_linear)"/>
<path d="M81.2511 9.58594H84.4291V19.4381H81.2511V9.58594Z" fill="white"/>
<path d="M92.8736 9.37402C90.5447 9.37402 89.5217 10.6684 89.2642 11.0624V9.58606H86.3358V19.4382H89.514V14.4894C89.514 13.0594 90.1722 11.947 91.4208 11.947C92.6693 11.947 92.8736 13.3317 92.8736 15.0344V19.4382H96.0518V12.5522C96.0518 10.7969 94.6288 9.37402 92.8736 9.37402Z" fill="white"/>
<path d="M84.7316 6.45337C84.7316 7.49817 83.8848 8.34503 82.84 8.34503C81.7952 8.34503 80.9481 7.49817 80.9481 6.45337C80.9481 5.40857 81.7952 4.56152 82.84 4.56152C83.8848 4.56152 84.7316 5.40857 84.7316 6.45337Z" fill="white"/>
</g>
<g clip-path="url(#clip1)">
<path d="M57.9573 23.5891C52.8243 24.137 47.6757 24.137 42.5427 23.5891C40.496 23.3707 38.8793 21.754 38.6609 19.7071C38.113 14.5741 38.113 9.42572 38.6609 4.29272C38.8793 2.24597 40.496 0.629333 42.5427 0.410889C47.6757 -0.136963 52.8241 -0.136963 57.9571 0.410889C60.004 0.629333 61.6207 2.24597 61.8391 4.29272C62.387 9.42572 62.387 14.5741 61.8391 19.7071C61.6207 21.754 60.0042 23.3707 57.9573 23.5891Z" fill="url(#paint6_linear)"/>
<path d="M60.5338 5.1608C60.3401 3.34457 58.9057 1.90994 57.0893 1.71603C52.5343 1.23007 47.9659 1.23007 43.4109 1.71603C41.5947 1.90994 40.1601 3.34457 39.9662 5.1608C39.4802 9.71573 39.4802 14.2842 39.9662 18.839C40.1601 20.6554 41.5947 22.09 43.4109 22.2837C47.9659 22.7699 52.5343 22.7699 57.0891 22.2837C58.9055 22.09 60.3401 20.6554 60.5338 18.839C61.02 14.2842 61.02 9.71573 60.5338 5.1608Z" fill="url(#paint7_linear)"/>
<path d="M38.6097 19.21C38.6262 19.3759 38.6432 19.5417 38.661 19.7076C38.8795 21.7544 40.4961 23.371 42.543 23.5895C47.676 24.1373 52.8244 24.1373 57.9574 23.5895C60.0043 23.371 61.6208 21.7544 61.8392 19.7076C61.857 19.5417 61.874 19.3759 61.8907 19.21L38.6097 19.21Z" fill="url(#paint8_linear)"/>
<path d="M62.2449 11.1567L57.2631 6.17517C56.7048 6.49432 56.2128 6.67139 55.8422 6.76953C55.6338 6.82538 55.4637 6.85577 55.3414 6.87244C54.7797 6.29657 53.9952 5.93896 53.1269 5.93896C51.4186 5.93896 50.0334 7.32397 50.0334 9.03272C50.0334 9.09442 50.035 9.1554 50.0391 9.21619C50.0473 9.36432 50.0662 9.50989 50.0953 9.65143C49.3821 9.64081 47.064 9.45038 44.8531 7.55524C44.853 7.55524 44.853 7.55505 44.853 7.55505H44.8528L43.8102 6.51227C43.8102 6.51227 42.587 8.64709 44.3853 10.267C44.4642 10.3551 44.551 10.4421 44.6461 10.5276C44.6536 10.536 44.6614 10.5443 44.6689 10.5527C44.4329 10.5367 43.723 10.4661 43.3121 10.1758C43.3121 10.1758 43.2296 11.4807 44.3166 12.4412L45.1945 13.3265C44.9271 13.3487 44.6314 13.3434 44.4258 13.2533C44.4258 13.2533 44.6078 14.0262 45.3113 14.6447L46.541 15.8809C45.8033 16.3106 44.5118 16.8484 42.8119 16.7111L50.2718 24.0001C52.8349 23.9994 55.398 23.8624 57.9573 23.5892C60.0042 23.3708 61.6208 21.7542 61.8393 19.7074C62.1431 16.8601 62.278 14.0081 62.2449 11.1567Z" fill="url(#paint9_linear)"/>
<path d="M57.6882 7.37671C57.1572 7.65448 56.3574 7.78284 56.0923 7.81982C56.0901 7.80701 56.0879 7.79474 56.0857 7.78247C56.9871 7.22491 57.2631 6.17517 57.2631 6.17517C56.7048 6.49432 56.2128 6.67139 55.8422 6.76953C55.6338 6.82538 55.4637 6.85559 55.3414 6.87244C54.7796 6.29639 53.9952 5.93896 53.1269 5.93896C51.4185 5.93896 50.0333 7.32379 50.0333 9.03271C50.0333 9.09424 50.035 9.15539 50.039 9.216C50.0472 9.36413 50.0661 9.5097 50.0952 9.65124C49.2683 9.63898 46.2835 9.38537 43.8101 6.51227C43.8101 6.51227 42.4328 8.91534 44.7484 10.5569C44.7484 10.5569 43.8101 10.5276 43.3121 10.1758C43.3121 10.1758 43.1656 12.4914 45.8325 13.2238C45.8325 13.2238 44.8948 13.4586 44.4255 13.2533C44.4255 13.2533 44.8947 15.2462 47.2393 15.3931C47.2393 15.3931 45.5577 16.9326 42.8116 16.7111C44.1622 17.5662 45.7635 18.0611 47.4803 18.0611C52.3075 18.0611 56.2208 14.1479 56.2208 9.32074C56.2208 9.2605 56.2203 9.20026 56.219 9.14001C56.2203 9.10431 56.2208 9.06879 56.2208 9.03271C56.2208 9.00763 56.2203 8.98254 56.2199 8.95746C57.1124 8.36273 57.6882 7.37671 57.6882 7.37671Z" fill="white"/>
</g>
<g clip-path="url(#clip2)">
<path d="M19.7073 23.5891C14.5743 24.137 9.42572 24.137 4.29272 23.5891C2.24597 23.3707 0.629333 21.754 0.410889 19.7071C-0.136963 14.5741 -0.136963 9.42572 0.410889 4.29272C0.629333 2.24597 2.24597 0.629333 4.29272 0.410889C9.42572 -0.136963 14.5741 -0.136963 19.7071 0.410889C21.754 0.629333 23.3707 2.24597 23.5891 4.29272C24.137 9.42572 24.137 14.5741 23.5891 19.7071C23.3707 21.754 21.7542 23.3707 19.7073 23.5891Z" fill="url(#paint10_linear)"/>
<path d="M22.2838 5.1608C22.0901 3.34457 20.6557 1.90994 18.8393 1.71603C14.2843 1.23007 9.71585 1.23007 5.16092 1.71603C3.3447 1.90994 1.91006 3.34457 1.71616 5.1608C1.23019 9.71573 1.23019 14.2842 1.71616 18.839C1.91006 20.6554 3.3447 22.09 5.16092 22.2837C9.71585 22.7699 14.2843 22.7699 18.8391 22.2837C20.6555 22.09 22.0901 20.6554 22.2838 18.839C22.77 14.2842 22.77 9.71573 22.2838 5.1608Z" fill="url(#paint11_linear)"/>
<path d="M0.359741 19.21C0.376221 19.3759 0.39325 19.5417 0.411011 19.7076C0.629456 21.7544 2.24609 23.371 4.29303 23.5895C9.42602 24.1373 14.5744 24.1373 19.7074 23.5895C21.7543 23.371 23.3708 21.7544 23.5892 19.7076C23.607 19.5417 23.624 19.3759 23.6407 19.21L0.359741 19.21Z" fill="url(#paint12_linear)"/>
<path d="M16.1351 3.99707C14.044 3.99707 12.349 5.69226 12.349 7.78332V10.6114H10.3114L10.3114 14.1129L12.349 15.9379V23.999C14.803 23.9871 17.2568 23.8506 19.7073 23.5892C21.7542 23.3707 23.3707 21.7541 23.5891 19.7072C23.9967 15.8879 24.1009 12.0603 23.9019 8.23669L19.6622 3.99707L16.1351 3.99707Z" fill="url(#paint13_linear)"/>
<path d="M12.349 23.999C13.7474 23.9922 15.1456 23.9448 16.5432 23.8569V14.1129L19.326 14.1129L19.6622 10.6114H16.5432V8.38794C16.5432 7.89685 16.9413 7.49878 17.4324 7.49878H19.6622V3.99707L16.1351 3.99707C14.044 3.99707 12.349 5.69226 12.349 7.78332V10.6114H10.3114L10.3114 14.1129H12.349L12.349 23.999Z" fill="white"/>
</g>
<g clip-path="url(#clip3)">
<path d="M138.339 4.29272C138.121 2.24597 136.504 0.62915 134.457 0.410889C129.324 -0.136963 124.176 -0.136963 119.043 0.410889C116.996 0.629333 115.379 2.24597 115.161 4.29272C114.613 9.42572 114.613 14.5741 115.161 19.7071C115.379 21.754 116.996 23.3707 119.043 23.5891C124.176 24.137 129.324 24.137 134.457 23.5891C136.504 23.3707 138.121 21.754 138.339 19.7071C138.887 14.5741 138.887 9.4259 138.339 4.29272Z" fill="url(#paint14_radial)"/>
<path d="M137.034 5.1608C136.84 3.34457 135.406 1.90994 133.589 1.71603C129.034 1.23007 124.466 1.23007 119.911 1.71603C118.095 1.90994 116.66 3.34457 116.466 5.1608C115.98 9.71573 115.98 14.2842 116.466 18.839C116.66 20.6554 118.095 22.09 119.911 22.2837C124.466 22.7699 129.034 22.7699 133.589 22.2837C135.405 22.09 136.84 20.6554 137.034 18.839C137.52 14.2842 137.52 9.71573 137.034 5.1608Z" fill="url(#paint15_linear)"/>
<path d="M115.11 19.21C115.126 19.3759 115.143 19.5417 115.161 19.7076C115.379 21.7544 116.996 23.371 119.043 23.5895C124.176 24.1373 129.324 24.1373 134.457 23.5895C136.504 23.371 138.121 21.7544 138.339 19.7076C138.357 19.5417 138.374 19.3759 138.391 19.21L115.11 19.21Z" fill="url(#paint16_linear)"/>
<path d="M138.339 19.7069C138.634 16.9488 138.769 14.1862 138.747 11.4241L133.262 5.93826C132.576 5.15585 131.575 4.66751 130.399 4.62521C127.98 4.53805 125.553 4.54245 123.134 4.62558C121.125 4.69479 119.719 6.04538 119.359 8.03042C119.295 8.38089 119.257 8.73593 119.207 9.08896V14.9084C119.235 15.097 119.276 15.2847 119.288 15.4744C119.369 16.6818 119.865 17.716 120.66 18.4156L126.242 23.9979C128.982 24.0172 131.722 23.8809 134.457 23.5889C136.504 23.3704 138.121 21.7538 138.339 19.7069Z" fill="url(#paint17_linear)"/>
<path d="M138.339 19.7075C138.121 21.7541 136.504 23.3711 134.457 23.5894C131.722 23.8812 128.981 24.0176 126.242 23.9984L120.668 18.4243C121.314 18.9899 122.157 19.3343 123.134 19.3712C125.553 19.462 127.98 19.4596 130.399 19.3724C132.587 19.2933 134.17 17.6741 134.238 15.4864C134.311 13.1635 134.311 10.8346 134.238 8.51172C134.207 7.50244 133.853 6.61438 133.265 5.94238L138.748 11.4247C138.769 14.1865 138.633 16.9494 138.339 19.7075Z" fill="url(#paint18_linear)"/>
<path d="M129.582 9.40106C128.879 8.63586 127.871 8.15576 126.75 8.15576C124.627 8.15576 122.906 9.87695 122.906 11.9999C122.906 13.1207 123.386 14.129 124.151 14.8318L133.045 23.7258C133.516 23.6848 133.987 23.6392 134.457 23.589C136.504 23.3705 138.121 21.7539 138.339 19.707C138.389 19.2366 138.435 18.7658 138.476 18.295L129.582 9.40106Z" fill="url(#paint19_linear)"/>
<path d="M138.704 14.5851L131.546 7.42737C131.379 7.20819 131.115 7.06592 130.819 7.06592C130.314 7.06592 129.904 7.47534 129.904 7.98053C129.904 8.27734 130.046 8.54047 130.266 8.70746L138.576 17.0177C138.632 16.2071 138.675 15.3961 138.704 14.5851Z" fill="url(#paint20_linear)"/>
<path d="M119.207 9.08896C119.257 8.73593 119.295 8.38089 119.359 8.03042C119.719 6.04538 121.125 4.69479 123.134 4.62558C125.553 4.54245 127.98 4.53805 130.399 4.62521C132.586 4.70395 134.17 6.32333 134.238 8.51108C134.311 10.8341 134.311 13.1629 134.238 15.4859C134.17 17.6737 132.587 19.2929 130.399 19.3718C127.98 19.4591 125.553 19.4613 123.134 19.3705C120.947 19.2883 119.435 17.6653 119.288 15.4742C119.276 15.2847 119.235 15.0968 119.207 14.9082C119.207 12.9684 119.207 11.0286 119.207 9.08896ZM126.752 18.0752C127.859 18.0752 128.967 18.1084 130.073 18.0675C131.806 18.0033 132.873 16.9687 132.913 15.2369C132.963 13.079 132.963 10.9182 132.913 8.7601C132.873 7.02865 131.806 5.96994 130.073 5.93313C127.874 5.88662 125.672 5.88699 123.473 5.93313C121.753 5.96921 120.684 7.0065 120.637 8.7189C120.578 10.9041 120.578 13.0931 120.637 15.2783C120.684 16.9905 121.753 18.0038 123.473 18.0675C124.565 18.1082 125.659 18.0752 126.752 18.0752Z" fill="url(#paint21_linear)"/>
<path d="M119.207 9.08896C119.257 8.73593 119.295 8.38089 119.359 8.03042C119.719 6.04538 121.125 4.69479 123.134 4.62558C125.553 4.54245 127.98 4.53805 130.399 4.62521C132.586 4.70395 134.17 6.32333 134.238 8.51108C134.311 10.8341 134.311 13.1629 134.238 15.4859C134.17 17.6737 132.587 19.2929 130.399 19.3718C127.98 19.4591 125.553 19.4613 123.134 19.3705C120.947 19.2883 119.435 17.6653 119.288 15.4742C119.276 15.2847 119.235 15.0968 119.207 14.9082C119.207 12.9684 119.207 11.0286 119.207 9.08896ZM126.752 18.0752C127.859 18.0752 128.967 18.1084 130.073 18.0675C131.806 18.0033 132.873 16.9687 132.913 15.2369C132.963 13.079 132.963 10.9182 132.913 8.7601C132.873 7.02865 131.806 5.96994 130.073 5.93313C127.874 5.88662 125.672 5.88699 123.473 5.93313C121.753 5.96921 120.684 7.0065 120.637 8.7189C120.578 10.9041 120.578 13.0931 120.637 15.2783C120.684 16.9905 121.753 18.0038 123.473 18.0675C124.565 18.1082 125.659 18.0752 126.752 18.0752Z" fill="white"/>
<path d="M126.75 8.15576C124.627 8.15576 122.906 9.87677 122.906 11.9997C122.906 14.1228 124.627 15.8438 126.75 15.8438C128.873 15.8438 130.594 14.1228 130.594 11.9997C130.594 9.87677 128.873 8.15576 126.75 8.15576ZM126.75 14.5203C125.358 14.5203 124.229 13.3918 124.229 11.9997C124.229 10.6075 125.358 9.47906 126.75 9.47906C128.142 9.47906 129.271 10.6075 129.271 11.9997C129.271 13.3918 128.142 14.5203 126.75 14.5203Z" fill="white"/>
<path d="M131.733 7.98053C131.733 8.48553 131.324 8.89496 130.819 8.89496C130.314 8.89496 129.904 8.48553 129.904 7.98053C129.904 7.47534 130.314 7.06592 130.819 7.06592C131.324 7.06592 131.733 7.47534 131.733 7.98053Z" fill="white"/>
</g>
<defs>
<linearGradient id="paint0_linear" x1="84.4685" y1="3.37435" x2="90.5388" y2="16.3619" gradientUnits="userSpaceOnUse">
<stop stop-color="#0077B5"/>
<stop offset="1" stop-color="#0066B2"/>
</linearGradient>
<linearGradient id="paint1_linear" x1="93.5758" y1="14.7228" x2="58.707" y2="-3.98217" gradientUnits="userSpaceOnUse">
<stop stop-color="#0066B2" stop-opacity="0"/>
<stop offset="1" stop-color="#07485E"/>
</linearGradient>
<linearGradient id="paint2_linear" x1="88.5001" y1="19.4922" x2="88.5001" y2="24.5082" gradientUnits="userSpaceOnUse">
<stop stop-color="#0066B2" stop-opacity="0"/>
<stop offset="1" stop-color="#07485E"/>
</linearGradient>
<linearGradient id="paint3_linear" x1="89.2197" y1="12.833" x2="80.246" y2="3.85942" gradientUnits="userSpaceOnUse">
<stop stop-color="#0066B2" stop-opacity="0"/>
<stop offset="1" stop-color="#07485E"/>
</linearGradient>
<linearGradient id="paint4_linear" x1="94.4884" y1="21.17" x2="76.4178" y2="12.6994" gradientUnits="userSpaceOnUse">
<stop stop-color="#0066B2" stop-opacity="0"/>
<stop offset="1" stop-color="#07485E"/>
</linearGradient>
<linearGradient id="paint5_linear" x1="98.8842" y1="23.0275" x2="86.2954" y2="10.4387" gradientUnits="userSpaceOnUse">
<stop stop-color="#0066B2" stop-opacity="0"/>
<stop offset="1" stop-color="#07485E"/>
</linearGradient>
<linearGradient id="paint6_linear" x1="46.2185" y1="3.37435" x2="52.2888" y2="16.3619" gradientUnits="userSpaceOnUse">
<stop stop-color="#00C3FF"/>
<stop offset="1" stop-color="#00B0ED"/>
</linearGradient>
<linearGradient id="paint7_linear" x1="55.3258" y1="14.7228" x2="20.457" y2="-3.98217" gradientUnits="userSpaceOnUse">
<stop stop-color="#00B0ED" stop-opacity="0"/>
<stop offset="1" stop-color="#00A2CE"/>
</linearGradient>
<linearGradient id="paint8_linear" x1="50.2501" y1="20.5027" x2="50.2501" y2="23.6475" gradientUnits="userSpaceOnUse">
<stop stop-color="#00B0ED" stop-opacity="0"/>
<stop offset="1" stop-color="#00A2CE"/>
</linearGradient>
<linearGradient id="paint9_linear" x1="61.1916" y1="22.5973" x2="49.4669" y2="10.8726" gradientUnits="userSpaceOnUse">
<stop stop-color="#00B0ED" stop-opacity="0"/>
<stop offset="1" stop-color="#00A2CE"/>
</linearGradient>
<linearGradient id="paint10_linear" x1="7.96847" y1="3.37435" x2="14.0388" y2="16.3619" gradientUnits="userSpaceOnUse">
<stop stop-color="#3457A0"/>
<stop offset="1" stop-color="#3B5998"/>
</linearGradient>
<linearGradient id="paint11_linear" x1="16.5528" y1="15.1281" x2="-4.42716" y2="0.712856" gradientUnits="userSpaceOnUse">
<stop stop-color="#3457A0" stop-opacity="0"/>
<stop offset="1" stop-color="#1F3F77"/>
</linearGradient>
<linearGradient id="paint12_linear" x1="12.0001" y1="20.0569" x2="12.0001" y2="23.3046" gradientUnits="userSpaceOnUse">
<stop stop-color="#3457A0" stop-opacity="0"/>
<stop offset="1" stop-color="#1F3F77"/>
</linearGradient>
<linearGradient id="paint13_linear" x1="27.5521" y1="19.8202" x2="10.8941" y2="11.4206" gradientUnits="userSpaceOnUse">
<stop stop-color="#3457A0" stop-opacity="0"/>
<stop offset="0.3251" stop-color="#2A4C8D" stop-opacity="0.32549"/>
<stop offset="0.7045" stop-color="#22427D" stop-opacity="0.705882"/>
<stop offset="1" stop-color="#1F3F77"/>
</linearGradient>
<radialGradient id="paint14_radial" cx="0" cy="0" r="1" gradientUnits="userSpaceOnUse" gradientTransform="translate(119.67 20.9741) scale(26.4678)">
<stop stop-color="#FAE100"/>
<stop offset="0.0544" stop-color="#FADC04"/>
<stop offset="0.1167" stop-color="#FBCE0E"/>
<stop offset="0.1829" stop-color="#FCB720"/>
<stop offset="0.2514" stop-color="#FE9838"/>
<stop offset="0.3054" stop-color="#FF7950"/>
<stop offset="0.4922" stop-color="#FF1C74"/>
<stop offset="1" stop-color="#6C1CD1"/>
</radialGradient>
<linearGradient id="paint15_linear" x1="123.955" y1="10.4278" x2="83.2962" y2="-12.4428" gradientUnits="userSpaceOnUse">
<stop stop-color="#A1B5D8" stop-opacity="0"/>
<stop offset="0.3094" stop-color="#90A2BD" stop-opacity="0.309804"/>
<stop offset="0.7554" stop-color="#7C8B9C" stop-opacity="0.756863"/>
<stop offset="1" stop-color="#748290"/>
</linearGradient>
<linearGradient id="paint16_linear" x1="126.75" y1="21.1863" x2="126.75" y2="24.9273" gradientUnits="userSpaceOnUse">
<stop stop-color="#FAE100" stop-opacity="0"/>
<stop offset="0.3068" stop-color="#FCA800" stop-opacity="0.305882"/>
<stop offset="0.6275" stop-color="#FE7300" stop-opacity="0.627451"/>
<stop offset="0.8685" stop-color="#FF5200" stop-opacity="0.866667"/>
<stop offset="1" stop-color="#FF4500"/>
</linearGradient>
<linearGradient id="paint17_linear" x1="125.385" y1="10.6005" x2="119.445" y2="4.66085" gradientUnits="userSpaceOnUse">
<stop stop-color="#833AB4" stop-opacity="0"/>
<stop offset="1" stop-color="#833AB4"/>
</linearGradient>
<linearGradient id="paint18_linear" x1="131.198" y1="21.9512" x2="128.234" y2="7.97544" gradientUnits="userSpaceOnUse">
<stop stop-color="#833AB4" stop-opacity="0"/>
<stop offset="1" stop-color="#833AB4"/>
</linearGradient>
<linearGradient id="paint19_linear" x1="132.327" y1="17.5764" x2="120.419" y2="5.66898" gradientUnits="userSpaceOnUse">
<stop stop-color="#833AB4" stop-opacity="0"/>
<stop offset="1" stop-color="#833AB4"/>
</linearGradient>
<linearGradient id="paint20_linear" x1="133.21" y1="10.3716" x2="129.272" y2="6.43405" gradientUnits="userSpaceOnUse">
<stop stop-color="#833AB4" stop-opacity="0"/>
<stop offset="1" stop-color="#833AB4"/>
</linearGradient>
<linearGradient id="paint21_linear" x1="131.515" y1="7.26773" x2="121.807" y2="16.9763" gradientUnits="userSpaceOnUse">
<stop stop-color="#833AB4"/>
<stop offset="0.0922" stop-color="#9C3495"/>
<stop offset="0.2927" stop-color="#DC2546"/>
<stop offset="0.392" stop-color="#FD1D1D"/>
<stop offset="0.5589" stop-color="#FC6831"/>
<stop offset="0.6887" stop-color="#FC9B40"/>
<stop offset="0.7521" stop-color="#FCAF45"/>
<stop offset="0.7806" stop-color="#FDB750"/>
<stop offset="0.8656" stop-color="#FECB6A"/>
<stop offset="0.9415" stop-color="#FFD87A"/>
<stop offset="1" stop-color="#FFDC80"/>
</linearGradient>
<clipPath id="clip0">
<rect width="24" height="24" fill="white" transform="translate(76.5)"/>
</clipPath>
<clipPath id="clip1">
<rect width="24" height="24" fill="white" transform="translate(38.25)"/>
</clipPath>
<clipPath id="clip2">
<rect width="24" height="24" fill="white"/>
</clipPath>
<clipPath id="clip3">
<rect width="24" height="24" fill="white" transform="translate(114.75)"/>
</clipPath>
</defs>
</svg>
