<svg width="25" height="24" viewBox="0 0 25 24" fill="none" xmlns="http://www.w3.org/2000/svg">
<g clip-path="url(#clip0)">
<path d="M19.9573 23.5891C14.8243 24.137 9.67572 24.137 4.54272 23.5891C2.49597 23.3707 0.879333 21.754 0.660889 19.7071C0.113037 14.5741 0.113037 9.42572 0.660889 4.29272C0.879333 2.24597 2.49597 0.629333 4.54272 0.410889C9.67572 -0.136963 14.8241 -0.136963 19.9571 0.410889C22.004 0.629333 23.6207 2.24597 23.8391 4.29272C24.387 9.42572 24.387 14.5741 23.8391 19.7071C23.6207 21.754 22.0042 23.3707 19.9573 23.5891Z" fill="url(#paint0_linear)"/>
<path d="M22.5337 5.1608C22.34 3.34457 20.9056 1.90994 19.0891 1.71603C14.5342 1.23007 9.96573 1.23007 5.4108 1.71603C3.59457 1.90994 2.15994 3.34457 1.96603 5.1608C1.48007 9.71573 1.48007 14.2842 1.96603 18.839C2.15994 20.6554 3.59457 22.09 5.4108 22.2837C9.96573 22.7699 14.5342 22.7699 19.089 22.2837C20.9054 22.09 22.34 20.6554 22.5337 18.839C23.0199 14.2842 23.0199 9.71573 22.5337 5.1608Z" fill="url(#paint1_linear)"/>
<path d="M0.609863 19.21C0.626343 19.3759 0.643372 19.5417 0.661133 19.7076C0.879578 21.7544 2.49622 23.371 4.54315 23.5895C9.67615 24.1373 14.8245 24.1373 19.9575 23.5895C22.0044 23.371 23.6209 21.7544 23.8393 19.7076C23.8571 19.5417 23.8741 19.3759 23.8908 19.21L0.609863 19.21Z" fill="url(#paint2_linear)"/>
<path d="M24.245 11.1567L19.2632 6.17517C18.7049 6.49432 18.2129 6.67139 17.8423 6.76953C17.634 6.82538 17.4639 6.85577 17.3415 6.87244C16.7798 6.29657 15.9954 5.93896 15.1271 5.93896C13.4187 5.93896 12.0335 7.32397 12.0335 9.03272C12.0335 9.09442 12.0352 9.1554 12.0392 9.21619C12.0474 9.36432 12.0663 9.50989 12.0954 9.65143C11.3822 9.64081 9.06409 9.45038 6.85327 7.55524C6.85309 7.55524 6.85309 7.55505 6.85309 7.55505H6.8529L5.8103 6.51227C5.8103 6.51227 4.58716 8.64709 6.38544 10.267C6.46435 10.3551 6.55115 10.4421 6.64618 10.5276C6.65369 10.536 6.66156 10.5443 6.66907 10.5527C6.43304 10.5367 5.72314 10.4661 5.31226 10.1758C5.31226 10.1758 5.22968 11.4807 6.31677 12.4412L7.19458 13.3265C6.92725 13.3487 6.63153 13.3434 6.4259 13.2533C6.4259 13.2533 6.60791 14.0262 7.3114 14.6447L8.54114 15.8809C7.8034 16.3106 6.51196 16.8484 4.81201 16.7111L12.2719 24.0001C14.835 23.9994 17.3981 23.8624 19.9574 23.5892C22.0043 23.3708 23.621 21.7542 23.8394 19.7074C24.1432 16.8601 24.2781 14.0081 24.245 11.1567Z" fill="url(#paint3_linear)"/>
<path d="M19.6881 7.37671C19.1571 7.65448 18.3573 7.78284 18.0922 7.81982C18.09 7.80701 18.0878 7.79474 18.0856 7.78247C18.987 7.22491 19.2629 6.17517 19.2629 6.17517C18.7046 6.49432 18.2126 6.67139 17.842 6.76953C17.6337 6.82538 17.4636 6.85559 17.3412 6.87244C16.7795 6.29639 15.9951 5.93896 15.1268 5.93896C13.4184 5.93896 12.0332 7.32379 12.0332 9.03271C12.0332 9.09424 12.0349 9.15539 12.0389 9.216C12.0471 9.36413 12.066 9.5097 12.0951 9.65124C11.2682 9.63898 8.28339 9.38537 5.81 6.51227C5.81 6.51227 4.43268 8.91534 6.74823 10.5569C6.74823 10.5569 5.81 10.5276 5.31195 10.1758C5.31195 10.1758 5.16547 12.4914 7.8324 13.2238C7.8324 13.2238 6.89471 13.4586 6.42541 13.2533C6.42541 13.2533 6.89453 15.2462 9.2392 15.3931C9.2392 15.3931 7.55756 16.9326 4.81152 16.7111C6.16211 17.5662 7.76337 18.0611 9.48016 18.0611C14.3074 18.0611 18.2207 14.1479 18.2207 9.32074C18.2207 9.2605 18.2202 9.20026 18.2189 9.14001C18.2202 9.10431 18.2207 9.06879 18.2207 9.03271C18.2207 9.00763 18.2202 8.98254 18.2198 8.95746C19.1122 8.36273 19.6881 7.37671 19.6881 7.37671Z" fill="white"/>
</g>
<defs>
<linearGradient id="paint0_linear" x1="8.21847" y1="3.37435" x2="14.2888" y2="16.3619" gradientUnits="userSpaceOnUse">
<stop stop-color="#00C3FF"/>
<stop offset="1" stop-color="#00B0ED"/>
</linearGradient>
<linearGradient id="paint1_linear" x1="17.3257" y1="14.7228" x2="-17.5431" y2="-3.98217" gradientUnits="userSpaceOnUse">
<stop stop-color="#00B0ED" stop-opacity="0"/>
<stop offset="1" stop-color="#00A2CE"/>
</linearGradient>
<linearGradient id="paint2_linear" x1="12.2503" y1="20.5027" x2="12.2503" y2="23.6475" gradientUnits="userSpaceOnUse">
<stop stop-color="#00B0ED" stop-opacity="0"/>
<stop offset="1" stop-color="#00A2CE"/>
</linearGradient>
<linearGradient id="paint3_linear" x1="23.1917" y1="22.5973" x2="11.467" y2="10.8726" gradientUnits="userSpaceOnUse">
<stop stop-color="#00B0ED" stop-opacity="0"/>
<stop offset="1" stop-color="#00A2CE"/>
</linearGradient>
<clipPath id="clip0">
<rect width="24" height="24" fill="white" transform="translate(0.25)"/>
</clipPath>
</defs>
</svg>
